<svg width="40" height="40" viewBox="0 0 40 40" fill="none" xmlns="http://www.w3.org/2000/svg">
<rect width="40" height="40" rx="20" fill="#ECEEFE"/>
<mask id="mask0_489_4456" style="mask-type:alpha" maskUnits="userSpaceOnUse" x="8" y="8" width="24" height="24">
<rect x="8" y="8" width="24" height="24" fill="#D9D9D9"/>
</mask>
<g mask="url(#mask0_489_4456)">
<path d="M14.6 21.9499H25.4C25.6833 21.9499 25.921 21.8539 26.113 21.6619C26.3043 21.4706 26.4 21.2332 26.4 20.9499C26.4 20.6666 26.3043 20.4289 26.113 20.2369C25.921 20.0456 25.6833 19.9499 25.4 19.9499H14.6C14.3166 19.9499 14.0793 20.0456 13.888 20.2369C13.696 20.4289 13.6 20.6666 13.6 20.9499C13.6 21.2332 13.696 21.4706 13.888 21.6619C14.0793 21.8539 14.3166 21.9499 14.6 21.9499ZM14.6 18.5999H25.4C25.6833 18.5999 25.921 18.5039 26.113 18.3119C26.3043 18.1206 26.4 17.8832 26.4 17.5999C26.4 17.3166 26.3043 17.0789 26.113 16.8869C25.921 16.6956 25.6833 16.5999 25.4 16.5999H14.6C14.3166 16.5999 14.0793 16.6956 13.888 16.8869C13.696 17.0789 13.6 17.3166 13.6 17.5999C13.6 17.8832 13.696 18.1206 13.888 18.3119C14.0793 18.5039 14.3166 18.5999 14.6 18.5999ZM14.6 15.2499H25.4C25.6833 15.2499 25.921 15.1542 26.113 14.9629C26.3043 14.7709 26.4 14.5332 26.4 14.2499C26.4 13.9666 26.3043 13.7289 26.113 13.5369C25.921 13.3456 25.6833 13.2499 25.4 13.2499H14.6C14.3166 13.2499 14.0793 13.3456 13.888 13.5369C13.696 13.7289 13.6 13.9666 13.6 14.2499C13.6 14.5332 13.696 14.7709 13.888 14.9629C14.0793 15.1542 14.3166 15.2499 14.6 15.2499ZM28.575 28.8249L26.15 26.3999H11.85C11.1166 26.3999 10.4916 26.1416 9.97495 25.6249C9.45828 25.1082 9.19995 24.4832 9.19995 23.7499V11.5499C9.19995 10.8166 9.45828 10.1916 9.97495 9.6749C10.4916 9.15824 11.1166 8.8999 11.85 8.8999H28.15C28.8833 8.8999 29.5083 9.15824 30.025 9.6749C30.5416 10.1916 30.7999 10.8166 30.7999 11.5499V27.8999C30.7999 28.4832 30.5333 28.8872 30 29.1119C29.4666 29.3372 28.9916 29.2416 28.575 28.8249ZM11.85 11.5499V23.7499H27.25L28.15 24.6499V11.5499H11.85Z" fill="#535AF1"/>
</g>
</svg>
