<svg width="30" height="31" viewBox="0 0 30 31" fill="none" xmlns="http://www.w3.org/2000/svg">
<path d="M14.423 20.0625C14.2146 20.0625 14.0113 20.0208 13.813 19.9375C13.6155 19.8542 13.4334 19.7292 13.2667 19.5625L7.45422 13.75C7.14172 13.4375 6.99047 13.0467 7.00047 12.5775C7.0113 12.1092 7.17297 11.7188 7.48547 11.4062C7.79797 11.0938 8.1888 10.9375 8.65797 10.9375C9.1263 10.9375 9.51672 11.0938 9.82922 11.4062L14.423 16.0312L19.048 11.4062C19.3605 11.0938 19.7509 10.9375 20.2192 10.9375C20.6884 10.9375 21.0792 11.0938 21.3917 11.4062C21.7042 11.7188 21.8605 12.1092 21.8605 12.5775C21.8605 13.0467 21.7042 13.4375 21.3917 13.75L15.5792 19.5625C15.4125 19.7292 15.2305 19.8542 15.033 19.9375C14.8346 20.0208 14.6313 20.0625 14.423 20.0625Z" fill="#535AF1"/>
</svg>
