<svg width="40" height="40" viewBox="0 0 40 40" fill="none" xmlns="http://www.w3.org/2000/svg">
<rect width="40" height="40" rx="20" fill="#ECEEFE"/>
<mask id="mask0_182_266" style="mask-type:alpha" maskUnits="userSpaceOnUse" x="8" y="8" width="24" height="24">
<rect x="8" y="8" width="24" height="24" fill="#D9D9D9"/>
</mask>
<g mask="url(#mask0_182_266)">
<path d="M18.5 27.6999L11.75 20.9499C11.6167 20.8165 11.521 20.6705 11.463 20.5119C11.4043 20.3539 11.375 20.1915 11.375 20.0249C11.375 19.8582 11.4043 19.6955 11.463 19.5369C11.521 19.3789 11.6167 19.2332 11.75 19.0999L18.525 12.3249C18.7917 12.0582 19.1043 11.9289 19.463 11.9369C19.821 11.9455 20.1333 12.0832 20.4 12.3499C20.6667 12.6165 20.8 12.9332 20.8 13.2999C20.8 13.6665 20.6667 13.9832 20.4 14.2499L15.95 18.6999H26.75C27.1167 18.6999 27.4293 18.8289 27.688 19.0869C27.946 19.3455 28.075 19.6582 28.075 20.0249C28.075 20.3915 27.946 20.7039 27.688 20.9619C27.4293 21.2205 27.1167 21.3499 26.75 21.3499H15.95L20.425 25.8249C20.6917 26.0915 20.8207 26.4042 20.812 26.7629C20.804 27.1209 20.6667 27.4332 20.4 27.6999C20.1333 27.9665 19.8167 28.0999 19.45 28.0999C19.0833 28.0999 18.7667 27.9665 18.5 27.6999Z" fill="#535AF1"/>
</g>
</svg>
