<svg width="40" height="40" viewBox="0 0 40 40" fill="none" xmlns="http://www.w3.org/2000/svg">
<mask id="mask0_182_264" style="mask-type:alpha" maskUnits="userSpaceOnUse" x="8" y="8" width="24" height="24">
<rect x="8" y="8" width="24" height="24" fill="#D9D9D9"/>
</mask>
<g mask="url(#mask0_182_264)">
<path d="M18.875 27.3001L12.275 20.7001C12.175 20.6001 12.104 20.4917 12.062 20.3751C12.0207 20.2584 12 20.1334 12 20.0001C12 19.8667 12.0207 19.7417 12.062 19.6251C12.104 19.5084 12.175 19.4001 12.275 19.3001L18.875 12.7001C19.0583 12.5167 19.2873 12.4207 19.562 12.4121C19.8373 12.4041 20.075 12.5001 20.275 12.7001C20.475 12.8834 20.5793 13.1124 20.588 13.3871C20.596 13.6624 20.5 13.9001 20.3 14.1001L15.4 19.0001H26.575C26.8583 19.0001 27.096 19.0957 27.288 19.2871C27.4793 19.4791 27.575 19.7167 27.575 20.0001C27.575 20.2834 27.4793 20.5207 27.288 20.7121C27.096 20.9041 26.8583 21.0001 26.575 21.0001H15.4L20.3 25.9001C20.4833 26.0834 20.5793 26.3167 20.588 26.6001C20.596 26.8834 20.5 27.1167 20.3 27.3001C20.1167 27.5001 19.8833 27.6001 19.6 27.6001C19.3167 27.6001 19.075 27.5001 18.875 27.3001Z" fill="black"/>
</g>
</svg>
