<svg width="70" height="70" viewBox="0 0 70 70" fill="none" xmlns="http://www.w3.org/2000/svg">
<path d="M72.4997 -2.49976H-2.5V72.5H72.4997V-2.49976Z" fill="#ADB0D9"/>
<path d="M43.5345 72.5H10.1597C10.2797 72.14 10.3997 71.795 10.5197 71.45C12.9047 64.4001 13.8347 57.5601 13.9697 50.1651C22.4146 52.3101 31.2946 51.3951 40.0096 51.3051C43.2495 51.2751 42.1696 53.8101 42.1996 56.1801C42.2446 59.1351 42.4095 62.0901 42.6645 65.0301C42.8745 67.52 43.1746 70.01 43.5345 72.5Z" fill="#ADB0D9"/>
<path d="M43.5345 72.5H10.1597C10.2797 72.14 10.3997 71.795 10.5197 71.45C12.9047 64.4001 13.8347 57.5601 13.9697 50.1651C22.4146 52.3101 31.2946 51.3951 40.0096 51.3051C43.2495 51.2751 42.1696 53.8101 42.1996 56.1801C42.2446 59.1351 42.4095 62.0901 42.6645 65.0301C42.8745 67.52 43.1746 70.01 43.5345 72.5Z" fill="#E8AE8E"/>
<path d="M19.8649 56.195C19.9249 56.255 19.9699 56.33 20.0299 56.39C20.7199 57.215 21.4249 58.025 22.2499 58.73C26.5249 62.36 33.1699 62.78 38.4199 63.8C41.6149 64.43 44.8099 64.535 47.9598 63.56C51.5898 62.45 54.8448 59.99 56.6748 56.66C58.9398 52.505 58.8498 47.5251 58.6998 42.8001C58.6098 40.1151 58.5348 37.4301 58.4448 34.7451C58.3848 33.0651 58.3398 31.3701 58.4298 29.6901C58.6398 25.5501 59.7198 21.2901 58.8348 17.1652C58.0998 13.7302 55.2198 10.1602 52.0248 8.70519C46.9698 6.4102 40.9249 5.8102 35.4499 6.4252C31.4899 6.87519 27.4699 7.34019 23.8399 8.96019C20.5699 10.4152 16.34 12.2602 14.6 15.5002C12.395 19.6102 11.135 24.3651 10.595 28.9851C10.145 32.7951 10.235 36.6801 10.835 40.4751C11.405 44.0601 12.365 47.3301 14.735 50.12C16.43 52.16 18.1549 54.185 19.8649 56.195Z" fill="#F4C19F"/>
<path d="M43.595 44.5401C43.145 44.5401 42.785 44.1801 42.77 43.7301C42.755 43.2801 43.115 42.8901 43.58 42.8901C45.635 42.8451 46.46 42.2451 47.855 40.9701C46.265 37.4002 45.32 33.6202 45.065 29.7202C45.035 29.2702 45.38 28.8652 45.83 28.8352C46.28 28.8052 46.67 29.1502 46.715 29.6002C46.97 33.4402 47.975 37.3252 49.61 40.8052C49.76 41.1352 49.6849 41.5101 49.4299 41.7651C47.525 43.5501 46.4 44.4801 43.64 44.5401C43.61 44.5401 43.61 44.5401 43.595 44.5401Z" fill="#1B1464"/>
<path d="M36.9746 36.5693C38.1733 36.4906 39.0372 34.7849 38.9043 32.7596C38.7714 30.7342 37.6919 29.1561 36.4932 29.2347C35.2945 29.3134 34.4305 31.0191 34.5634 33.0445C34.6964 35.0698 35.7759 36.648 36.9746 36.5693Z" fill="#1B1464"/>
<path d="M53.6406 36.1042C54.8393 36.0255 55.7032 34.3199 55.5703 32.2945C55.4374 30.2691 54.3579 28.691 53.1592 28.7697C51.9605 28.8483 51.0965 30.554 51.2295 32.5794C51.3624 34.6048 52.4419 36.1829 53.6406 36.1042Z" fill="#1B1464"/>
<path d="M57.3947 29.2851C57.1547 29.2851 56.9297 29.1801 56.7647 29.0001C53.8547 25.5651 50.4348 25.6251 50.4048 25.6251C49.9398 25.6401 49.5648 25.2801 49.5498 24.8301C49.5348 24.3801 49.8948 23.9901 50.3448 23.9751C50.5098 23.9751 54.5898 23.8851 58.0097 27.9351C58.3097 28.2801 58.2647 28.8051 57.9197 29.1051C57.7697 29.2101 57.5897 29.2851 57.3947 29.2851Z" fill="#1B1464"/>
<path d="M29.1199 30.6351C29.0599 30.6351 28.9999 30.6351 28.9399 30.6201C28.4899 30.5301 28.2049 30.0801 28.3099 29.6301C28.3399 29.4501 29.2999 25.3251 37.7298 22.9851C38.1648 22.8651 38.6298 23.1201 38.7498 23.5551C38.8698 23.9901 38.6148 24.4551 38.1798 24.5751C30.8299 26.6151 29.9299 29.9601 29.9299 29.9901C29.8399 30.3801 29.5099 30.6351 29.1199 30.6351Z" fill="#1B1464"/>
<path d="M43.7749 53.0151C43.1299 53.0151 42.4399 52.9251 41.7649 52.7301C40.1749 52.2801 38.7649 51.3651 37.5049 50.5701C37.1149 50.3301 37.0099 49.8201 37.2499 49.4301C37.4899 49.0401 37.9999 48.9351 38.3899 49.1751C39.6049 49.9551 40.8499 50.7501 42.2149 51.1401C43.6249 51.5451 44.9599 51.4101 45.9049 50.7801C46.2799 50.5251 46.7899 50.6301 47.0449 51.0051C47.2999 51.3801 47.1949 51.8901 46.8199 52.1451C45.9649 52.7301 44.9149 53.0151 43.7749 53.0151Z" fill="#1B1464"/>
<path d="M13.8348 42.8151C13.2648 40.2951 13.8948 37.4451 14.0148 34.8651C14.0298 34.5351 14.0598 34.1751 14.2698 33.9501C14.7048 33.4851 15.4248 33.9051 16.0098 34.1001C17.1048 34.4601 18.3348 33.8751 19.0548 32.9301C19.9098 31.8201 20.1648 30.3052 20.1948 28.8652C20.2098 28.0552 20.1498 27.3502 19.8348 26.6302C19.6398 26.1952 19.2198 24.9352 18.7398 24.7702C20.6748 25.4302 23.0148 25.3252 24.4548 23.7952C24.8898 23.3452 25.2048 22.7902 25.4898 22.2052C26.2248 20.6752 26.9448 17.9602 25.5648 16.6102C26.8998 17.9602 28.8048 18.9202 30.6798 18.4702C32.5847 18.0052 34.0398 15.5602 33.1098 13.7152C34.0698 15.7252 35.2547 17.9452 37.3097 18.4852C39.5897 19.0852 42.0947 16.7602 41.8547 14.2702C42.8597 16.7902 44.4047 19.3252 46.8047 20.2852C49.2197 21.2452 52.5197 19.8052 52.7747 17.0752C52.7147 17.7952 52.4297 18.5602 52.4597 19.2652C52.5947 21.9202 54.9797 23.9602 56.9897 25.1452C58.9097 26.2702 61.1597 27.5152 63.4697 27.1402C65.6446 26.7802 66.7246 24.9352 67.0546 22.7452C67.2646 21.3052 67.1746 19.6702 66.2296 18.6202C65.1646 20.2852 63.1996 21.2452 61.3097 21.0052C62.3897 20.3602 63.1997 19.0702 63.0197 17.7652C62.8097 16.2052 61.2947 15.5902 60.0347 15.8902C61.2797 14.2852 62.9296 13.1002 62.8246 10.7302C62.7197 8.10523 60.6047 5.42024 58.5197 4.23524C57.4397 3.62024 56.1647 3.26024 54.9647 3.56024C53.7647 3.86024 52.6997 4.92524 52.5947 6.23023C52.2797 3.66524 50.6447 1.43025 48.6047 0.0352554C46.5647 -1.35974 44.1497 -2.00474 41.7497 -2.34974C40.2047 -2.55974 38.5697 -2.64974 37.1747 -1.92974C35.7797 -1.20974 34.7598 0.575254 35.2848 2.12025C33.4848 -0.684742 30.2598 -2.18474 27.0798 -2.39474C23.8998 -2.60474 20.7348 -1.67474 17.7648 -0.459742C16.6248 0.00525594 15.4548 0.575254 14.7648 1.64025C13.2948 3.95024 14.8998 7.04023 16.5948 9.18522C15.5898 6.98023 12.8898 6.47023 10.5948 6.42523C8.20985 6.38023 5.32985 6.83023 4.32486 9.15522C3.24486 11.6602 5.11986 14.4352 6.85985 16.4752C4.26486 15.3202 0.919878 17.5552 0.769879 20.5402C0.619879 23.5252 3.72486 26.1502 6.40985 25.2952C5.76486 24.4102 4.30986 24.7552 3.72486 25.7002C3.13986 26.6452 3.22987 27.8752 3.46987 28.9702C3.85987 30.7552 4.60986 32.4351 5.65986 33.8901C6.46985 35.0001 8.25484 35.9001 8.91484 34.6701C7.00985 34.8501 5.26986 36.3801 4.75986 38.3451C4.23486 40.3101 4.95486 42.5751 6.48485 43.8051C7.15985 44.3451 8.04485 44.7051 8.86985 44.4951C9.69485 44.2851 10.3848 43.3551 10.1748 42.4851C9.34984 42.1101 8.35984 42.8151 8.07484 43.7301C7.80485 44.6451 8.05984 45.6351 8.44984 46.5051C9.13984 48.0651 10.2498 49.4151 11.5998 50.3601C11.8998 50.5701 12.2598 50.7801 12.6198 50.7201C13.1748 50.6301 13.4898 50.0151 13.6848 49.4601C14.4198 47.2401 14.3298 45.0801 13.8348 42.8151Z" fill="#444DF2"/>
<path d="M14.9147 27.7852C13.9547 26.6452 12.6197 25.8952 10.7897 25.8502C8.10476 25.7902 5.52477 27.6352 4.56477 30.1402C3.00478 34.1751 5.61477 39.1101 9.13976 41.1801C12.2747 43.0251 15.9497 41.9451 16.8647 38.3001C17.2697 36.6801 17.1047 34.9701 16.9547 33.3202C16.7447 31.3252 16.1447 29.2552 14.9147 27.7852Z" fill="#F4C19F"/>
<path d="M9.01984 37.8351C8.59984 37.8351 8.23984 37.5051 8.19484 37.0851C8.07484 35.6901 8.61484 34.8501 9.09484 34.3851C9.96483 33.5451 11.2398 33.3351 12.1698 33.3051C12.0348 32.9901 11.8248 32.7201 11.5548 32.5101C10.3248 31.5352 8.10483 31.8352 8.08983 31.8352C7.63983 31.9102 7.21984 31.5952 7.14484 31.1452C7.06984 30.6952 7.38484 30.2752 7.83484 30.2002C7.95484 30.1852 10.7748 29.7802 12.5748 31.2202C13.4448 31.9102 13.9248 32.8851 14.0298 34.1151C14.0448 34.3701 13.9548 34.6101 13.7748 34.7751C13.5948 34.9401 13.3398 35.0301 13.0998 35.0001C12.5448 34.9251 10.9548 34.8951 10.2348 35.6001C9.91983 35.9151 9.78482 36.3501 9.82982 36.9651C9.87482 37.4151 9.52982 37.8201 9.07982 37.8651C9.07982 37.8351 9.04984 37.8351 9.01984 37.8351Z" fill="#EAAA7F"/>
<path d="M41.6599 64.6701C41.4199 64.6701 37.5499 64.6551 32.5849 63.3651C27.9349 62.1651 21.4399 59.5701 16.88 54.0501C16.595 53.7051 16.64 53.1801 16.985 52.8951C17.33 52.6101 17.855 52.6551 18.14 53.0001C22.3999 58.1601 28.5499 60.6201 32.9449 61.7601C37.7599 63.0051 41.5999 63.0201 41.6449 63.0201C42.0949 63.0201 42.4699 63.3951 42.4699 63.8451C42.4999 64.2951 42.1249 64.6701 41.6599 64.6701C41.6749 64.6701 41.6749 64.6701 41.6599 64.6701Z" fill="#1B1464"/>
</svg>
