<svg width="64" height="64" viewBox="0 0 64 64" fill="none" xmlns="http://www.w3.org/2000/svg">
<g clip-path="url(#clip0_18055_16213)">
<path d="M64 0H0V64H64V0Z" fill="#ADB0D9"/>
<path d="M39.2846 63.9999H10.802C10.9031 63.6991 11.0068 63.3996 11.1079 63.1001C13.1406 57.0777 13.9329 51.2473 14.0494 44.9343C21.2609 46.7698 28.8346 45.9826 36.2753 45.9058C39.0439 45.8777 38.1134 48.0447 38.1492 50.0607C38.1927 52.581 38.3233 55.1001 38.5409 57.6114C38.7252 59.7478 38.9735 61.879 39.2846 63.9999Z" fill="#ADB0D9"/>
<path d="M39.2846 63.9999H10.802C10.9031 63.6991 11.0068 63.3996 11.1079 63.1001C13.1406 57.0777 13.9329 51.2473 14.0494 44.9343C21.2609 46.7698 28.8346 45.9826 36.2753 45.9058C39.0439 45.8777 38.1134 48.0447 38.1492 50.0607C38.1927 52.581 38.3233 55.1001 38.5409 57.6114C38.7252 59.7478 38.9735 61.879 39.2846 63.9999Z" fill="#E8AE8E"/>
<path d="M19.0847 50.0889C19.1308 50.1439 19.1781 50.1989 19.2242 50.2527C19.8181 50.9516 20.4159 51.6543 21.1148 52.2495C24.7589 55.3497 30.4306 55.7055 34.9196 56.581C37.646 57.1122 40.3749 57.2031 43.0617 56.3801C46.1593 55.4303 48.9381 53.3362 50.4946 50.4946C52.4325 46.9541 52.3545 42.6969 52.2265 38.6623C52.1535 36.3724 52.0805 34.0837 52.0076 31.7938C51.9615 30.3577 51.9167 28.9202 51.9897 27.4853C52.1689 23.9487 53.093 20.3212 52.3301 16.7961C51.6965 13.87 49.2492 10.8159 46.5177 9.57558C42.2066 7.61845 37.0418 7.10262 32.3775 7.62998C29.0021 8.01142 25.5679 8.41589 22.4652 9.79446C19.6773 11.0335 16.0639 12.6143 14.5753 15.3804C12.6873 18.8876 11.6133 22.9426 11.1564 26.8825C10.7788 30.1388 10.8466 33.4476 11.3625 36.686C11.8501 39.749 12.6655 42.5356 14.6905 44.9177C16.1535 46.6418 17.6191 48.3647 19.0847 50.0889Z" fill="#F4C19F"/>
<path d="M39.3382 40.1344C38.9568 40.1344 38.6432 39.8298 38.6342 39.447C38.6253 39.0579 38.9325 38.7354 39.3216 38.7264C41.0765 38.6854 41.7766 38.1773 42.9683 37.0816C41.6064 34.039 40.8051 30.8109 40.5837 27.4778C40.5581 27.0899 40.8512 26.7546 41.239 26.729C41.6243 26.7046 41.9622 26.9965 41.9878 27.3843C42.2054 30.6662 43.0592 33.975 44.4569 36.9523C44.5875 37.2288 44.5235 37.5578 44.2995 37.7664C42.6688 39.2845 41.7088 40.0794 39.3536 40.1331C39.3497 40.1344 39.3446 40.1344 39.3382 40.1344Z" fill="#1B1464"/>
<path d="M33.6878 33.3343C34.7142 33.2669 35.4544 31.8129 35.3411 30.0867C35.2278 28.3605 34.3039 27.0157 33.2774 27.0831C32.251 27.1505 31.5108 28.6044 31.6241 30.3307C31.7374 32.0569 32.6613 33.4016 33.6878 33.3343Z" fill="#1B1464"/>
<path d="M47.9092 32.9346C48.9356 32.8672 49.6758 31.4132 49.5625 29.687C49.4492 27.9608 48.5253 26.6161 47.4989 26.6834C46.4725 26.7508 45.7322 28.2048 45.8455 29.931C45.9588 31.6572 46.8828 33.002 47.9092 32.9346Z" fill="#1B1464"/>
<path d="M51.1103 27.1167C50.9106 27.1167 50.7109 27.0322 50.5727 26.8671C48.092 23.9334 45.1762 23.991 45.148 23.9897C44.7551 24.0038 44.4351 23.6966 44.4223 23.3074C44.4095 22.9183 44.7154 22.5945 45.1045 22.5817C45.2504 22.5778 48.7333 22.5087 51.6491 25.957C51.9 26.254 51.8629 26.6982 51.5659 26.949C51.4315 27.0617 51.2703 27.1167 51.1103 27.1167Z" fill="#1B1464"/>
<path d="M26.9875 28.2765C26.9388 28.2765 26.8902 28.2713 26.8403 28.2611C26.4601 28.1817 26.2169 27.8029 26.2963 27.4227C26.327 27.2742 27.1423 23.7504 34.3385 21.7472C34.7135 21.6435 35.1014 21.8624 35.2051 22.2361C35.3087 22.6112 35.0899 22.999 34.7161 23.1027C28.4467 24.8486 27.6799 27.6928 27.6723 27.7209C27.6019 28.0537 27.3126 28.2765 26.9875 28.2765Z" fill="#1B1464"/>
<path d="M39.4842 47.3765C38.9274 47.3765 38.3489 47.2946 37.7677 47.1282C36.4148 46.7404 35.2039 45.9685 34.1364 45.2876C33.8087 45.0789 33.7127 44.6425 33.9213 44.3161C34.13 43.9884 34.5652 43.8924 34.8928 44.101C35.9271 44.7615 36.9972 45.445 38.153 45.7753C39.3524 46.1183 40.5018 46.0057 41.3069 45.4668C41.6295 45.2505 42.0672 45.3375 42.2836 45.6601C42.4999 45.9826 42.4128 46.4204 42.0903 46.6367C41.3607 47.1257 40.457 47.3765 39.4842 47.3765Z" fill="#1B1464"/>
<path d="M13.934 38.674C13.4463 36.521 13.9852 34.0865 14.0914 31.8926C14.1055 31.6148 14.1298 31.3089 14.3142 31.113C14.6879 30.715 15.2985 31.0708 15.8028 31.2372C16.7372 31.5444 17.7855 31.0503 18.4038 30.2426C19.1334 29.2903 19.3446 28.0026 19.3766 26.7726C19.3945 26.0762 19.3382 25.4823 19.0655 24.859C18.9004 24.4839 18.5382 23.4164 18.1362 23.2769C19.7836 23.8452 21.783 23.7505 23.0079 22.4474C23.374 22.0583 23.6505 21.5834 23.886 21.0932C24.5119 19.7876 25.1276 17.4695 23.9462 16.3252C25.0866 17.4734 26.7161 18.3028 28.311 17.9086C29.9379 17.5054 31.1731 15.4228 30.3897 13.851C31.2025 15.5674 32.2188 17.4644 33.9699 17.9239C35.918 18.4359 38.0543 16.4545 37.847 14.3271C38.7046 16.4826 40.0191 18.6356 42.0774 19.4548C44.1343 20.274 46.9542 19.0426 47.1654 16.7118C47.1091 17.3236 46.8684 17.9777 46.8991 18.5857C47.0143 20.8513 49.0559 22.5946 50.7673 23.6007C52.4057 24.5633 54.3295 25.6295 56.2956 25.3006C58.1555 24.9908 59.0771 23.4241 59.351 21.5463C59.5302 20.3162 59.4508 18.9249 58.6444 18.0238C57.7382 19.4497 56.0537 20.265 54.4499 20.0564C55.3727 19.5124 56.0601 18.4052 55.9052 17.2942C55.7209 15.9591 54.4294 15.4356 53.3593 15.6916C54.4243 14.3271 55.8246 13.3121 55.7452 11.2871C55.6569 9.04072 53.847 6.7508 52.0716 5.74216C51.1462 5.21608 50.062 4.91144 49.0406 5.1636C48.0191 5.41576 47.1014 6.32712 47.0207 7.442C46.7532 5.2532 45.3567 3.34728 43.6134 2.15816C41.87 0.969041 39.8066 0.418641 37.7535 0.131921C36.4402 -0.0523991 35.0438 -0.122799 33.8534 0.495441C32.663 1.11368 31.7887 2.63048 32.2419 3.95656C30.7097 1.55912 27.9539 0.280401 25.2377 0.0999209C22.5215 -0.0805591 19.8284 0.713041 17.2889 1.75752C16.3225 2.1556 15.3164 2.6356 14.7353 3.54952C13.4796 5.52584 14.8556 8.15624 16.2905 9.98664C15.4355 8.1076 13.1327 7.67496 11.1743 7.63272C9.13274 7.5892 6.68538 7.98216 5.83034 9.95848C4.90234 12.1012 6.50489 14.459 7.99865 16.1985C5.79065 15.2116 2.92857 17.1214 2.79673 19.6698C2.66489 22.2183 5.31192 24.4532 7.60952 23.73C7.05272 22.9761 5.81242 23.2705 5.31962 24.0743C4.82682 24.8769 4.89593 25.929 5.10073 26.8634C5.43225 28.3828 6.07609 29.8241 6.97209 31.058C7.66201 32.0078 9.18521 32.7694 9.74841 31.7287C8.12025 31.8874 6.64441 33.1918 6.19641 34.8686C5.74841 36.5441 6.35897 38.4833 7.66457 39.5316C8.24441 39.9975 8.99321 40.2983 9.69849 40.1166C10.4038 39.9348 10.9874 39.1489 10.8095 38.3988C10.1017 38.0826 9.25817 38.6842 9.02265 39.4625C8.78713 40.2407 9.01113 41.0945 9.34009 41.833C9.93273 43.1655 10.8748 44.3175 12.0306 45.1265C12.293 45.3095 12.5926 45.4823 12.9023 45.435C13.3747 45.3633 13.646 44.8321 13.8047 44.3534C14.437 42.4513 14.3654 40.5966 13.934 38.674Z" fill="#444DF2"/>
<path d="M14.8583 25.8495C14.0403 24.8831 12.8973 24.2393 11.337 24.2034C9.0445 24.1509 6.84931 25.7305 6.01987 27.8693C4.68483 31.3138 6.91715 35.5173 9.92643 37.294C12.5991 38.8709 15.7364 37.9519 16.5159 34.8325C16.8615 33.4489 16.7258 31.9973 16.5863 30.5778C16.4199 28.8677 15.9079 27.0911 14.8583 25.8495Z" fill="#F4C19F"/>
<path d="M9.83433 34.4153C9.47337 34.4153 9.16617 34.1388 9.13417 33.7727C9.03049 32.5798 9.4977 31.863 9.9073 31.4713C10.6535 30.7583 11.7428 30.5727 12.5326 30.5433C12.4135 30.2732 12.2395 30.0479 12.0078 29.8636C10.9556 29.0265 9.06378 29.2851 9.04458 29.2876C8.66058 29.3478 8.3009 29.0815 8.2433 28.6975C8.18442 28.3135 8.44938 27.9539 8.83338 27.8963C8.9345 27.8809 11.3383 27.534 12.8833 28.7615C13.6231 29.3503 14.0404 30.1798 14.121 31.2255C14.1377 31.4367 14.0571 31.6454 13.9035 31.7913C13.7486 31.9372 13.5374 32.0051 13.3262 31.9782C12.8577 31.918 11.5022 31.8924 10.8775 32.4915C10.6036 32.7551 10.4922 33.134 10.537 33.6511C10.5703 34.039 10.2836 34.3795 9.89705 34.414C9.87529 34.414 9.85481 34.4153 9.83433 34.4153Z" fill="#EAAA7F"/>
<path d="M37.6884 57.321C37.49 57.321 34.185 57.3031 29.9495 56.2061C25.9815 55.1783 20.434 52.9639 16.5453 48.256C16.2983 47.9565 16.3405 47.5123 16.6401 47.2653C16.9396 47.0183 17.3837 47.0605 17.6308 47.36C21.2711 51.7671 26.5114 53.856 30.2656 54.8339C34.3706 55.9027 37.65 55.913 37.6909 55.913C38.08 55.913 38.3949 56.2279 38.3949 56.6157C38.3949 57.0048 38.0813 57.3197 37.6922 57.321C37.6922 57.321 37.6909 57.321 37.6884 57.321Z" fill="#1B1464"/>
</g>
<defs>
<clipPath id="clip0_18055_16213">
<rect width="64" height="64" rx="32" fill="white"/>
</clipPath>
</defs>
</svg>
