<svg width="64" height="64" viewBox="0 0 64 64" fill="none" xmlns="http://www.w3.org/2000/svg">
<g clip-path="url(#clip0_18055_16178)">
<path d="M64 0H0V64H64V0Z" fill="#444DF2"/>
<path d="M51.1744 38.0288C51.7888 39.4368 52.7744 40.6528 53.5296 41.984C54.2848 43.3152 54.7968 44.9152 54.3744 46.3872C54.7456 46.4768 55.04 46.0544 55.1808 45.696C56 43.5072 55.1168 39.936 54.3232 37.8112C53.312 35.0848 51.136 32.7296 51.0208 29.824C50.048 32.4096 50.048 35.4816 51.1744 38.0288Z" fill="#797EF3"/>
<path d="M49.5617 9.43359C51.3025 11.5456 52.6593 14.1312 52.6081 16.8704C52.5825 17.8304 52.3905 18.7648 52.1985 19.6992C51.8017 21.6192 51.4049 23.5264 51.0081 25.4464C50.9057 25.92 50.8161 26.3936 50.5601 26.8032C49.9713 27.7632 48.6273 28.0704 47.5777 27.6864C46.5281 27.3024 45.7473 26.3424 45.3377 25.3056C44.6977 23.7184 44.7745 21.9008 45.2481 20.2624C45.7217 18.6112 46.5665 17.1008 47.4369 15.6288C48.0897 14.528 48.7809 13.4144 49.8049 12.6464L49.5617 9.43359Z" fill="#797EF3"/>
<path d="M39.5392 64.0001H25.8176C25.8048 64.0001 25.8048 64.0001 25.792 64.0001C23.4752 63.8849 21.1328 63.9617 18.8032 63.9873C18.3424 63.9873 17.8816 64.0001 17.408 64.0001C17.4976 63.6929 17.5872 63.3985 17.664 63.1041C19.1232 58.0481 19.8272 53.1457 20.0832 47.9617C20.1344 46.9633 20.16 45.9521 20.1856 44.9409C20.5312 45.0433 20.8768 45.1329 21.2352 45.2225C21.312 45.2481 21.376 45.2609 21.4528 45.2737C22.0416 45.4145 22.6304 45.5425 23.232 45.6321C28.4544 46.5281 33.8432 45.9649 39.1552 45.9009C41.2544 45.8753 40.2944 49.9841 39.4624 53.1969C39.4624 53.2097 39.4496 53.2225 39.4496 53.2353C39.0784 54.6305 38.7456 55.8593 38.6944 56.4993C38.5024 59.0209 38.6944 61.6321 39.5392 64.0001Z" fill="#E8C5AA"/>
<path d="M44.224 11.2513C43.008 10.3809 41.5488 9.83048 40 9.29288C33.1136 6.89928 24.6144 7.61608 19.2512 12.9665C17.2032 15.0017 15.7312 17.5873 14.9504 20.3777C14.1056 23.3857 14.5408 26.0481 14.7328 29.0817C15.0272 33.8945 15.7824 38.9889 18.9056 42.6625C24.192 48.8833 32.512 52.7873 40.6144 53.3121C43.136 53.4785 45.9392 53.1457 48.1152 51.7889C49.4208 50.9697 50.496 49.7153 51.008 48.2433C51.3536 47.2449 51.2 46.1057 51.3792 45.0561C51.7248 42.9825 52.4416 40.9985 52.6976 38.9121C52.9664 36.7105 52.9152 34.4833 52.7232 32.2817C52.608 30.9249 52.5696 29.5297 52.2112 28.2113C51.8528 26.8801 51.1744 25.6897 50.7648 24.3585C49.9456 21.6833 49.1776 18.7521 47.9104 16.2561C47.0144 14.5025 45.8368 12.3905 44.224 11.2513Z" fill="#F4D3B8"/>
<path d="M41.4507 30.0589C42.449 29.8261 42.9394 28.27 42.5461 26.5832C42.1527 24.8965 41.0246 23.7178 40.0263 23.9506C39.028 24.1834 38.5376 25.7395 38.9309 27.4262C39.3243 29.113 40.4524 30.2917 41.4507 30.0589Z" fill="#1B1464"/>
<path d="M48.9102 26.8007C49.6948 26.6177 50.0827 25.403 49.7767 24.0884C49.4708 22.7738 48.5851 21.8561 47.8004 22.0391C47.0158 22.2222 46.6279 23.4369 46.9351 24.7514C47.2411 26.066 48.1255 26.9838 48.9102 26.8007Z" fill="#1B1464"/>
<path d="M50.6727 31.8759C50.866 32.1076 50.9057 32.5274 50.6279 33.2378C50.3668 33.906 49.9175 34.5818 49.5822 35.0707L50.7444 35.8656C51.0746 35.3831 51.6122 34.5869 51.9386 33.7498C52.2497 32.9562 52.4801 31.84 51.753 30.9709L50.6727 31.8759ZM47.9745 30.7904C48.5031 31.0477 49.1892 31.1949 49.6282 31.3268C50.1351 31.4778 50.4679 31.6365 50.6804 31.8836L51.7479 30.9658C51.2564 30.3936 50.5844 30.1428 50.0314 29.9776C49.4106 29.792 48.9831 29.7152 48.5902 29.5245L47.9745 30.7904ZM45.0254 26.9056C45.2814 28.6541 46.4654 30.0506 47.9719 30.7891L48.5914 29.5245C47.4356 28.9575 46.5972 27.922 46.418 26.7008L45.0254 26.9056ZM49.5822 35.0707C49.362 35.392 49.4452 35.8298 49.7652 36.0487C50.0852 36.2676 50.5242 36.1856 50.7431 35.8656L49.5822 35.0707ZM51.2129 31.424L51.753 30.9722C51.7505 30.9696 51.7492 30.9671 51.7466 30.9658L51.2129 31.424ZM48.2817 30.1568L47.9719 30.7891C47.9732 30.7891 47.9732 30.7904 47.9745 30.7904L48.2817 30.1568ZM46.418 26.7008C46.3617 26.3156 46.0046 26.0506 45.6193 26.1069C45.234 26.1632 44.969 26.5203 45.0254 26.9056L46.418 26.7008Z" fill="#1B1464"/>
<path d="M42.2912 41.5347C44.3725 41.3837 46.8941 41.184 48.7232 39.6429L47.8157 38.5664C46.3936 39.7645 44.3584 39.9744 42.1901 40.1306L42.2912 41.5347ZM38.9133 41.4426C40.0678 41.6986 41.2467 41.6103 42.2912 41.5347L42.1901 40.1306C41.1098 40.2087 40.1382 40.2727 39.2192 40.0691L38.9133 41.4426ZM48.1664 42.2682C45.2838 43.4586 41.6589 42.6125 39.5917 40.288L38.5395 41.2237C41.0035 43.9936 45.2634 44.9907 48.704 43.5699L48.1664 42.2682ZM48.7219 39.6429C49.0189 39.392 49.0573 38.9479 48.8064 38.6509C48.5555 38.3539 48.1113 38.3155 47.8144 38.5664L48.7219 39.6429ZM39.0656 40.7552L39.2179 40.0679C38.9197 40.0013 38.6125 40.1357 38.4576 40.3981C38.3027 40.6618 38.336 40.9946 38.5382 41.2224L39.0656 40.7552ZM48.704 43.5687C49.0637 43.4202 49.2339 43.008 49.0854 42.6496C48.937 42.2899 48.5248 42.1197 48.1664 42.2682L48.704 43.5687Z" fill="#1B1464"/>
<path d="M36.7629 21.3761C35.5942 21.9111 34.4589 22.8391 33.9226 24.1268L35.2218 24.6683C35.5814 23.8043 36.3917 23.0939 37.3478 22.6574L36.7629 21.3761ZM41.3414 20.8142C39.7146 20.4891 38.2976 20.6785 36.7654 21.3761L37.3478 22.6574C38.6304 22.0737 39.7478 21.9316 41.0662 22.1953L41.3414 20.8142ZM33.9226 24.1255C33.7728 24.4839 33.943 24.8961 34.3014 25.0459C34.6598 25.1956 35.072 25.0254 35.2218 24.667L33.9226 24.1255ZM37.056 22.0161L36.7642 21.3748C36.7642 21.3748 36.7629 21.3748 36.7629 21.3761L37.056 22.0161ZM41.065 22.194C41.4464 22.2708 41.8176 22.0225 41.8931 21.6423C41.9699 21.2609 41.7216 20.8897 41.3414 20.8142L41.065 22.194Z" fill="#1B1464"/>
<path d="M46.1952 19.5328C46.4 20.206 46.4 20.206 46.3987 20.206C46.3987 20.206 46.3987 20.206 46.4 20.206C46.4013 20.206 46.4051 20.2048 46.409 20.2035C46.4179 20.2009 46.4346 20.1958 46.4563 20.1907C46.4998 20.1792 46.5651 20.1638 46.6496 20.1459C46.8186 20.11 47.0566 20.0704 47.3254 20.0524C47.8861 20.014 48.4736 20.0793 48.8998 20.3545L49.664 19.1718C48.8602 18.6534 47.9053 18.6022 47.232 18.6483C46.8838 18.6713 46.5792 18.7225 46.3629 18.7686C46.2541 18.7916 46.1658 18.8134 46.1018 18.8288C46.0698 18.8364 46.0454 18.8441 46.0262 18.8492C46.0173 18.8518 46.0096 18.8544 46.0045 18.8556C46.0019 18.8569 45.9994 18.8569 45.9968 18.8582C45.9955 18.8582 45.9955 18.8582 45.9942 18.8595H45.993C45.9904 18.8595 45.9904 18.8595 46.1952 19.5328ZM48.8986 20.3545C49.225 20.5657 49.6614 20.4723 49.8714 20.1446C50.0813 19.8169 49.9891 19.3817 49.6614 19.1718L48.8986 20.3545ZM45.9904 18.8595C45.6179 18.9721 45.408 19.3651 45.5206 19.7376C45.6333 20.11 46.0262 20.32 46.3987 20.2073L45.9904 18.8595Z" fill="#1B1464"/>
<path d="M39.3985 14.6176C39.6289 14.912 39.8721 15.2064 40.1153 15.488C41.8305 17.472 44.1345 17.3952 46.5921 17.6512C48.4225 17.8304 50.3809 18.3168 51.5073 19.776C52.4289 20.9792 52.5825 22.6304 52.3521 24.128C52.2625 24.7552 52.1089 25.3696 52.0449 25.9968C51.8401 28.0064 52.5825 30.0544 53.8881 31.5776C55.1937 33.1136 57.0497 34.1376 58.9953 34.6112C57.9713 33.6896 56.9345 32.7552 56.1665 31.5904C55.2961 30.2592 54.8225 28.6848 54.8353 27.0976C54.8481 25.472 55.3473 23.8848 55.6801 22.2976C56.4225 18.752 56.1921 15.04 55.1937 11.5712C54.3617 8.70403 52.9281 4.76163 50.2529 3.11043C48.0513 1.74083 45.6577 1.04963 43.0337 1.25443C40.8065 1.43363 38.5665 2.47043 37.2993 4.32643C35.1233 7.51363 37.2993 11.9168 39.3985 14.6176Z" fill="#797EF3"/>
<path d="M38.7199 8.88329C38.528 9.02409 38.3359 9.15209 38.1439 9.28009C37.8879 9.44649 37.632 9.61289 37.3759 9.76649C37.2095 9.86889 37.0431 9.97128 36.8767 10.0737C34.3039 11.7121 31.7183 13.3505 29.3759 15.3089C27.8911 16.5505 26.5087 17.8945 25.1519 19.2641C24.5375 19.8785 23.7439 20.4417 23.1935 21.0945C22.6559 21.7345 22.6687 22.4129 22.5791 23.2449C22.5663 23.3729 22.5535 23.5137 22.5279 23.6417C22.0415 27.8273 21.5551 32.0129 21.0559 36.1857C20.6975 39.2065 21.0047 42.1249 21.2095 45.0433C21.2095 45.0945 21.2223 45.1457 21.2223 45.1969C21.3247 46.8097 21.4015 48.4225 21.3119 50.0737C21.2863 50.5473 21.2479 51.0209 21.1839 51.4945C20.9791 53.2609 20.7615 55.0145 20.5567 56.7809C20.2879 59.0593 20.0063 61.3889 19.0463 63.4753C18.9695 63.6417 18.8799 63.8209 18.7903 63.9873H6.65595C6.36155 63.7313 6.09275 63.4753 5.90075 63.1681C5.14555 61.9393 5.51675 59.7121 5.97755 58.4577C6.47675 57.1393 7.34715 55.9873 7.94875 54.7201C8.55035 53.4401 8.84475 51.8785 8.16635 50.6497C7.87195 50.1121 7.42395 49.6897 7.05275 49.2033C5.40155 46.9505 5.96475 43.8145 6.77115 41.1393C7.57755 38.4641 8.56315 35.5713 7.56475 32.9601C7.09115 31.7313 6.20795 30.6945 5.65755 29.4913C4.15995 26.1889 5.43995 22.2465 7.46235 19.2385C8.29435 17.9969 9.25435 16.8193 9.79195 15.4241C10.3807 13.9009 10.4191 12.2241 10.6623 10.6113C10.9055 8.99849 11.4431 7.30889 12.7359 6.29769C13.7983 5.46569 15.1551 5.26088 16.3967 4.81288C17.6639 4.35209 18.7007 3.57129 19.8399 2.88009C22.4895 1.28009 25.5103 0.396886 28.6079 0.345686C30.8735 0.320086 33.1392 0.704085 35.2896 1.39529C36.6464 1.83049 37.4783 2.38089 38.2719 3.18729C38.6815 3.60969 39.0911 4.10889 39.5519 4.68489C39.8975 5.12008 40.2431 5.56809 40.3456 6.10569C40.5504 7.24488 39.68 8.17929 38.7199 8.88329Z" fill="#797EF3"/>
<path d="M17.3056 25.8431C16.4864 24.8703 15.3472 24.2303 13.7856 24.1919C11.4944 24.1407 9.29281 25.7151 8.47361 27.8527C7.14241 31.2959 9.36961 35.5071 12.3776 37.2735C15.0528 38.8479 18.1888 37.9263 18.9696 34.8159C19.3152 33.4335 19.1744 31.9743 19.0464 30.5663C18.8672 28.8639 18.3552 27.0975 17.3056 25.8431Z" fill="#F4D3B8"/>
<path d="M15.872 31.2832C15.9654 30.5856 15.9641 30.5856 15.9641 30.5856C15.9641 30.5856 15.9641 30.5856 15.9628 30.5856H15.9616C15.9603 30.5856 15.959 30.5856 15.9577 30.5856C15.9539 30.5856 15.95 30.5843 15.9449 30.5843C15.9347 30.583 15.9206 30.5817 15.904 30.5792C15.8694 30.5753 15.822 30.5702 15.7619 30.5664C15.6428 30.5574 15.4764 30.5472 15.2793 30.5459C14.8889 30.5433 14.3513 30.574 13.8073 30.7149C13.2684 30.8544 12.663 31.118 12.2124 31.6275C11.7427 32.1574 11.5084 32.8768 11.5865 33.7766L12.9894 33.655C12.9395 33.0828 13.0892 32.7616 13.2672 32.5606C13.4643 32.3379 13.7715 32.1779 14.1606 32.078C14.5446 31.9782 14.9504 31.9526 15.2729 31.9539C15.4316 31.9552 15.5622 31.9628 15.6531 31.9692C15.6979 31.9731 15.7324 31.9756 15.7542 31.9782C15.7657 31.9795 15.7734 31.9808 15.7772 31.9808C15.7798 31.9808 15.7811 31.9808 15.7811 31.9808C15.7785 31.9808 15.7785 31.9808 15.872 31.2832ZM11.392 28.5952C11.4969 29.2915 11.4969 29.2915 11.4969 29.2915C11.4969 29.2915 11.4995 29.2915 11.502 29.2902C11.5072 29.2889 11.5161 29.2889 11.5276 29.2864C11.552 29.2838 11.5904 29.2787 11.6416 29.2736C11.7427 29.2633 11.8912 29.2531 12.0716 29.2492C12.4352 29.2416 12.9088 29.2646 13.376 29.3747C13.8457 29.4848 14.2694 29.6742 14.5817 29.9686C14.8787 30.2502 15.1193 30.6675 15.1718 31.3344L16.576 31.2269C16.4992 30.231 16.1164 29.4796 15.5494 28.9446C14.9977 28.4236 14.3168 28.1484 13.6998 28.0025C13.079 27.8566 12.48 27.831 12.0448 27.84C11.8246 27.8438 11.6416 27.8579 11.511 27.8694C11.4457 27.8758 11.3932 27.8822 11.3561 27.886C11.3369 27.8886 11.3228 27.8899 11.3113 27.8924C11.3062 27.8937 11.3011 27.8937 11.2972 27.8937C11.296 27.8937 11.2934 27.8937 11.2934 27.895H11.2921C11.2921 27.895 11.2921 27.895 11.2908 27.895C11.287 27.8988 11.287 27.8988 11.392 28.5952ZM11.5865 33.7766C11.6198 34.1645 11.9616 34.4512 12.3494 34.4166C12.7372 34.3833 13.024 34.0416 12.9894 33.6537L11.5865 33.7766ZM15.872 31.2832L15.7785 31.9808C15.9884 32.0089 16.2009 31.9398 16.3558 31.7939C16.5107 31.648 16.59 31.4406 16.5734 31.2281L15.872 31.2832ZM11.287 27.8988C10.903 27.9577 10.638 28.3161 10.6969 28.7001C10.7558 29.0841 11.1142 29.3491 11.4982 29.2902L11.287 27.8988Z" fill="#EABC97"/>
<path d="M18.9823 17.5232C19.7631 15.3344 21.0687 13.2608 22.3999 11.392C23.6927 9.56159 25.4463 8.06399 27.4559 7.06559C29.3375 6.14399 31.5135 5.65759 33.5359 6.19519C36.8383 7.07839 38.8479 11.2 37.1967 14.3232C36.5439 15.5648 35.3023 16.3712 34.1503 17.152C30.4511 19.6864 26.8287 22.9376 25.8815 27.3152C25.2927 30.016 25.8175 32.8192 25.3823 35.5328C25.0367 37.6192 24.0639 39.3856 23.4495 41.344C22.7967 43.3664 23.1423 45.7472 23.7439 47.744C24.4223 49.984 25.5359 52.0448 26.6239 54.1184C27.4303 55.6544 28.2111 57.6 27.2127 59.0208C27.6991 57.7152 27.1615 56.2176 26.2911 55.1296C25.4207 54.0416 24.2559 53.2352 23.2319 52.288C20.8639 50.0736 19.3151 47.0144 18.8671 43.8144C18.6751 42.4832 18.5215 41.0496 18.4319 39.6928C18.3295 38.0672 19.0079 36.4544 19.1871 34.8416C19.5199 31.7952 18.0991 29.4528 17.8303 26.624C17.5487 23.6544 17.9711 20.3648 18.9823 17.5232Z" fill="#797EF3"/>
<path d="M38.8481 53.3119C38.8481 52.6079 38.8481 52.6079 38.8481 52.6079C38.8468 52.6079 38.8455 52.6079 38.8417 52.6079C38.8353 52.6079 38.8251 52.6079 38.8097 52.6079C38.7803 52.6066 38.7342 52.6053 38.6714 52.6028C38.5473 52.5976 38.3604 52.5861 38.1159 52.5618C37.6282 52.5157 36.9153 52.421 36.0346 52.2316C34.2721 51.8527 31.8401 51.0911 29.1879 49.5653L28.4865 50.7864C31.2858 52.3967 33.8599 53.2044 35.739 53.6089C36.6785 53.8111 37.4465 53.9135 37.9828 53.9647C38.2516 53.9903 38.4628 54.0031 38.6087 54.0095C38.6817 54.0133 38.7393 54.0146 38.779 54.0159C38.7994 54.0159 38.8148 54.0172 38.8263 54.0172C38.8314 54.0172 38.8366 54.0172 38.8404 54.0172C38.8417 54.0172 38.8442 54.0172 38.8442 54.0172H38.8455C38.8481 54.0159 38.8481 54.0159 38.8481 53.3119ZM29.1892 49.5653C28.8526 49.3721 28.4212 49.4873 28.2279 49.8252C28.0346 50.1631 28.1498 50.5932 28.4878 50.7864L29.1892 49.5653ZM38.8481 54.0159C39.2372 54.0159 39.5521 53.701 39.5521 53.3119C39.5521 52.9228 39.2372 52.6079 38.8481 52.6079V54.0159Z" fill="#1B1464"/>
</g>
<defs>
<clipPath id="clip0_18055_16178">
<rect width="64" height="64" rx="32" fill="white"/>
</clipPath>
</defs>
</svg>
