<svg width="64" height="64" viewBox="0 0 64 64" fill="none" xmlns="http://www.w3.org/2000/svg">
<g clip-path="url(#clip0_18055_16253)">
<path d="M64 0H0V64H64V0Z" fill="#797EF3"/>
<path d="M39.6684 63.9999H16.165C16.7346 61.9122 17.1967 60.0626 17.2825 59.6748C18.0313 56.2431 18.5049 52.7615 18.6943 49.2684C18.7929 47.4572 18.8159 45.6421 18.7622 43.8297C18.725 42.574 18.1529 40.5669 18.7225 39.3701C19.813 37.0751 24.8831 39.7695 27.1346 40.0626C31.0015 40.5669 34.9337 40.3301 38.8134 40.0946C38.2233 48.0626 38.5126 56.0831 39.6684 63.9999Z" fill="#797EF3"/>
<path d="M56.0191 35.8259C56.3814 37.4656 57.0777 39.0554 57.0905 40.736C56.7423 40.8205 56.4185 40.5427 56.1791 40.2765C53.6486 37.4566 52.8447 33.5206 52.3135 29.769C51.9859 27.4522 51.1449 23.6045 52.2431 21.4106C52.8025 20.2931 54.8275 18.9939 55.9846 20.0691C57.3529 21.3427 56.2495 25.833 56.0678 27.4675C55.7593 30.24 55.4086 33.0662 56.0191 35.8259Z" fill="#444DF2"/>
<path d="M36.0601 4.28029C34.981 3.66717 33.861 3.12573 32.7001 2.67005C27.7426 0.727005 21.9199 0.529885 17.2249 3.04509C13.0943 5.25821 10.2015 9.35293 8.64374 13.7728C7.08598 18.1926 6.74293 22.9452 6.71861 27.63C6.68789 33.326 7.10902 39.0182 7.81046 44.6694C8.25846 48.2841 9.37717 57.5769 14.2143 57.7689C20.1522 58.0032 26.1119 57.7088 31.9986 56.8947C37.0124 56.2022 45.2735 60.0192 49.2799 56.576C51.6722 54.519 50.7993 47.127 51.8258 44.1433C53.0738 40.5184 54.0044 36.7488 54.1157 32.9164C54.2629 27.8643 52.9484 22.7763 50.3717 18.4281C49.0009 16.1152 47.2895 14.0185 45.4642 12.0448C42.6956 9.05212 39.589 6.28477 36.0601 4.28029Z" fill="#444DF2"/>
<path d="M39.6684 63.9999H16.165C16.7346 61.9122 17.1967 60.0626 17.2825 59.6748C18.0313 56.2431 18.5049 52.7615 18.6943 49.2684C18.7929 47.4572 18.8159 45.6421 18.7622 43.8297C18.725 42.574 18.1529 40.5669 18.7225 39.3701C19.813 37.0751 24.8831 39.7695 27.1346 40.0626C31.0015 40.5669 34.9337 40.3301 38.8134 40.0946C38.2233 48.0626 38.5126 56.0831 39.6684 63.9999Z" fill="#E8AE8E"/>
<path d="M19.0375 47.8964C22.9491 52.0974 28.3354 54.761 34.1171 56.2535C39.6211 57.6743 46.1018 57.842 50.3156 54.0263C53.856 50.8212 54.8211 45.691 55.1847 40.9281C55.6199 35.2218 55.4816 29.4874 55.232 23.771C55.1232 21.2852 54.9914 18.7828 54.3949 16.3687C53.4925 12.7182 51.2384 7.86695 47.6698 6.24647C43.3587 4.28935 38.1939 3.77351 33.5296 4.30087C30.1543 4.68231 26.72 5.08679 23.6173 6.46535C20.8295 7.70439 17.216 9.28519 15.7274 12.0513C13.8394 15.5585 12.7655 19.6135 12.3085 23.5534C11.6147 29.5284 12.425 35.6954 14.7482 41.2506C15.8119 43.8017 17.2749 46.0046 19.0375 47.8964Z" fill="#F4C19F"/>
<path d="M15.7543 24.5697C14.9363 23.6033 13.7933 22.9595 12.233 22.9236C9.94051 22.8712 7.74531 24.4507 6.91587 26.5896C5.58083 30.034 7.81314 34.2376 10.8224 36.0142C13.4951 37.5911 16.6323 36.6721 17.4119 33.5528C17.7575 32.1691 17.6218 30.7176 17.4823 29.298C17.3159 27.588 16.8039 25.8113 15.7543 24.5697Z" fill="#F4C19F"/>
<path d="M10.7303 33.1355C10.3694 33.1355 10.0622 32.859 10.0302 32.493C9.92649 31.3 10.3937 30.5832 10.8033 30.1915C11.5495 29.4786 12.6388 29.293 13.4286 29.2635C13.3095 28.9934 13.1354 28.7682 12.9038 28.5838C11.8516 27.7467 9.95977 28.0053 9.94057 28.0078C9.55657 28.0667 9.19689 27.8018 9.13929 27.4178C9.08041 27.0338 9.34537 26.6741 9.72937 26.6165C9.83049 26.6011 12.2343 26.2542 13.7793 27.4818C14.5191 28.0706 14.9364 28.9 15.0171 29.9458C15.0337 30.157 14.953 30.3656 14.7994 30.5115C14.6446 30.6574 14.4334 30.7253 14.2222 30.6984C13.7537 30.6382 12.3982 30.6126 11.7735 31.2117C11.4996 31.4754 11.3883 31.8542 11.4331 32.3714C11.4663 32.7592 11.1796 33.0997 10.7931 33.1342C10.7713 33.1342 10.7508 33.1355 10.7303 33.1355Z" fill="#EAAA7F"/>
<path d="M27.3203 21.3326C27.3164 21.3377 27.3139 21.3428 27.31 21.348C26.8876 21.9662 25.3939 21.9048 24.7487 21.9867C24.2124 22.0545 16.6067 22.7278 16.5708 22.3707C16.8614 25.3339 17.1519 28.2984 17.4425 31.2616C17.8111 35.0273 18.1247 39.0721 16.2457 42.3566C16.9331 37.348 16.0319 32.1332 13.7036 27.6456C12.9625 26.2158 12.0678 24.8257 11.7529 23.2462C11.4828 21.8868 11.6633 20.4788 11.95 19.1233C12.6668 15.7467 14.0505 12.5134 15.9987 9.66412C19.5763 4.43404 26.0684 1.76396 32.2316 1.3262C34.9708 1.13164 37.7254 1.1598 40.4595 1.41068C44.3763 1.77036 48.8371 3.04524 51.4227 6.20556C52.9446 8.06668 53.9187 10.3041 54.8736 12.5108C55.0911 13.0139 58.1196 22.2798 57.3529 22.1121C55.7939 21.7729 54.2361 21.4337 52.6771 21.0945C51.0041 20.731 49.3299 20.3662 47.6326 20.1422C44.1651 19.6852 40.6591 19.826 37.1852 20.1307C36.2751 20.21 30.6009 21.5067 30.1478 20.1998C29.3977 18.0366 28.6463 15.8734 27.8963 13.7102C27.7734 13.3569 27.2575 12.9806 27.1385 13.3352C27.1411 14.8212 28.0447 20.2126 27.3203 21.3326Z" fill="#444DF2"/>
<path d="M40.4901 40.1345C40.1023 40.1345 39.7874 39.8209 39.7861 39.4331C39.7849 39.044 40.0985 38.7278 40.4863 38.7265C40.5324 38.7265 45.0303 38.6702 45.2863 36.1768C45.3874 35.186 45.0905 34.8417 44.5516 34.2184C43.6658 33.1944 42.4537 31.7915 42.5343 27.25C42.5407 26.866 42.8543 26.5588 43.2383 26.5588C43.2421 26.5588 43.2473 26.5588 43.2511 26.5588C43.6402 26.5652 43.95 26.8865 43.9423 27.2756C43.8706 31.2795 44.8383 32.3982 45.6165 33.298C46.2233 33.9995 46.8505 34.7265 46.6866 36.3214C46.3013 40.0692 40.7295 40.1345 40.4927 40.1358C40.4927 40.1345 40.4914 40.1345 40.4901 40.1345Z" fill="#1B1464"/>
<path d="M34.8364 33.3345C35.8629 33.2671 36.6031 31.8131 36.4898 30.0869C36.3765 28.3607 35.4525 27.016 34.4261 27.0833C33.3997 27.1507 32.6595 28.6047 32.7728 30.3309C32.8861 32.0571 33.81 33.4019 34.8364 33.3345Z" fill="#1B1464"/>
<path d="M49.0579 32.9348C50.0843 32.8675 50.8245 31.4135 50.7112 29.6873C50.5979 27.9611 49.674 26.6163 48.6476 26.6837C47.6211 26.751 46.8809 28.205 46.9942 29.9312C47.1075 31.6575 48.0314 33.0022 49.0579 32.9348Z" fill="#1B1464"/>
<path d="M52.5617 26.3692C52.4171 26.3692 52.2724 26.3256 52.147 26.2335C49.0737 23.9871 46.3102 24.686 46.1937 24.7167C45.8187 24.8165 45.4334 24.5951 45.3323 24.22C45.2312 23.8463 45.45 23.461 45.8225 23.3573C45.9646 23.3189 49.3323 22.4319 52.9777 25.0956C53.2913 25.3247 53.3604 25.765 53.1313 26.0799C52.9931 26.2693 52.7793 26.3692 52.5617 26.3692Z" fill="#1B1464"/>
<path d="M27.5736 27.1334C27.4635 27.1334 27.3509 27.1078 27.2459 27.0514C26.9016 26.8697 26.7698 26.4447 26.9515 26.1004C27.0219 25.9673 28.7461 22.8582 36.0511 22.8582C36.1151 22.8582 36.1791 22.8582 36.2443 22.8594C36.6335 22.862 36.9458 23.1794 36.9432 23.5686C36.9407 23.9551 36.6258 24.2674 36.2392 24.2674C36.2379 24.2674 36.2354 24.2674 36.2341 24.2674C29.7215 24.2201 28.2098 26.7314 28.197 26.757C28.0715 26.9964 27.8271 27.1334 27.5736 27.1334Z" fill="#1B1464"/>
<path d="M39.319 46.1067C33.7472 46.1067 30.0403 41.5947 29.8739 41.3899C29.6294 41.0878 29.6768 40.6437 29.9801 40.4005C30.2822 40.156 30.7251 40.2034 30.9696 40.5067C31.0272 40.5771 34.9376 45.299 40.4057 44.6334C40.7923 44.5874 41.143 44.8613 41.1891 45.2478C41.2364 45.6331 40.9612 45.9851 40.5747 46.0312C40.1472 46.0824 39.7273 46.1067 39.319 46.1067Z" fill="#1B1464"/>
<path d="M38.5038 57.7281C30.2977 57.7281 21.9188 51.4523 21.5668 51.1848C21.257 50.9505 21.1956 50.5089 21.4311 50.1992C21.6654 49.8894 22.107 49.8279 22.418 50.0622C22.5012 50.1249 30.7764 56.3188 38.505 56.3188C38.8942 56.3188 39.209 56.6337 39.209 57.0228C39.209 57.412 38.8929 57.7281 38.5038 57.7281Z" fill="#1B1464"/>
</g>
<defs>
<clipPath id="clip0_18055_16253">
<rect width="64" height="64" rx="32" fill="white"/>
</clipPath>
</defs>
</svg>
