<svg width="64" height="64" viewBox="0 0 64 64" fill="none" xmlns="http://www.w3.org/2000/svg">
<g clip-path="url(#clip0_18055_16278)">
<path d="M64 0.00146484H0V64H64V0.00146484Z" fill="#444DF2"/>
<path d="M37.6512 53.2098C37.207 56.7745 36.7808 60.3968 36.6387 63.9999H6.76733C7.16029 63.397 7.62621 62.7596 8.14845 62.0646C10.7123 58.6586 12.7897 54.8878 14.3091 50.9045C15.0681 48.9142 15.6889 46.8688 16.1587 44.7901C16.4864 43.3476 17.5795 40.2155 17.0893 38.7935C17.3696 39.6075 17.7651 40.3601 18.2502 41.0552C19.7849 43.2529 22.2182 44.8541 24.7475 45.8653C28.0768 47.1952 31.6685 47.7085 35.1142 48.6979C35.8349 48.9052 36.5849 49.1561 37.088 49.7129C37.9046 50.6191 37.8022 51.9989 37.6512 53.2098Z" fill="#444DF2"/>
<path d="M37.6512 53.2098C37.207 56.7745 36.7808 60.3968 36.6387 63.9999H6.76733C7.16029 63.397 7.62621 62.7596 8.14845 62.0646C10.7123 58.6586 12.7897 54.8878 14.3091 50.9045C15.0681 48.9142 15.6889 46.8688 16.1587 44.7901C16.4864 43.3476 17.5795 40.2155 17.0893 38.7935C17.3696 39.6075 17.7651 40.3601 18.2502 41.0552C19.7849 43.2529 22.2182 44.8541 24.7475 45.8653C28.0768 47.1952 31.6685 47.7085 35.1142 48.6979C35.8349 48.9052 36.5849 49.1561 37.088 49.7129C37.9046 50.6191 37.8022 51.9989 37.6512 53.2098Z" fill="#EAAA7F"/>
<path d="M13.5514 23.3008C13.5105 20.5002 13.8074 17.6638 15.1015 15.1487C17.321 10.8313 22.1902 8.15493 27.1374 7.21799C32.0858 6.28105 37.1738 6.82888 42.1569 7.41766C45.1508 7.77222 49.6154 8.31236 51.2218 11.0553C53.3454 14.6777 53.5514 19.9063 53.9738 23.96C54.3962 28.0137 54.9121 32.0571 55.3166 36.1133C55.6711 39.6704 55.5342 43.4463 54.0954 46.828C52.3764 50.8701 48.6132 54.1571 44.1511 55.2438C37.8036 56.7887 29.1354 54.7779 25.051 49.9613C22.0519 46.4248 18.6906 42.5695 16.7054 38.4198C14.6638 34.1524 13.833 29.4268 13.6001 24.7497C13.5758 24.2685 13.5578 23.7846 13.5514 23.3008Z" fill="#F7C9A4"/>
<path d="M18.1134 40.6111C17.2033 40.7135 16.3098 40.6265 15.4919 40.2015C14.491 39.6818 13.7934 38.7359 13.1521 37.8092C9.55912 32.6241 6.81352 26.3868 6.24776 20.0458C6.03144 17.6151 6.59848 15.0002 8.306 13.2556C8.7412 12.8114 9.24552 12.4261 9.59112 11.909C10.0468 11.2281 10.1825 10.3897 10.4743 9.62301C11.4356 7.09251 13.9828 5.30567 16.4378 4.16778C27.7338 -1.0673 41.659 -1.8532 52.306 4.60169C53.2097 5.14951 54.1031 6.01861 54.7278 6.86979C57.3518 10.4473 54.793 15.4379 51.5226 17.404C46.8698 20.202 42.0263 21.3591 36.5953 20.7319C32.0359 20.2045 27.6609 18.6814 23.3281 17.1672C25.0215 21.3079 24.9575 25.9836 23.3934 30.1486C22.6676 32.0827 22.8468 33.1374 22.8276 35.1533C22.8161 36.327 22.8622 39.0905 21.481 39.6383C20.4097 40.0633 19.2487 40.4844 18.1134 40.6111Z" fill="#1B1464"/>
<path d="M19.3766 28.2478C22.807 30.6272 23.8643 36.5637 23.9514 40.4523C23.9552 40.634 23.9578 40.8235 24.0384 40.9873C24.2982 41.5236 20.6362 41.7105 20.3392 41.713C18.8941 41.7271 17.4477 41.5748 16.0371 41.2574C14.5062 40.9131 14.0403 40.5099 13.1302 39.1928C12.3661 38.0869 11.7683 36.8607 11.4458 35.5538C10.9222 33.4329 11.1693 31.0778 12.3635 29.25C12.759 28.6445 13.2595 28.0967 13.8765 27.7204C15.5405 26.7079 17.7754 27.1367 19.3766 28.2478Z" fill="#F7C9A4"/>
<path d="M22.0263 40.7096C19.0887 42.7077 15.4279 41.5275 14.3898 40.6482C12.8781 39.3669 11.913 37.4559 11.4445 35.5552C10.921 33.4343 11.1681 31.0791 12.3623 29.2513C12.7578 28.6459 13.2583 28.0981 13.8753 27.7218C15.5393 26.708 17.7741 27.1381 19.3767 28.2478C21.1265 29.4612 22.3245 31.4388 22.5908 33.552" fill="#F7C9A4"/>
<path d="M40.6114 33.5241C41.5531 33.4623 42.2323 32.1277 42.1283 30.5434C42.0243 28.959 41.1765 27.7247 40.2348 27.7865C39.293 27.8483 38.6138 29.1828 38.7178 30.7672C38.8218 32.3516 39.6696 33.5859 40.6114 33.5241Z" fill="#1B1464"/>
<path d="M50.6111 30.4545C51.5529 30.3927 52.232 29.0582 52.128 27.4738C52.024 25.8894 51.1763 24.6551 50.2345 24.7169C49.2927 24.7787 48.6136 26.1133 48.7176 27.6976C48.8216 29.282 49.6694 30.5163 50.6111 30.4545Z" fill="#1B1464"/>
<path d="M46.7481 41.7271C45.317 41.7271 43.886 41.3035 42.9426 40.9515C42.6085 40.826 42.4383 40.4548 42.5637 40.1195C42.6892 39.7854 43.0617 39.6152 43.3957 39.7406C44.4812 40.1464 47.1794 40.9758 48.7781 39.9185C48.9061 39.8341 48.9458 39.788 48.9573 39.7713C48.9612 39.7099 48.9125 39.5473 48.8908 39.4757C48.4837 38.1227 47.9692 36.7775 47.4725 35.477C46.7071 33.4739 45.9161 31.4016 45.4693 29.2077C45.3977 28.8583 45.6242 28.5166 45.9737 28.4449C46.3231 28.3732 46.6649 28.5998 46.7365 28.9492C47.1628 31.0394 47.9346 33.0605 48.6809 35.0163C49.1865 36.3385 49.7087 37.7067 50.1298 39.1032C50.2041 39.3477 50.3269 39.756 50.1848 40.1809C50.0479 40.5918 49.724 40.8427 49.4924 40.9963C48.677 41.5339 47.7132 41.7271 46.7481 41.7271Z" fill="#1B1464"/>
<path d="M33.765 30.425C33.4527 30.425 33.1775 30.1972 33.1276 29.8785C32.6937 27.1099 34.4089 24.1686 37.0329 23.1843C37.367 23.0588 37.7394 23.2278 37.8649 23.5618C37.9903 23.8959 37.8213 24.2684 37.4873 24.3938C35.4162 25.1708 34.062 27.4926 34.405 29.6775C34.4601 30.0295 34.2194 30.361 33.8661 30.4161C33.8316 30.4225 33.7983 30.425 33.765 30.425Z" fill="#1B1464"/>
<path d="M52.4324 22.7261C52.1713 22.7261 51.9256 22.5661 51.8283 22.3075C51.6836 21.9222 51.3483 21.601 50.9105 21.4256C50.4728 21.2502 50.0081 21.2515 49.6369 21.4282C49.3156 21.583 48.9291 21.4461 48.7755 21.1248C48.6206 20.8035 48.7576 20.417 49.0788 20.2621C49.7752 19.928 50.6187 19.9152 51.3918 20.225C52.1649 20.5347 52.7652 21.1274 53.0379 21.8506C53.1633 22.1846 52.9956 22.5571 52.6616 22.6838C52.586 22.712 52.508 22.7261 52.4324 22.7261Z" fill="#1B1464"/>
<path d="M44.1228 48.4074C42.4882 48.4074 40.8524 47.9453 39.5071 47.0276C39.2127 46.8266 39.1359 46.4247 39.3381 46.129C39.5391 45.8346 39.941 45.7578 40.2367 45.9588C42.4127 47.4436 45.4975 47.5114 47.7375 46.1213C48.0409 45.9332 48.4389 46.0266 48.6271 46.33C48.8153 46.6333 48.7218 47.0314 48.4185 47.2196C47.141 48.0132 45.6319 48.4074 44.1228 48.4074Z" fill="#1B1464"/>
<path d="M36.8321 56.6977C36.7924 56.6977 36.7527 56.6939 36.7118 56.6862C31.7646 55.7556 26.8007 52.7336 22.7367 48.1769C22.4986 47.9107 22.523 47.5024 22.7892 47.2643C23.0554 47.0262 23.4638 47.0506 23.7018 47.3168C27.5777 51.661 32.283 54.5384 36.9511 55.4152C37.3018 55.4817 37.5322 55.8184 37.467 56.1691C37.4081 56.4814 37.1367 56.6977 36.8321 56.6977Z" fill="#1B1464"/>
<path d="M15.8567 37.3024C15.5252 37.3024 15.2423 37.049 15.2142 36.7123C15.1195 35.6167 15.547 34.9588 15.9233 34.5991C16.6081 33.945 17.6078 33.7735 18.3335 33.7466C18.2247 33.4996 18.066 33.2935 17.8548 33.1258C16.882 32.3489 15.1476 32.5921 15.131 32.5947C14.779 32.6459 14.45 32.4027 14.3975 32.0507C14.3451 31.6987 14.587 31.3697 14.939 31.316C15.0324 31.3019 17.2391 30.9832 18.6574 32.1108C19.3371 32.651 19.7198 33.4126 19.7927 34.3725C19.8081 34.5671 19.7339 34.7578 19.5931 34.8922C19.451 35.0266 19.2564 35.088 19.0631 35.0637C18.6331 35.0087 17.3889 34.9844 16.8155 35.5347C16.5633 35.7767 16.4609 36.1248 16.5031 36.5997C16.5339 36.9555 16.2715 37.2691 15.9156 37.2998C15.8951 37.3011 15.8759 37.3024 15.8567 37.3024Z" fill="#EAAA7F"/>
</g>
<defs>
<clipPath id="clip0_18055_16278">
<rect width="64" height="64" rx="32" fill="white"/>
</clipPath>
</defs>
</svg>
