<svg width="64" height="64" viewBox="0 0 64 64" fill="none" xmlns="http://www.w3.org/2000/svg">
<g clip-path="url(#clip0_18055_16236)">
<path d="M64 0H0V64H64V0Z" fill="#797EF3"/>
<path d="M49.28 29.2351C48.8832 28.2367 48.8448 27.1231 48.8064 26.0479C48.768 24.7423 48.9728 23.3599 49.6384 22.3231C50.1504 21.5167 50.9568 20.9151 52.1216 20.7359C52.8896 20.6207 54.0416 20.6719 54.5664 21.2991C55.1296 21.9647 55.3984 23.1807 55.4368 24.0255C55.488 25.1519 55.168 26.2399 54.8608 27.3023C54.5152 28.4671 54.1952 30.9247 52.7488 31.2191C51.2256 31.5519 49.8176 30.6175 49.28 29.2351Z" fill="#D9A48E"/>
<path d="M44.0703 64H15.5903C15.6927 63.5648 15.7951 63.1296 15.8975 62.6944C17.9327 53.9648 18.7263 45.5041 18.8415 36.3521C26.0479 39.0145 33.6255 37.8753 41.0623 37.7601C43.8271 37.7217 42.9055 40.8577 42.9311 43.7889C42.9695 47.4497 43.1103 51.0977 43.3279 54.7329C43.5199 57.8305 43.7631 60.928 44.0703 64Z" fill="#D9A48E"/>
<path d="M51.7503 17.5617C52.4799 21.0817 52.2751 24.7937 52.5183 28.5185C52.6207 30.1441 52.7743 31.7569 52.9919 33.3697C53.6703 38.3361 54.9631 43.6609 52.7743 48.1665C51.1615 51.4817 47.8335 53.7345 44.2623 54.6817C41.6767 55.3729 39.0143 55.3985 36.3647 55.1681C32.2559 54.8097 27.9423 53.7729 24.2303 51.7377C21.9519 50.4961 19.9039 48.8705 18.2655 46.8225C16.1151 44.1089 15.5263 41.7281 15.1423 38.4385C13.8495 27.3921 7.23193 14.8097 19.4303 7.19368C28.3775 1.60008 43.2511 2.77768 49.4335 11.9425C50.6623 13.7345 51.3535 15.6161 51.7503 17.5617Z" fill="#E5B69E"/>
<path d="M33.9525 32.5755C34.9578 32.375 35.4981 30.8355 35.1593 29.137C34.8205 27.4385 33.731 26.2241 32.7257 26.4246C31.7204 26.6251 31.1801 28.1645 31.5189 29.8631C31.8577 31.5616 32.9472 32.776 33.9525 32.5755Z" fill="#1B1464"/>
<path d="M45.6761 29.3231C46.6814 29.1226 47.2217 27.5831 46.8829 25.8846C46.5441 24.186 45.4546 22.9716 44.4493 23.1721C43.4441 23.3726 42.9038 24.9121 43.2426 26.6106C43.5813 28.3092 44.6709 29.5236 45.6761 29.3231Z" fill="#1B1464"/>
<path d="M29.3863 24.1843C29.9418 23.7504 30.8557 23.2934 31.8081 23.1053C32.7655 22.9171 33.6321 23.0221 34.2426 23.5213L35.1335 22.4307C34.0673 21.5603 32.7066 21.4938 31.5367 21.7242C30.3617 21.9558 29.2455 22.5088 28.521 23.0746L29.3863 24.1843ZM34.2426 23.5213C34.5434 23.767 34.9876 23.7222 35.2333 23.4214C35.4791 23.1206 35.4343 22.6765 35.1335 22.4307L34.2426 23.5213ZM28.521 23.0733C28.2138 23.3126 28.1601 23.7542 28.3994 24.0614C28.6388 24.3686 29.0804 24.4224 29.3876 24.183L28.521 23.0733Z" fill="#1B1464"/>
<path d="M41.0624 19.1488C41.4796 19.7158 41.4796 19.7158 41.4796 19.7158C41.4796 19.7158 41.4809 19.7145 41.4822 19.7145C41.4847 19.712 41.4899 19.7081 41.4988 19.703C41.5142 19.6915 41.5398 19.6748 41.5744 19.6518C41.6435 19.607 41.7472 19.5417 41.879 19.4688C42.1452 19.3216 42.5126 19.1475 42.9299 19.0297C43.7644 18.7942 44.6976 18.7993 45.4937 19.5558L46.464 18.5356C45.1724 17.3081 43.6492 17.3644 42.5472 17.6755C41.9968 17.8316 41.527 18.0544 41.198 18.2374C41.0316 18.3296 40.8985 18.4115 40.8051 18.4729C40.7577 18.5036 40.7206 18.5292 40.6937 18.5472C40.6809 18.5561 40.6694 18.5638 40.6617 18.5702C40.6579 18.5728 40.654 18.5753 40.6515 18.5779C40.6502 18.5792 40.6489 18.5792 40.6476 18.5804L40.6464 18.5817C40.6451 18.5817 40.6451 18.5817 41.0624 19.1488ZM45.4924 19.5571C45.774 19.8246 46.2195 19.8144 46.4883 19.5315C46.7558 19.2499 46.7456 18.8044 46.4627 18.5356L45.4924 19.5571ZM40.6451 18.5817C40.3328 18.8121 40.2662 19.2537 40.4966 19.566C40.727 19.8784 41.1686 19.9449 41.4809 19.7145L40.6451 18.5817Z" fill="#1B1464"/>
<path d="M34.5421 43.4866C36.9779 45.262 40.2023 45.879 43.1207 45.1225L42.7674 43.7593C40.2586 44.4108 37.4669 43.8758 35.3715 42.3487L34.5421 43.4866ZM43.1207 45.1225C43.497 45.0252 43.7235 44.6412 43.625 44.2649C43.5277 43.8886 43.1437 43.662 42.7674 43.7606L43.1207 45.1225ZM35.3715 42.35C35.0579 42.1209 34.6163 42.19 34.3885 42.5049C34.1607 42.8198 34.2285 43.2601 34.5434 43.4879L35.3715 42.35Z" fill="#1B1464"/>
<path d="M41.6244 27.8388C41.4938 27.2065 41.5335 26.5486 41.586 25.7768L40.1818 25.682C40.1319 26.4206 40.0692 27.2731 40.2458 28.1256L41.6244 27.8388ZM43.6685 31.4728C42.6701 30.4372 41.9098 29.234 41.6244 27.8401L40.2445 28.123C40.5991 29.851 41.5297 31.2846 42.6548 32.452L43.6685 31.4728ZM44.2458 35.9886C44.8909 35.1924 45.0727 34.3425 44.8845 33.5156C44.7066 32.7336 44.2138 32.0462 43.6711 31.4766L42.6509 32.4468C43.1194 32.9384 43.4151 33.4043 43.5111 33.828C43.5981 34.2068 43.5431 34.619 43.1514 35.1016L44.2458 35.9886ZM38.5908 36.7976C39.4036 37.1355 40.4455 37.3467 41.4541 37.284C42.4602 37.2212 43.529 36.8744 44.2458 35.9899L43.1527 35.1028C42.77 35.5752 42.1415 35.8299 41.3658 35.8785C40.5927 35.9271 39.7658 35.7608 39.1309 35.4971L38.5908 36.7976ZM41.586 25.7755C41.6129 25.3876 41.3197 25.0523 40.9306 25.0254C40.5428 24.9985 40.2074 25.2916 40.1805 25.6808L41.586 25.7755ZM40.9345 27.9809L41.6244 27.8401V27.8388L40.9345 27.9809ZM43.1617 31.9617L43.6711 31.4766C43.6698 31.4753 43.6685 31.474 43.6673 31.4728L43.1617 31.9617ZM39.1309 35.4971C38.7725 35.3473 38.3604 35.5176 38.2106 35.8772C38.0609 36.2356 38.2311 36.6478 38.5908 36.7976L39.1309 35.4971Z" fill="#1B1464"/>
<path d="M44.1472 44.6719C44.1472 44.6975 44.1344 44.7231 44.1344 44.7487C44.0576 45.2479 43.8016 45.6959 43.4816 46.0799C42.3936 47.3855 40.5888 47.9871 38.912 47.7823C37.2352 47.5775 35.6864 46.6303 34.5728 45.3503C34.0096 44.6975 33.5488 43.9423 33.4208 43.0975C33.3696 42.7519 33.3952 42.3551 33.664 42.1375C33.7664 42.0479 33.8944 41.9967 34.0224 41.9583C35.5584 41.4591 37.1968 42.0991 38.7584 42.4959C39.68 42.7263 40.6272 42.8799 41.5744 42.9823C42.8288 43.1231 44.3776 42.8543 44.1472 44.6719ZM52.5312 28.5183C52.3648 28.9535 52.2624 29.4015 52.1728 29.8495C51.8016 31.8207 51.9808 33.8815 51.3664 35.8143C50.816 37.5423 49.3696 39.1039 48 40.2431C47.6928 40.4991 47.36 40.7551 46.976 40.8959C45.5552 41.4207 44.16 40.6271 42.7648 40.6015C41.8176 40.5759 40.8704 40.7039 39.9232 40.6527C37.888 40.5375 35.9296 39.5647 33.8816 39.6543C31.9104 39.7439 30.3488 41.0495 28.5056 41.6255C27.2896 42.0095 25.9328 41.7919 24.8064 41.1903C23.8336 40.6783 22.7968 39.8591 22.272 38.8735C21.6704 37.7343 21.5424 36.2623 21.0944 35.0463C20.8256 34.3039 19.3664 31.2063 19.0208 33.4719C18.8032 34.8671 18.7392 36.2367 18.2272 37.5807C17.9328 38.3615 17.536 39.1039 17.28 39.8975C15.5264 45.4015 19.8272 49.3439 24.2176 51.7503C27.9296 53.7727 32.2432 54.8223 36.352 55.1807C38.9888 55.4111 41.664 55.3727 44.2496 54.6943C47.808 53.7471 51.1488 51.4815 52.7616 48.1791C54.9504 43.6735 53.6576 38.3487 52.9792 33.3823C52.7872 31.7567 52.6336 30.1439 52.5312 28.5183Z" fill="#1B1464"/>
<path d="M17.2288 27.264C16.2944 26.4064 15.0784 25.92 13.5168 26.0992C11.2384 26.3424 9.26724 28.1984 8.72964 30.4256C7.85924 34.0096 10.624 37.888 13.8368 39.2576C16.6912 40.4736 19.6864 39.1552 20.0448 35.9552C20.2112 34.5344 19.8785 33.1136 19.5585 31.7312C19.1745 30.0544 18.432 28.352 17.2288 27.264Z" fill="#E5B69E"/>
<path d="M16.4991 32.8321C16.4991 32.1281 16.4991 32.1281 16.4991 32.1281C16.4991 32.1281 16.4991 32.1281 16.4978 32.1281H16.4965C16.4953 32.1281 16.494 32.1281 16.4927 32.1281C16.4889 32.1281 16.485 32.1281 16.4799 32.1281C16.4697 32.1281 16.4556 32.1281 16.439 32.1294C16.4044 32.1306 16.3557 32.1319 16.2969 32.1345C16.1778 32.1409 16.0114 32.1537 15.8156 32.178C15.4278 32.2279 14.8978 32.3278 14.3769 32.539C13.8597 32.7476 13.2953 33.0881 12.9138 33.6526C12.517 34.2401 12.3775 34.9825 12.5733 35.8644L13.9481 35.5585C13.8239 35.0004 13.9301 34.6638 14.0799 34.4398C14.2463 34.194 14.5305 33.9943 14.9042 33.8433C15.2729 33.6935 15.6722 33.6142 15.9922 33.5745C16.1497 33.554 16.2815 33.545 16.3711 33.5399C16.4159 33.5374 16.4505 33.5361 16.4735 33.5361C16.485 33.5361 16.4927 33.5361 16.4965 33.5361C16.4991 33.5361 16.5004 33.5361 16.5004 33.5361C16.4991 33.5361 16.4991 33.5361 16.4991 32.8321ZM11.7119 30.7585C11.9077 31.4343 11.9078 31.4343 11.9078 31.4343C11.9078 31.4343 11.9103 31.4343 11.9129 31.433C11.918 31.4318 11.9257 31.4292 11.9385 31.4266C11.9628 31.4202 11.9999 31.4113 12.0498 31.3998C12.1497 31.3767 12.2956 31.3473 12.4735 31.3191C12.8345 31.2641 13.3055 31.2244 13.7842 31.2718C14.2655 31.3191 14.7084 31.451 15.0553 31.7018C15.3855 31.9399 15.6761 32.3214 15.813 32.9754L17.1916 32.6887C16.9881 31.7108 16.5119 31.017 15.8809 30.5601C15.2665 30.1159 14.5561 29.9329 13.9238 29.8702C13.2902 29.8074 12.6924 29.8612 12.261 29.9265C12.0434 29.9598 11.863 29.9969 11.735 30.0263C11.671 30.0417 11.6197 30.0545 11.5826 30.0634C11.5647 30.0686 11.5494 30.0724 11.5391 30.075C11.534 30.0762 11.5289 30.0775 11.5263 30.0788C11.525 30.0788 11.5238 30.0801 11.5225 30.0801H11.5212C11.5212 30.0801 11.5212 30.0801 11.5199 30.0801C11.5161 30.0826 11.5161 30.0826 11.7119 30.7585ZM12.5733 35.8644C12.6578 36.2446 13.0342 36.4826 13.413 36.3994C13.7919 36.3162 14.0313 35.9386 13.9481 35.5598L12.5733 35.8644ZM16.4991 32.8321V33.5361C16.7116 33.5361 16.9113 33.4401 17.0457 33.2762C17.1788 33.1124 17.2326 32.8961 17.189 32.6887L16.4991 32.8321ZM11.5161 30.0826C11.1423 30.1914 10.9273 30.5818 11.0361 30.9543C11.1449 31.3281 11.5353 31.5431 11.9078 31.4343L11.5161 30.0826Z" fill="#DB9F7F"/>
<path d="M15.6161 14.8352C14.7969 14.8352 14.7969 16.1152 15.6161 16.1152C16.4481 16.1152 16.4481 14.8352 15.6161 14.8352Z" fill="#DB9F7F"/>
<path d="M16.704 12.5825C15.8848 12.5825 15.8848 13.8625 16.704 13.8625C17.5232 13.8625 17.5232 12.5825 16.704 12.5825Z" fill="#DB9F7F"/>
<path d="M18.0353 14.7456C17.2161 14.7456 17.2161 16.0256 18.0353 16.0256C18.8545 16.0256 18.8545 14.7456 18.0353 14.7456Z" fill="#DB9F7F"/>
</g>
<defs>
<clipPath id="clip0_18055_16236">
<rect width="64" height="64" rx="32" fill="white"/>
</clipPath>
</defs>
</svg>
