<svg width="72" height="73" viewBox="0 0 72 73" fill="none" xmlns="http://www.w3.org/2000/svg">
<g clip-path="url(#clip0_15574_16417)">
<path d="M68 4.50146H4V68.5H68V4.50146Z" fill="#444DF2"/>
<path d="M41.6514 57.7099C41.2073 61.2746 40.781 64.8969 40.6389 68.5H10.7676C11.1605 67.8972 11.6265 67.2597 12.1487 66.5647C14.7125 63.1587 16.79 59.3879 18.3093 55.4047C19.0684 53.4143 19.6892 51.3689 20.1589 49.2902C20.4866 47.8477 21.5797 44.7156 21.0895 43.2936C21.3698 44.1076 21.7653 44.8603 22.2505 45.5553C23.7852 47.753 26.2185 49.3542 28.7477 50.3654C32.077 51.6953 35.6687 52.2086 39.1145 53.198C39.8351 53.4053 40.5852 53.6562 41.0882 54.213C41.9049 55.1192 41.8025 56.499 41.6514 57.7099Z" fill="#444DF2"/>
<path d="M41.6514 57.7099C41.2073 61.2746 40.781 64.8969 40.6389 68.5H10.7676C11.1605 67.8972 11.6265 67.2597 12.1487 66.5647C14.7125 63.1587 16.79 59.3879 18.3093 55.4047C19.0684 53.4143 19.6892 51.3689 20.1589 49.2902C20.4866 47.8477 21.5797 44.7156 21.0895 43.2936C21.3698 44.1076 21.7653 44.8603 22.2505 45.5553C23.7852 47.753 26.2185 49.3542 28.7477 50.3654C32.077 51.6953 35.6687 52.2086 39.1145 53.198C39.8351 53.4053 40.5852 53.6562 41.0882 54.213C41.9049 55.1192 41.8025 56.499 41.6514 57.7099Z" fill="#EAAA7F"/>
<path d="M17.5514 27.8008C17.5105 25.0002 17.8074 22.1638 19.1015 19.6487C21.321 15.3313 26.1902 12.6549 31.1374 11.718C36.0858 10.7811 41.1738 11.3289 46.1569 11.9177C49.1508 12.2722 53.6154 12.8124 55.2218 15.5553C57.3454 19.1777 57.5514 24.4063 57.9738 28.46C58.3962 32.5137 58.9121 36.5571 59.3166 40.6133C59.6711 44.1704 59.5342 47.9463 58.0954 51.328C56.3764 55.3701 52.6132 58.6571 48.1511 59.7438C41.8036 61.2887 33.1354 59.2779 29.051 54.4613C26.0519 50.9248 22.6906 47.0695 20.7054 42.9198C18.6638 38.6524 17.833 33.9268 17.6001 29.2497C17.5758 28.7685 17.5578 28.2846 17.5514 27.8008Z" fill="#F7C9A4"/>
<path d="M22.1131 45.1111C21.203 45.2135 20.3096 45.1265 19.4917 44.7015C18.4907 44.1818 17.7931 43.2359 17.1518 42.3092C13.5589 37.1241 10.8133 30.8868 10.2475 24.5458C10.0312 22.1151 10.5982 19.5002 12.3058 17.7556C12.741 17.3114 13.2453 16.9261 13.5909 16.409C14.0466 15.7281 14.1822 14.8897 14.4741 14.123C15.4354 11.5925 17.9826 9.80567 20.4376 8.66778C31.7336 3.4327 45.6587 2.6468 56.3058 9.10169C57.2094 9.64951 58.1029 10.5186 58.7275 11.3698C61.3515 14.9473 58.7928 19.9379 55.5224 21.904C50.8696 24.702 46.0261 25.8591 40.595 25.2319C36.0357 24.7045 31.6606 23.1814 27.3278 21.6672C29.0213 25.8079 28.9573 30.4836 27.3931 34.6486C26.6674 36.5827 26.8466 37.6374 26.8274 39.6533C26.8158 40.827 26.8619 43.5905 25.4808 44.1383C24.4094 44.5633 23.2485 44.9844 22.1131 45.1111Z" fill="#1B1464"/>
<path d="M23.3766 32.7479C26.807 35.1273 27.8643 41.0638 27.9514 44.9524C27.9552 45.1341 27.9578 45.3236 28.0384 45.4874C28.2982 46.0237 24.6362 46.2106 24.3392 46.2132C22.8941 46.2272 21.4477 46.0749 20.0371 45.7575C18.5062 45.4132 18.0403 45.01 17.1302 43.6929C16.3661 42.587 15.7683 41.3608 15.4458 40.0539C14.9222 37.933 15.1693 35.5779 16.3635 33.7501C16.759 33.1447 17.2595 32.5968 17.8765 32.2205C19.5405 31.2081 21.7754 31.6369 23.3766 32.7479Z" fill="#F7C9A4"/>
<path d="M26.0261 45.2096C23.0885 47.2077 19.4277 46.0275 18.3896 45.1482C16.8779 43.8669 15.9128 41.9559 15.4443 40.0552C14.9208 37.9343 15.1678 35.5791 16.3621 33.7513C16.7576 33.1459 17.2581 32.5981 17.875 32.2218C19.539 31.208 21.7739 31.6381 23.3765 32.7478C25.1262 33.9612 26.3243 35.9388 26.5905 38.052" fill="#F7C9A4"/>
<path d="M44.6116 38.0242C45.5534 37.9624 46.2325 36.6279 46.1285 35.0435C46.0245 33.4591 45.1768 32.2248 44.235 32.2866C43.2932 32.3484 42.6141 33.683 42.7181 35.2673C42.8221 36.8517 43.6698 38.086 44.6116 38.0242Z" fill="#1B1464"/>
<path d="M54.6111 34.9546C55.5529 34.8928 56.232 33.5583 56.128 31.9739C56.024 30.3895 55.1763 29.1552 54.2345 29.2171C53.2927 29.2789 52.6136 30.6134 52.7176 32.1978C52.8216 33.7821 53.6694 35.0164 54.6111 34.9546Z" fill="#1B1464"/>
<path d="M50.7481 46.2271C49.317 46.2271 47.886 45.8035 46.9426 45.4515C46.6085 45.326 46.4383 44.9548 46.5637 44.6195C46.6892 44.2854 47.0617 44.1152 47.3957 44.2406C48.4812 44.6464 51.1794 45.4758 52.7781 44.4185C52.9061 44.3341 52.9458 44.288 52.9573 44.2713C52.9612 44.2099 52.9125 44.0473 52.8908 43.9757C52.4837 42.6227 51.9692 41.2775 51.4725 39.977C50.7071 37.9739 49.9161 35.9016 49.4693 33.7077C49.3977 33.3583 49.6242 33.0166 49.9737 32.9449C50.3231 32.8732 50.6649 33.0998 50.7365 33.4492C51.1628 35.5394 51.9346 37.5605 52.6809 39.5163C53.1865 40.8385 53.7087 42.2067 54.1298 43.6032C54.2041 43.8477 54.3269 44.256 54.1848 44.6809C54.0479 45.0918 53.724 45.3427 53.4924 45.4963C52.677 46.0339 51.7132 46.2271 50.7481 46.2271Z" fill="#1B1464"/>
<path d="M37.765 34.925C37.4527 34.925 37.1775 34.6972 37.1276 34.3785C36.6937 31.6099 38.4089 28.6686 41.0329 27.6843C41.367 27.5588 41.7394 27.7278 41.8649 28.0618C41.9903 28.3959 41.8213 28.7684 41.4873 28.8938C39.4162 29.6708 38.062 31.9926 38.405 34.1775C38.4601 34.5295 38.2194 34.861 37.8661 34.9161C37.8316 34.9225 37.7983 34.925 37.765 34.925Z" fill="#1B1464"/>
<path d="M56.4327 27.2261C56.1716 27.2261 55.9258 27.0661 55.8285 26.8075C55.6839 26.4222 55.3485 26.101 54.9108 25.9256C54.473 25.7502 54.0084 25.7515 53.6372 25.9282C53.3159 26.083 52.9293 25.9461 52.7757 25.6248C52.6209 25.3035 52.7578 24.917 53.0791 24.7621C53.7754 24.428 54.6189 24.4152 55.3921 24.725C56.1652 25.0347 56.7655 25.6274 57.0381 26.3506C57.1636 26.6846 56.9959 27.0571 56.6618 27.1838C56.5863 27.212 56.5082 27.2261 56.4327 27.2261Z" fill="#1B1464"/>
<path d="M48.1228 52.9074C46.4882 52.9074 44.8524 52.4453 43.5071 51.5276C43.2127 51.3266 43.1359 50.9247 43.3381 50.629C43.5391 50.3346 43.941 50.2578 44.2367 50.4588C46.4127 51.9436 49.4975 52.0114 51.7375 50.6213C52.0409 50.4332 52.4389 50.5266 52.6271 50.83C52.8153 51.1333 52.7218 51.5314 52.4185 51.7196C51.141 52.5132 49.6319 52.9074 48.1228 52.9074Z" fill="#1B1464"/>
<path d="M40.8321 61.1978C40.7924 61.1978 40.7527 61.194 40.7118 61.1863C35.7646 60.2558 30.8007 57.2337 26.7367 52.6771C26.4986 52.4108 26.523 52.0025 26.7892 51.7644C27.0554 51.5264 27.4638 51.5507 27.7018 51.8169C31.5777 56.1611 36.283 59.0385 40.9511 59.9153C41.3018 59.9818 41.5322 60.3185 41.467 60.6692C41.4081 60.9815 41.1367 61.1978 40.8321 61.1978Z" fill="#1B1464"/>
<path d="M19.8565 41.8024C19.525 41.8024 19.2421 41.549 19.2139 41.2123C19.1192 40.1167 19.5467 39.4588 19.923 39.0991C20.6078 38.445 21.6075 38.2735 22.3333 38.2466C22.2245 37.9996 22.0658 37.7935 21.8546 37.6258C20.8818 36.8489 19.1474 37.0921 19.1307 37.0947C18.7787 37.1459 18.4498 36.9027 18.3973 36.5507C18.3448 36.1987 18.5867 35.8697 18.9387 35.816C19.0322 35.8019 21.2389 35.4832 22.6571 36.6108C23.3368 37.151 23.7195 37.9126 23.7925 38.8725C23.8078 39.0671 23.7336 39.2578 23.5928 39.3922C23.4507 39.5266 23.2562 39.588 23.0629 39.5637C22.6328 39.5087 21.3886 39.4844 20.8152 40.0347C20.563 40.2767 20.4606 40.6248 20.5029 41.0997C20.5336 41.4555 20.2712 41.7691 19.9154 41.7998C19.8949 41.8011 19.8757 41.8024 19.8565 41.8024Z" fill="#EAAA7F"/>
</g>
<defs>
<clipPath id="clip0_15574_16417">
<rect x="4" y="4.5" width="64" height="64" rx="32" fill="white"/>
</clipPath>
</defs>
</svg>
