<svg width="40" height="40" viewBox="0 0 40 40" fill="none" xmlns="http://www.w3.org/2000/svg">
<rect width="40" height="40" rx="20" fill="#ECEEFE"/>
<mask id="mask0_453_12980" style="mask-type:alpha" maskUnits="userSpaceOnUse" x="8" y="8" width="24" height="24">
<rect x="8" y="8" width="24" height="24" fill="#D9D9D9"/>
</mask>
<g mask="url(#mask0_453_12980)">
<path d="M20.0502 21.8499L15.2752 26.6249C15.0085 26.8916 14.6919 27.0249 14.3252 27.0249C13.9585 27.0249 13.6419 26.8916 13.3752 26.6249C13.1085 26.3582 12.9752 26.0459 12.9752 25.6879C12.9752 25.3292 13.1085 25.0166 13.3752 24.7499L18.1752 19.9499L13.3502 15.1499C13.0835 14.8832 12.9502 14.5749 12.9502 14.2249C12.9502 13.8749 13.0835 13.5666 13.3502 13.2999C13.6169 13.0332 13.9292 12.8999 14.2872 12.8999C14.6459 12.8999 14.9585 13.0332 15.2252 13.2999L20.0002 18.0499L24.7252 13.3249C24.9919 13.0582 25.3085 12.9249 25.6752 12.9249C26.0419 12.9249 26.3585 13.0582 26.6252 13.3249C26.8919 13.5916 27.0252 13.9122 27.0252 14.2869C27.0252 14.6622 26.8919 14.9832 26.6252 15.2499L21.8752 20.0249L26.6502 24.7999C26.9002 25.0499 27.0252 25.3582 27.0252 25.7249C27.0252 26.0916 26.9002 26.3999 26.6502 26.6499C26.4002 26.8999 26.0962 27.0249 25.7382 27.0249C25.3795 27.0249 25.0752 26.8999 24.8252 26.6499L20.0502 21.8499Z" fill="#535AF1"/>
</g>
</svg>
