<svg width="40" height="40" viewBox="0 0 40 40" fill="none" xmlns="http://www.w3.org/2000/svg">
<rect width="40" height="40" rx="20" fill="#ECEEFE"/>
<mask id="mask0_516_6825" style="mask-type:alpha" maskUnits="userSpaceOnUse" x="8" y="8" width="24" height="24">
<rect x="8" y="8" width="24" height="24" fill="#D9D9D9"/>
</mask>
<g mask="url(#mask0_516_6825)">
<path d="M20 30.8002C18.5333 30.8002 17.1416 30.5129 15.825 29.9382C14.5083 29.3629 13.3626 28.5875 12.388 27.6122C11.4126 26.6375 10.6373 25.4919 10.062 24.1752C9.48728 22.8585 9.19995 21.4669 9.19995 20.0002C9.19995 18.5169 9.48728 17.1209 10.062 15.8122C10.6373 14.5042 11.4126 13.3625 12.388 12.3872C13.3626 11.4125 14.5083 10.6375 15.825 10.0622C17.1416 9.48753 18.5333 9.2002 20 9.2002C21.4833 9.2002 22.8793 9.48753 24.188 10.0622C25.496 10.6375 26.6376 11.4125 27.613 12.3872C28.5876 13.3625 29.3626 14.5042 29.938 15.8122C30.5126 17.1209 30.7999 18.5169 30.7999 20.0002V21.8252C30.7999 23.0085 30.4126 23.9502 29.638 24.6502C28.8626 25.3502 27.9583 25.7002 26.9249 25.7002C26.3416 25.7002 25.775 25.5875 25.225 25.3622C24.675 25.1375 24.2 24.8335 23.8 24.4502C23.3 24.8502 22.7043 25.1585 22.013 25.3752C21.321 25.5919 20.65 25.7002 20 25.7002C18.4166 25.7002 17.071 25.1462 15.963 24.0382C14.8543 22.9295 14.3 21.5835 14.3 20.0002C14.3 18.4169 14.8543 17.0712 15.963 15.9632C17.071 14.8545 18.4166 14.3002 20 14.3002C21.5833 14.3002 22.9293 14.8545 24.038 15.9632C25.146 17.0712 25.7 18.4169 25.7 20.0002V21.8252C25.7 22.1585 25.8206 22.4462 26.062 22.6882C26.304 22.9295 26.5916 23.0502 26.9249 23.0502C27.2583 23.0502 27.5459 22.9295 27.788 22.6882C28.0293 22.4462 28.15 22.1585 28.15 21.8252V20.0002C28.15 17.7669 27.35 15.8502 25.75 14.2502C24.15 12.6502 22.2333 11.8502 20 11.8502C17.7666 11.8502 15.85 12.6502 14.25 14.2502C12.65 15.8502 11.85 17.7669 11.85 20.0002C11.85 22.2335 12.65 24.1502 14.25 25.7502C15.85 27.3502 17.7666 28.1502 20 28.1502H23.775C24.1416 28.1502 24.454 28.2795 24.712 28.5382C24.9706 28.7962 25.1 29.1085 25.1 29.4752C25.1 29.8419 24.9706 30.1545 24.712 30.4132C24.454 30.6712 24.1416 30.8002 23.775 30.8002H20ZM20 23.0502C20.85 23.0502 21.571 22.7542 22.163 22.1622C22.7543 21.5709 23.05 20.8502 23.05 20.0002C23.05 19.1502 22.7543 18.4292 22.163 17.8372C21.571 17.2459 20.85 16.9502 20 16.9502C19.15 16.9502 18.4293 17.2459 17.838 17.8372C17.246 18.4292 16.95 19.1502 16.95 20.0002C16.95 20.8502 17.246 21.5709 17.838 22.1622C18.4293 22.7542 19.15 23.0502 20 23.0502Z" fill="#535AF1"/>
</g>
</svg>
