<svg width="40" height="40" viewBox="0 0 40 40" fill="none" xmlns="http://www.w3.org/2000/svg">
<mask id="mask0_516_6787" style="mask-type:alpha" maskUnits="userSpaceOnUse" x="8" y="8" width="24" height="24">
<rect x="8" y="8" width="24" height="24" fill="#D9D9D9"/>
</mask>
<g mask="url(#mask0_516_6787)">
<path d="M20 30C18.6333 30 17.3417 29.7373 16.125 29.212C14.9083 28.6873 13.846 27.9707 12.938 27.062C12.0293 26.154 11.3127 25.0917 10.788 23.875C10.2627 22.6583 10 21.3667 10 20C10 18.6167 10.2627 17.321 10.788 16.113C11.3127 14.9043 12.0293 13.846 12.938 12.938C13.846 12.0293 14.9083 11.3123 16.125 10.787C17.3417 10.2623 18.6333 10 20 10C21.3833 10 22.679 10.2623 23.887 10.787C25.0957 11.3123 26.154 12.0293 27.062 12.938C27.9707 13.846 28.6873 14.9043 29.212 16.113C29.7373 17.321 30 18.6167 30 20V21.45C30 22.4333 29.6627 23.2707 28.988 23.962C28.3127 24.654 27.4833 25 26.5 25C25.9 25 25.3417 24.8667 24.825 24.6C24.3083 24.3333 23.8833 23.9833 23.55 23.55C23.1 24 22.571 24.3543 21.963 24.613C21.3543 24.871 20.7 25 20 25C18.6167 25 17.4377 24.5123 16.463 23.537C15.4877 22.5623 15 21.3833 15 20C15 18.6167 15.4877 17.4373 16.463 16.462C17.4377 15.4873 18.6167 15 20 15C21.3833 15 22.5627 15.4873 23.538 16.462C24.5127 17.4373 25 18.6167 25 20V21.45C25 21.9333 25.15 22.3123 25.45 22.587C25.75 22.8623 26.1 23 26.5 23C26.9 23 27.25 22.8623 27.55 22.587C27.85 22.3123 28 21.9333 28 21.45V20C28 17.8167 27.2123 15.9373 25.637 14.362C24.0623 12.7873 22.1833 12 20 12C17.8167 12 15.9373 12.7873 14.362 14.362C12.7873 15.9373 12 17.8167 12 20C12 22.1833 12.7873 24.0623 14.362 25.637C15.9373 27.2123 17.8167 28 20 28H24C24.2833 28 24.5207 28.096 24.712 28.288C24.904 28.4793 25 28.7167 25 29C25 29.2833 24.904 29.5207 24.712 29.712C24.5207 29.904 24.2833 30 24 30H20ZM20 23C20.8333 23 21.5417 22.7083 22.125 22.125C22.7083 21.5417 23 20.8333 23 20C23 19.1667 22.7083 18.4583 22.125 17.875C21.5417 17.2917 20.8333 17 20 17C19.1667 17 18.4583 17.2917 17.875 17.875C17.2917 18.4583 17 19.1667 17 20C17 20.8333 17.2917 21.5417 17.875 22.125C18.4583 22.7083 19.1667 23 20 23Z" fill="black"/>
</g>
</svg>
