<svg width="157" height="24" viewBox="0 0 157 24" fill="none" xmlns="http://www.w3.org/2000/svg">
<g id="Logo name" clip-path="url(#clip0_2119_22177)">
<path id="Vector" d="M8.69458 0.267334H2.25893C1.53054 0.267334 0.968114 0.460957 0.580868 0.848202C0.193623 1.23545 0 1.79788 0 2.52627V21.4091C0 22.1375 0.193623 22.6999 0.580868 23.0872C0.968114 23.4744 1.53054 23.668 2.25893 23.668H8.69458C10.6677 23.668 12.4103 23.4099 13.9224 22.8843C15.4345 22.368 16.7253 21.6027 17.7764 20.6069C18.8275 19.6112 19.6204 18.3849 20.1644 16.9373C20.7084 15.4898 20.9758 13.8209 20.9758 11.94C20.9758 8.17821 19.9063 5.2923 17.7764 3.2731C15.6373 1.27233 12.6131 0.267334 8.69458 0.267334ZM16.0338 15.5543C15.7019 16.587 15.1948 17.4352 14.5217 18.1083C13.8486 18.7814 13.0096 19.2885 11.9954 19.6388C10.9904 19.98 9.801 20.1552 8.4272 20.1552H4.24126V3.7802H8.4272C11.1287 3.7802 13.1479 4.45327 14.5033 5.80863C15.8494 7.15477 16.5317 9.20164 16.5317 11.9492C16.5317 13.323 16.3657 14.5217 16.0338 15.5543Z" fill="black"/>
<path id="Vector_2" d="M35.2026 1.78871C34.9168 1.1433 34.5664 0.69151 34.1607 0.414906C33.755 0.138302 33.294 0 32.7869 0C32.2798 0 31.7819 0.138302 31.3762 0.414906C30.9706 0.69151 30.6202 1.15252 30.3344 1.78871L21.5752 21.2063C21.354 21.7134 21.2802 22.1744 21.3447 22.5801C21.4093 22.9858 21.6029 23.3177 21.9256 23.5574C22.2483 23.7972 22.6724 23.9262 23.2072 23.9262C23.7789 23.9262 24.2214 23.7787 24.5349 23.4929C24.8484 23.2071 25.1434 22.7368 25.4293 22.1007L27.0612 18.2466H38.4757L40.1354 22.1007C40.4027 22.7184 40.707 23.1794 41.0482 23.4745C41.3893 23.7695 41.8687 23.9262 42.4957 23.9262C43.0028 23.9262 43.4177 23.8064 43.722 23.5759C44.0355 23.3454 44.2199 23.0134 44.2844 22.5985C44.349 22.1744 44.266 21.7134 44.017 21.2063L35.2026 1.78871ZM32.7132 4.87745H32.7777L37.0097 14.8721H28.5088L32.7132 4.87745Z" fill="black"/>
<path id="Vector_3" d="M61.0463 11.5895C62.0237 11.2207 62.8258 10.6675 63.4528 9.92063C64.2734 8.9433 64.6791 7.7539 64.6791 6.334C64.6791 5.07084 64.3748 3.99209 63.7663 3.07929C63.1578 2.17572 62.2818 1.47499 61.1293 0.986325C59.9768 0.497658 58.5846 0.257935 56.9434 0.257935H48.9772C48.2488 0.257935 47.6864 0.451557 47.2991 0.838803C46.9119 1.22605 46.7183 1.78848 46.7183 2.51687V21.3997C46.7183 22.1281 46.9119 22.6905 47.2991 23.0778C47.6864 23.465 48.2488 23.6586 48.9772 23.6586H57.3122C59.8108 23.6586 61.7655 23.087 63.167 21.9529C64.5684 20.8096 65.2784 19.2053 65.2784 17.1216C65.2784 15.5265 64.8266 14.2357 63.9138 13.2399C63.1946 12.4469 62.2265 11.903 61.0463 11.5895ZM50.8028 3.48498H56.215C57.6718 3.48498 58.769 3.7708 59.4881 4.33323C60.2073 4.89566 60.5669 5.73469 60.5669 6.84111C60.5669 7.94752 60.2073 8.78656 59.4881 9.34898C58.769 9.91141 57.681 10.1972 56.215 10.1972H50.8028V3.48498ZM60.0967 19.5649C59.3867 20.155 58.2803 20.4408 56.7774 20.4408H50.8028V13.4058H56.7774C58.2803 13.4058 59.3867 13.6917 60.0967 14.2725C60.8066 14.8442 61.157 15.7293 61.157 16.9279C61.157 18.1265 60.8066 18.984 60.0967 19.5649Z" fill="black"/>
<path id="Vector_4" d="M81.9761 7.1731C81.3123 7.1731 80.8052 7.34828 80.4456 7.68942C80.0952 8.03057 79.9108 8.55612 79.9108 9.26607V16.5684C79.9108 17.8316 79.5604 18.8458 78.8505 19.6018C78.1405 20.3671 77.237 20.7451 76.1306 20.7451C75.1163 20.7451 74.3695 20.4685 73.9085 19.9153C73.4475 19.3621 73.2078 18.5139 73.2078 17.3613V9.26607C73.2078 8.55612 73.0234 8.03057 72.6638 7.68942C72.295 7.34828 71.7879 7.1731 71.124 7.1731C70.4602 7.1731 69.9531 7.34828 69.5935 7.68942C69.2431 8.03057 69.0587 8.55612 69.0587 9.26607V17.2968C69.0587 18.7812 69.2708 20.0167 69.7041 21.0125C70.1375 22.0083 70.7921 22.7551 71.6772 23.253C72.5624 23.7509 73.678 23.9998 75.0334 23.9998C76.3887 23.9998 77.4306 23.6771 78.371 23.0409C79.0441 22.5799 79.5881 21.9806 80.0122 21.243V21.8147C80.0122 22.497 80.1874 23.0225 80.547 23.3913C80.8974 23.7601 81.3953 23.9353 82.0407 23.9353C83.3868 23.9353 84.0691 23.2253 84.0691 21.8147V9.26607C84.0691 8.55612 83.8847 8.03057 83.5251 7.68942C83.1563 7.34828 82.6492 7.1731 81.9853 7.1731H81.9761Z" fill="black"/>
<path id="Vector_5" d="M101.486 8.13215C100.426 7.44987 99.1718 7.0995 97.7334 7.0995C96.3873 7.0995 95.1979 7.43143 94.1837 8.09527C93.4553 8.5655 92.9113 9.14637 92.5241 9.83788V2.09297C92.5241 1.41068 92.3397 0.885132 91.9801 0.534768C91.6205 0.184403 91.1042 0 90.4403 0C89.7765 0 89.2694 0.175182 88.9098 0.534768C88.5594 0.885132 88.375 1.41068 88.375 2.09297V21.8056C88.375 22.4879 88.5502 23.0134 88.9098 23.3823C89.2601 23.7511 89.7765 23.9262 90.4403 23.9262C91.1042 23.9262 91.5836 23.7418 91.934 23.3823C92.2843 23.0134 92.4687 22.4879 92.4687 21.8056V21.1141C92.8468 21.8517 93.4 22.4695 94.1468 22.9673C95.1795 23.6496 96.3781 24 97.7519 24C99.1257 24 100.416 23.6589 101.486 22.9673C102.556 22.2851 103.395 21.2985 103.994 20.0261C104.593 18.7537 104.888 17.2509 104.888 15.5267C104.888 13.8025 104.593 12.2812 103.994 11.0273C103.395 9.77334 102.565 8.80523 101.504 8.12294L101.486 8.13215ZM100.177 18.4679C99.8356 19.2516 99.3562 19.8417 98.7292 20.2474C98.1022 20.6531 97.3923 20.8467 96.5717 20.8467C95.3362 20.8467 94.3404 20.3949 93.5844 19.5006C92.8283 18.6062 92.4595 17.2785 92.4595 15.5359C92.4595 14.365 92.6347 13.3876 92.9758 12.5947C93.317 11.811 93.7964 11.2209 94.4234 10.8337C95.0412 10.4464 95.7603 10.2528 96.5809 10.2528C97.8164 10.2528 98.8122 10.6861 99.5682 11.562C100.324 12.438 100.693 13.7564 100.693 15.5267C100.693 16.6977 100.518 17.675 100.177 18.4679Z" fill="black"/>
<path id="Vector_6" d="M121.401 8.13215C120.341 7.44987 119.087 7.0995 117.649 7.0995C116.303 7.0995 115.113 7.43143 114.099 8.09527C113.371 8.5655 112.827 9.14637 112.439 9.83788V2.09297C112.439 1.41068 112.255 0.885132 111.895 0.534768C111.536 0.184403 111.02 0 110.356 0C109.692 0 109.185 0.175182 108.825 0.534768C108.475 0.885132 108.29 1.41068 108.29 2.09297V21.8056C108.29 22.4879 108.466 23.0134 108.825 23.3823C109.176 23.7511 109.692 23.9262 110.356 23.9262C111.02 23.9262 111.499 23.7418 111.849 23.3823C112.2 23.0134 112.384 22.4879 112.384 21.8056V21.1141C112.762 21.8517 113.315 22.4695 114.062 22.9673C115.095 23.6496 116.293 24 117.667 24C119.041 24 120.332 23.6589 121.401 22.9673C122.471 22.2851 123.31 21.2985 123.909 20.0261C124.509 18.7537 124.804 17.2509 124.804 15.5267C124.804 13.8025 124.509 12.2812 123.909 11.0273C123.31 9.77334 122.48 8.80523 121.42 8.12294L121.401 8.13215ZM120.092 18.4679C119.751 19.2516 119.272 19.8417 118.645 20.2474C118.018 20.6531 117.308 20.8467 116.487 20.8467C115.252 20.8467 114.256 20.3949 113.5 19.5006C112.744 18.6062 112.375 17.2785 112.375 15.5359C112.375 14.365 112.55 13.3876 112.891 12.5947C113.232 11.811 113.712 11.2209 114.339 10.8337C114.957 10.4464 115.676 10.2528 116.496 10.2528C117.732 10.2528 118.728 10.6861 119.484 11.562C120.24 12.438 120.608 13.7564 120.608 15.5267C120.608 16.6977 120.433 17.675 120.092 18.4679Z" fill="black"/>
<path id="Vector_7" d="M135.813 20.5148C135.656 20.5332 135.499 20.5517 135.352 20.5609C135.195 20.5701 135.029 20.5793 134.854 20.5793C134.061 20.5793 133.443 20.3396 133.01 19.8509C132.576 19.3623 132.364 18.6154 132.364 17.592V2.09297C132.364 1.41068 132.18 0.885132 131.82 0.534768C131.461 0.184403 130.944 0 130.281 0C129.617 0 129.11 0.175182 128.75 0.534768C128.4 0.885132 128.215 1.41068 128.215 2.09297V17.7949C128.215 19.8325 128.676 21.3723 129.607 22.4234C130.539 23.4745 131.922 24 133.757 24C133.996 24 134.245 23.9908 134.485 23.9631C134.725 23.9447 134.964 23.917 135.186 23.8986C135.693 23.834 136.062 23.6404 136.283 23.3361C136.504 23.0227 136.615 22.5985 136.615 22.0453C136.615 21.3999 136.559 20.9758 136.449 20.7637C136.338 20.5517 136.126 20.4687 135.822 20.5148H135.813Z" fill="black"/>
<path id="Vector_8" d="M151.911 19.5374C151.56 19.5005 151.145 19.6204 150.684 19.8877C150.039 20.2381 149.366 20.4871 148.647 20.6346C147.928 20.7821 147.282 20.8466 146.701 20.8466C145.042 20.8466 143.788 20.3949 142.93 19.5005C142.257 18.7906 141.861 17.7856 141.722 16.4947H151.745C152.252 16.4947 152.648 16.3933 152.925 16.1813C153.202 15.9692 153.34 15.6649 153.34 15.2685C153.34 14.0053 153.165 12.8712 152.824 11.8662C152.482 10.8612 151.984 10.0038 151.33 9.29381C150.675 8.58386 149.892 8.03988 148.97 7.67107C148.047 7.29304 147.015 7.10864 145.862 7.10864C144.295 7.10864 142.893 7.46823 141.667 8.1874C140.441 8.90657 139.473 9.89312 138.781 11.1563C138.081 12.4194 137.739 13.8854 137.739 15.5727C137.739 17.26 138.099 18.7906 138.818 20.0537C139.537 21.3169 140.561 22.285 141.888 22.9765C143.216 23.6588 144.802 24.0091 146.637 24.0091C147.503 24.0091 148.435 23.8893 149.44 23.6588C150.445 23.4283 151.339 23.0687 152.114 22.58C152.51 22.3403 152.796 22.0453 152.962 21.7133C153.128 21.3814 153.192 21.0587 153.146 20.736C153.1 20.4133 152.971 20.1459 152.768 19.9246C152.556 19.7033 152.28 19.5743 151.92 19.5466L151.911 19.5374ZM143.659 10.5754C144.313 10.1421 145.106 9.93 146.028 9.93C146.867 9.93 147.568 10.1144 148.14 10.474C148.702 10.8428 149.135 11.3683 149.431 12.0506C149.679 12.6223 149.818 13.3138 149.864 14.1067H141.722C141.805 13.4798 141.944 12.8989 142.165 12.401C142.506 11.6173 143.004 11.0088 143.659 10.5754Z" fill="black"/>
</g>
<defs>
<clipPath id="clip0_2119_22177">
<rect width="156.106" height="24" fill="white"/>
</clipPath>
</defs>
</svg>
