<svg width="243" height="70" viewBox="0 0 243 70" fill="none" xmlns="http://www.w3.org/2000/svg">
<g clip-path="url(#clip0_235_315)">
<path d="M64.8307 0H32.6845C29.7768 0 27.4614 2.31538 27.4614 5.16923V31.7692H64.7768C67.6307 31.7692 69.946 29.4538 69.946 26.6V5.16923C69.9999 2.31538 67.6845 0 64.8307 0Z" fill="#92C83E"/>
<path d="M38.823 18.4155C40.2207 18.4155 41.3538 17.2825 41.3538 15.8848C41.3538 14.4871 40.2207 13.354 38.823 13.354C37.4253 13.354 36.2922 14.4871 36.2922 15.8848C36.2922 17.2825 37.4253 18.4155 38.823 18.4155Z" fill="white"/>
<path d="M48.7307 18.4155C50.1284 18.4155 51.2615 17.2825 51.2615 15.8848C51.2615 14.4871 50.1284 13.354 48.7307 13.354C47.333 13.354 46.2 14.4871 46.2 15.8848C46.2 17.2825 47.333 18.4155 48.7307 18.4155Z" fill="white"/>
<path d="M58.6384 18.4155C60.0361 18.4155 61.1692 17.2825 61.1692 15.8848C61.1692 14.4871 60.0361 13.354 58.6384 13.354C57.2407 13.354 56.1077 14.4871 56.1077 15.8848C56.1077 17.2825 57.2407 18.4155 58.6384 18.4155Z" fill="white"/>
<path d="M5.33085 37.9078C2.47701 37.9078 0.161621 40.2232 0.161621 43.0771V64.7771C0.161621 67.6309 2.47701 69.9463 5.33085 69.9463H37.477C40.3308 69.9463 42.6462 67.6309 42.6462 64.7771V37.854H5.33085V37.9078Z" fill="#FBB03B"/>
<path d="M11.4692 56.4844C12.8669 56.4844 14 55.3513 14 53.9536C14 52.5559 12.8669 51.4229 11.4692 51.4229C10.0715 51.4229 8.93848 52.5559 8.93848 53.9536C8.93848 55.3513 10.0715 56.4844 11.4692 56.4844Z" fill="white"/>
<path d="M21.377 56.4844C22.7747 56.4844 23.9077 55.3513 23.9077 53.9536C23.9077 52.5559 22.7747 51.4229 21.377 51.4229C19.9793 51.4229 18.8462 52.5559 18.8462 53.9536C18.8462 55.3513 19.9793 56.4844 21.377 56.4844Z" fill="white"/>
<path d="M31.2847 56.4844C32.6824 56.4844 33.8154 55.3513 33.8154 53.9536C33.8154 52.5559 32.6824 51.4229 31.2847 51.4229C29.887 51.4229 28.7539 52.5559 28.7539 53.9536C28.7539 55.3513 29.887 56.4844 31.2847 56.4844Z" fill="white"/>
<path d="M21.3769 21.1075V31.8229H10.7154C4.7923 31.8229 0 27.0306 0 21.1075C0 15.1844 4.7923 10.3921 10.7154 10.3921C16.6385 10.3921 21.3769 15.2382 21.3769 21.1075Z" fill="#ED1E79"/>
<path d="M48.623 48.6231V37.9077H59.3384C65.2615 37.9077 70.0538 42.7 70.0538 48.6231C70.0538 54.5462 65.2615 59.3385 59.3384 59.3385C53.4154 59.3385 48.623 54.4923 48.623 48.6231Z" fill="#3FA9F5"/>
</g>
<g clip-path="url(#clip1_235_315)">
<path d="M94.6946 23.2676H88.2589C87.5305 23.2676 86.9681 23.4612 86.5809 23.8484C86.1936 24.2357 86 24.7981 86 25.5265V44.4093C86 45.1377 86.1936 45.7002 86.5809 46.0874C86.9681 46.4746 87.5305 46.6683 88.2589 46.6683H94.6946C96.6677 46.6683 98.4103 46.4101 99.9224 45.8846C101.434 45.3682 102.725 44.603 103.776 43.6072C104.828 42.6114 105.62 41.3851 106.164 39.9376C106.708 38.49 106.976 36.8212 106.976 34.9403C106.976 31.1785 105.906 28.2925 103.776 26.2733C101.637 24.2726 98.6131 23.2676 94.6946 23.2676ZM102.034 38.5546C101.702 39.5872 101.195 40.4355 100.522 41.1085C99.8486 41.7816 99.0096 42.2887 97.9954 42.6391C96.9904 42.9802 95.801 43.1554 94.4272 43.1554H90.2413V26.7804H94.4272C97.1287 26.7804 99.1479 27.4535 100.503 28.8089C101.849 30.155 102.532 32.2019 102.532 34.9495C102.532 36.3233 102.366 37.5219 102.034 38.5546Z" fill="black"/>
<path d="M121.203 24.7887C120.917 24.1433 120.566 23.6915 120.161 23.4149C119.755 23.1383 119.294 23 118.787 23C118.28 23 117.782 23.1383 117.376 23.4149C116.971 23.6915 116.62 24.1525 116.334 24.7887L107.575 44.2063C107.354 44.7134 107.28 45.1744 107.345 45.5801C107.409 45.9858 107.603 46.3177 107.926 46.5574C108.248 46.7972 108.672 46.9262 109.207 46.9262C109.779 46.9262 110.221 46.7787 110.535 46.4929C110.848 46.2071 111.143 45.7368 111.429 45.1007L113.061 41.2466H124.476L126.135 45.1007C126.403 45.7184 126.707 46.1794 127.048 46.4745C127.389 46.7695 127.869 46.9262 128.496 46.9262C129.003 46.9262 129.418 46.8064 129.722 46.5759C130.035 46.3454 130.22 46.0134 130.284 45.5985C130.349 45.1744 130.266 44.7134 130.017 44.2063L121.203 24.7887ZM118.713 27.8774H118.778L123.01 37.8721H114.509L118.713 27.8774Z" fill="black"/>
<path d="M147.046 34.5894C148.024 34.2205 148.826 33.6673 149.453 32.9205C150.273 31.9432 150.679 30.7538 150.679 29.3339C150.679 28.0707 150.375 26.992 149.766 26.0792C149.158 25.1756 148.282 24.4749 147.129 23.9862C145.977 23.4975 144.585 23.2578 142.943 23.2578H134.977C134.249 23.2578 133.686 23.4514 133.299 23.8387C132.912 24.2259 132.718 24.7884 132.718 25.5167V44.3996C132.718 45.128 132.912 45.6904 133.299 46.0776C133.686 46.4649 134.249 46.6585 134.977 46.6585H143.312C145.811 46.6585 147.766 46.0869 149.167 44.9528C150.568 43.8095 151.278 42.2052 151.278 40.1214C151.278 38.5263 150.827 37.2355 149.914 36.2398C149.195 35.4468 148.227 34.9028 147.046 34.5894ZM136.803 26.4849H142.215C143.672 26.4849 144.769 26.7707 145.488 27.3331C146.207 27.8955 146.567 28.7346 146.567 29.841C146.567 30.9474 146.207 31.7864 145.488 32.3489C144.769 32.9113 143.681 33.1971 142.215 33.1971H136.803V26.4849ZM146.097 42.5648C145.387 43.1549 144.28 43.4407 142.777 43.4407H136.803V36.4057H142.777C144.28 36.4057 145.387 36.6915 146.097 37.2724C146.807 37.8441 147.157 38.7292 147.157 39.9278C147.157 41.1264 146.807 41.9839 146.097 42.5648Z" fill="black"/>
<path d="M167.976 30.1729C167.312 30.1729 166.805 30.348 166.445 30.6892C166.095 31.0303 165.911 31.5559 165.911 32.2658V39.5682C165.911 40.8313 165.56 41.8455 164.85 42.6016C164.14 43.3669 163.237 43.7449 162.13 43.7449C161.116 43.7449 160.369 43.4683 159.908 42.9151C159.447 42.3619 159.208 41.5136 159.208 40.3611V32.2658C159.208 31.5559 159.023 31.0303 158.664 30.6892C158.295 30.348 157.788 30.1729 157.124 30.1729C156.46 30.1729 155.953 30.348 155.593 30.6892C155.243 31.0303 155.059 31.5559 155.059 32.2658V40.2966C155.059 41.781 155.271 43.0165 155.704 44.0123C156.137 45.008 156.792 45.7549 157.677 46.2528C158.562 46.7506 159.678 46.9996 161.033 46.9996C162.389 46.9996 163.43 46.6769 164.371 46.0407C165.044 45.5797 165.588 44.9804 166.012 44.2428V44.8144C166.012 45.4967 166.187 46.0223 166.547 46.3911C166.897 46.7599 167.395 46.935 168.041 46.935C169.387 46.935 170.069 46.2251 170.069 44.8144V32.2658C170.069 31.5559 169.885 31.0303 169.525 30.6892C169.156 30.348 168.649 30.1729 167.985 30.1729H167.976Z" fill="black"/>
<path d="M187.486 31.1322C186.426 30.4499 185.172 30.0995 183.733 30.0995C182.387 30.0995 181.198 30.4314 180.184 31.0953C179.455 31.5655 178.911 32.1464 178.524 32.8379V25.093C178.524 24.4107 178.34 23.8851 177.98 23.5348C177.62 23.1844 177.104 23 176.44 23C175.776 23 175.269 23.1752 174.91 23.5348C174.559 23.8851 174.375 24.4107 174.375 25.093V44.8056C174.375 45.4879 174.55 46.0134 174.91 46.3823C175.26 46.7511 175.776 46.9262 176.44 46.9262C177.104 46.9262 177.584 46.7418 177.934 46.3823C178.284 46.0134 178.469 45.4879 178.469 44.8056V44.1141C178.847 44.8517 179.4 45.4695 180.147 45.9673C181.179 46.6496 182.378 47 183.752 47C185.126 47 186.416 46.6589 187.486 45.9673C188.556 45.2851 189.395 44.2985 189.994 43.0261C190.593 41.7537 190.888 40.2509 190.888 38.5267C190.888 36.8025 190.593 35.2812 189.994 34.0273C189.395 32.7733 188.565 31.8052 187.504 31.1229L187.486 31.1322ZM186.177 41.4679C185.836 42.2516 185.356 42.8417 184.729 43.2474C184.102 43.6531 183.392 43.8467 182.572 43.8467C181.336 43.8467 180.34 43.3949 179.584 42.5006C178.828 41.6062 178.46 40.2785 178.46 38.5359C178.46 37.365 178.635 36.3876 178.976 35.5947C179.317 34.811 179.796 34.2209 180.423 33.8337C181.041 33.4464 181.76 33.2528 182.581 33.2528C183.816 33.2528 184.812 33.6861 185.568 34.562C186.324 35.438 186.693 36.7564 186.693 38.5267C186.693 39.6977 186.518 40.675 186.177 41.4679Z" fill="black"/>
<path d="M207.401 31.1322C206.341 30.4499 205.087 30.0995 203.649 30.0995C202.303 30.0995 201.113 30.4314 200.099 31.0953C199.371 31.5655 198.827 32.1464 198.439 32.8379V25.093C198.439 24.4107 198.255 23.8851 197.895 23.5348C197.536 23.1844 197.019 23 196.356 23C195.692 23 195.185 23.1752 194.825 23.5348C194.475 23.8851 194.29 24.4107 194.29 25.093V44.8056C194.29 45.4879 194.465 46.0134 194.825 46.3823C195.175 46.7511 195.692 46.9262 196.356 46.9262C197.019 46.9262 197.499 46.7418 197.849 46.3823C198.2 46.0134 198.384 45.4879 198.384 44.8056V44.1141C198.762 44.8517 199.315 45.4695 200.062 45.9673C201.095 46.6496 202.293 47 203.667 47C205.041 47 206.332 46.6589 207.401 45.9673C208.471 45.2851 209.31 44.2985 209.909 43.0261C210.508 41.7537 210.804 40.2509 210.804 38.5267C210.804 36.8025 210.508 35.2812 209.909 34.0273C209.31 32.7733 208.48 31.8052 207.42 31.1229L207.401 31.1322ZM206.092 41.4679C205.751 42.2516 205.271 42.8417 204.644 43.2474C204.018 43.6531 203.308 43.8467 202.487 43.8467C201.251 43.8467 200.256 43.3949 199.5 42.5006C198.744 41.6062 198.375 40.2785 198.375 38.5359C198.375 37.365 198.55 36.3876 198.891 35.5947C199.232 34.811 199.712 34.2209 200.339 33.8337C200.956 33.4464 201.676 33.2528 202.496 33.2528C203.732 33.2528 204.727 33.6861 205.484 34.562C206.24 35.438 206.608 36.7564 206.608 38.5267C206.608 39.6977 206.433 40.675 206.092 41.4679Z" fill="black"/>
<path d="M221.812 43.5148C221.656 43.5332 221.499 43.5517 221.351 43.5609C221.195 43.5701 221.029 43.5793 220.854 43.5793C220.061 43.5793 219.443 43.3396 219.01 42.8509C218.576 42.3623 218.364 41.6154 218.364 40.592V25.093C218.364 24.4107 218.18 23.8851 217.82 23.5348C217.461 23.1844 216.944 23 216.28 23C215.617 23 215.109 23.1752 214.75 23.5348C214.399 23.8851 214.215 24.4107 214.215 25.093V40.7949C214.215 42.8325 214.676 44.3723 215.607 45.4234C216.539 46.4745 217.922 47 219.756 47C219.996 47 220.245 46.9908 220.485 46.9631C220.725 46.9447 220.964 46.917 221.186 46.8986C221.693 46.834 222.061 46.6404 222.283 46.3361C222.504 46.0227 222.615 45.5985 222.615 45.0453C222.615 44.3999 222.559 43.9758 222.449 43.7637C222.338 43.5517 222.126 43.4687 221.822 43.5148H221.812Z" fill="black"/>
<path d="M237.911 42.5376C237.56 42.5007 237.146 42.6206 236.685 42.888C236.039 43.2384 235.366 43.4873 234.647 43.6348C233.928 43.7823 233.282 43.8469 232.701 43.8469C231.042 43.8469 229.788 43.3951 228.93 42.5007C228.257 41.7908 227.861 40.7858 227.723 39.495H237.745C238.252 39.495 238.648 39.3936 238.925 39.1815C239.202 38.9694 239.34 38.6652 239.34 38.2687C239.34 37.0055 239.165 35.8715 238.824 34.8665C238.482 33.8615 237.985 33.004 237.33 32.2941C236.675 31.5841 235.892 31.0401 234.97 30.6713C234.048 30.2933 233.015 30.1089 231.862 30.1089C230.295 30.1089 228.894 30.4685 227.667 31.1876C226.441 31.9068 225.473 32.8934 224.781 34.1565C224.081 35.4197 223.74 36.8857 223.74 38.573C223.74 40.2603 224.099 41.7908 224.818 43.054C225.537 44.3171 226.561 45.2852 227.889 45.9767C229.216 46.659 230.802 47.0094 232.637 47.0094C233.504 47.0094 234.435 46.8895 235.44 46.659C236.445 46.4285 237.339 46.0689 238.114 45.5803C238.51 45.3405 238.796 45.0455 238.962 44.7136C239.128 44.3817 239.192 44.0589 239.146 43.7362C239.1 43.4135 238.971 43.1462 238.768 42.9249C238.556 42.7036 238.28 42.5745 237.92 42.5468L237.911 42.5376ZM229.659 33.5757C230.313 33.1423 231.106 32.9302 232.028 32.9302C232.867 32.9302 233.568 33.1146 234.14 33.4742C234.702 33.843 235.136 34.3686 235.431 35.0509C235.68 35.6225 235.818 36.314 235.864 37.107H227.723C227.806 36.48 227.944 35.8991 228.165 35.4012C228.506 34.6175 229.004 34.009 229.659 33.5757Z" fill="black"/>
</g>
<defs>
<clipPath id="clip0_235_315">
<rect width="70" height="70" fill="white"/>
</clipPath>
<clipPath id="clip1_235_315">
<rect width="156.106" height="24" fill="white" transform="translate(86 23)"/>
</clipPath>
</defs>
</svg>
