<svg width="136" height="137" viewBox="0 0 136 137" fill="none" xmlns="http://www.w3.org/2000/svg">
<g id="person">
<mask id="mask0_15574_16304" style="mask-type:alpha" maskUnits="userSpaceOnUse" x="0" y="0" width="136" height="137">
<rect id="Bounding box" y="0.5" width="136" height="136" fill="#D9D9D9"/>
</mask>
<g mask="url(#mask0_15574_16304)">
<path id="person_2" d="M68.0111 68.5111C61.7777 68.5111 56.4416 66.2916 52.0027 61.8527C47.5639 57.4139 45.3444 52.0777 45.3444 45.8444C45.3444 39.6111 47.5639 34.275 52.0027 29.8361C56.4416 25.3972 61.7777 23.1777 68.0111 23.1777C74.2444 23.1777 79.5805 25.3972 84.0194 29.8361C88.4583 34.275 90.6777 39.6111 90.6777 45.8444C90.6777 52.0777 88.4583 57.4139 84.0194 61.8527C79.5805 66.2916 74.2444 68.5111 68.0111 68.5111ZM22.6777 113.844V97.9778C22.6777 94.7666 23.5041 91.8152 25.1569 89.1236C26.8097 86.4319 29.0055 84.3778 31.7444 82.9611C37.6 80.0333 43.55 77.8375 49.5944 76.3736C55.6389 74.9097 61.7777 74.1777 68.0111 74.1777C74.2444 74.1777 80.3833 74.9097 86.4277 76.3736C92.4722 77.8375 98.4222 80.0333 104.278 82.9611C107.017 84.3778 109.212 86.4319 110.865 89.1236C112.518 91.8152 113.344 94.7666 113.344 97.9778V113.844H22.6777Z" fill="#ECEEFE"/>
</g>
</g>
</svg>
