<svg width="40" height="40" viewBox="0 0 40 40" fill="none" xmlns="http://www.w3.org/2000/svg">
<g clip-path="url(#clip0_516_6797)">
<mask id="mask0_516_6797" style="mask-type:alpha" maskUnits="userSpaceOnUse" x="8" y="8" width="24" height="24">
<rect x="8" y="8" width="24" height="24" fill="#D9D9D9"/>
</mask>
<g mask="url(#mask0_516_6797)">
<path d="M20 27C19.7167 27 19.4793 26.904 19.288 26.712C19.096 26.5207 19 26.2833 19 26V21H14C13.7167 21 13.479 20.904 13.287 20.712C13.0957 20.5207 13 20.2833 13 20C13 19.7167 13.0957 19.479 13.287 19.287C13.479 19.0957 13.7167 19 14 19H19V14C19 13.7167 19.096 13.479 19.288 13.287C19.4793 13.0957 19.7167 13 20 13C20.2833 13 20.521 13.0957 20.713 13.287C20.9043 13.479 21 13.7167 21 14V19H26C26.2833 19 26.5207 19.0957 26.712 19.287C26.904 19.479 27 19.7167 27 20C27 20.2833 26.904 20.5207 26.712 20.712C26.5207 20.904 26.2833 21 26 21H21V26C21 26.2833 20.9043 26.5207 20.713 26.712C20.521 26.904 20.2833 27 20 27Z" fill="black"/>
</g>
</g>
<defs>
<clipPath id="clip0_516_6797">
<rect x="8" y="8" width="24" height="24" rx="12" fill="white"/>
</clipPath>
</defs>
</svg>
