<svg width="20" height="20" viewBox="0 0 20 20" fill="none" xmlns="http://www.w3.org/2000/svg">
<g id="&#240;&#159;&#166;&#134; emoji &#34;person raising both hands in celebration&#34;">
<path id="Vector" d="M8.33765 0L10.0043 3.33333L11.671 0H8.33765ZM14.3043 0.333333L14.071 4.06667L17.171 2L14.3043 0.333333ZM2.83765 2L5.97098 4.06667L5.73765 0.333333L2.83765 2Z" fill="#4AA9FF"/>
<path id="Vector_2" d="M6.13768 20H2.20435V15.7L6.80435 16.7666C5.70435 17.9333 6.13768 20 6.13768 20Z" fill="#EBA352"/>
<g id="Group">
<path id="Vector_3" d="M5.77101 20H1.37101C1.37101 20 1.43768 17.8667 0.704346 16.0333L6.20435 16.8333C5.57101 18.4667 5.77101 20 5.77101 20ZM5.33768 14.1333H7.00435V6.73333C7.00435 6.23333 6.63768 5.83333 6.17101 5.83333C5.70435 5.83333 5.33768 6.23333 5.33768 6.76667V14.1333ZM3.37101 14.1333H5.33768V6.1C5.33768 5.5 4.90435 5 4.33768 5C3.80435 5 3.33768 5.5 3.33768 6.1V14.1333H3.37101Z" fill="#FFDD67"/>
<path id="Vector_4" d="M1.67116 14.1334H3.40449V6.56676C3.40449 6.03343 3.00449 5.6001 2.53783 5.6001C2.07116 5.6001 1.67116 6.03343 1.67116 6.56676V14.1334ZM0.871159 6.73343C0.437826 6.73343 0.104492 7.13343 0.104492 7.63343V14.1334H1.67116V7.63343C1.67116 7.13343 1.30449 6.73343 0.871159 6.73343Z" fill="#FFDD67"/>
</g>
<path id="Vector_5" d="M6.17113 5.8H6.00446C6.40446 5.86667 6.70446 6.26667 6.70446 6.7V14.1333H7.00446V6.73333C7.00446 6.23333 6.63779 5.8 6.17113 5.8ZM4.37113 5C4.30446 5 4.27113 5 4.23779 5.03333C4.70446 5.1 5.07113 5.56667 5.07113 6.1V11.4667L5.37113 11.8V6.1C5.33779 5.5 4.90446 5 4.37113 5ZM2.53779 5.6H2.40446C2.80446 5.66667 3.10446 6.06667 3.10446 6.53333V11.4333L3.40446 11.7667V6.56667C3.37113 6.03333 3.00446 5.6 2.53779 5.6ZM0.871126 6.73333C0.80446 6.73333 0.771126 6.73333 0.737793 6.76667C1.10446 6.83333 1.37113 7.2 1.37113 7.63333V11.4667L1.67113 11.8V7.63333C1.67113 7.13333 1.30446 6.73333 0.871126 6.73333Z" fill="#EBA352"/>
<path id="Vector_6" d="M9.80434 10.7333C9.30433 10.1666 8.30433 10.4333 7.60433 11.8999C7.10433 12.8999 6.971 12.6999 6.70434 12.7666V11.8666C6.70434 11.8666 0.0710007 11.4333 0.0710007 12.4333C0.0710007 12.4333 -0.228999 14.8999 0.404334 16.4333C1.371 18.7333 6.30434 19.3333 7.83767 15.4333C8.13767 14.6666 8.571 13.8333 8.90434 12.9999C9.33767 11.9999 10.371 11.3999 9.80434 10.7333Z" fill="#FFDD67"/>
<g id="Group_2">
<path id="Vector_7" d="M9.471 10.5C10.5377 11.3 8.571 12.8333 7.63766 15.2C6.30433 18.6 2.40433 18.6 0.770996 17.0333C2.271 18.8 6.43766 19.1333 7.83766 15.4333C8.771 13.0333 11.0377 11.2 9.471 10.5Z" fill="#EBA352"/>
<path id="Vector_8" d="M7.00415 12.7334C5.70415 12.2667 2.97082 13.1667 3.33749 15.7667C3.33749 13.3334 5.50415 12.7667 6.70415 12.7667C6.87082 12.7667 7.00415 12.7334 7.00415 12.7334ZM13.8708 20H17.8042V15.7L13.2042 16.7667C14.3042 17.9334 13.8708 20 13.8708 20Z" fill="#EBA352"/>
</g>
<g id="Group_3">
<path id="Vector_9" d="M14.2377 20H18.6377C18.6377 20 18.5711 17.8667 19.3044 16.0333L13.8044 16.8333C14.4377 18.4667 14.2377 20 14.2377 20ZM14.6711 14.1333H13.0044V6.73333C13.0044 6.23333 13.3711 5.83333 13.8377 5.83333C14.3044 5.83333 14.6711 6.23333 14.6711 6.76667V14.1333ZM16.6377 14.1333H14.6711V6.1C14.6711 5.5 15.1044 5 15.6711 5C16.2044 5 16.6711 5.5 16.6711 6.1V14.1333H16.6377Z" fill="#FFDD67"/>
<path id="Vector_10" d="M18.3376 14.1334H16.6042V6.56676C16.6042 6.03343 17.0042 5.6001 17.4709 5.6001C17.9376 5.6001 18.3376 6.03343 18.3376 6.56676V14.1334ZM19.1376 6.73343C19.5709 6.73343 19.9042 7.13343 19.9042 7.63343V14.1334H18.3376V7.63343C18.3376 7.13343 18.7042 6.73343 19.1376 6.73343Z" fill="#FFDD67"/>
</g>
<path id="Vector_11" d="M13.8377 5.8H14.0044C13.6044 5.86667 13.3044 6.26667 13.3044 6.7V14.1333H13.0044V6.73333C13.0044 6.23333 13.3711 5.8 13.8377 5.8ZM15.6377 5C15.7044 5 15.7377 5 15.7711 5.03333C15.3044 5.1 14.9377 5.56667 14.9377 6.1V11.4667L14.6377 11.8V6.1C14.6711 5.5 15.1044 5 15.6377 5ZM17.4711 5.6H17.6044C17.2044 5.66667 16.9044 6.06667 16.9044 6.53333V11.4333L16.6044 11.7667V6.56667C16.6377 6.03333 17.0044 5.6 17.4711 5.6ZM19.1377 6.73333C19.2044 6.73333 19.2377 6.73333 19.2711 6.76667C18.9044 6.83333 18.6377 7.2 18.6377 7.63333V11.4667L18.3377 11.8V7.63333C18.3377 7.13333 18.7044 6.73333 19.1377 6.73333Z" fill="#EBA352"/>
<path id="Vector_12" d="M10.2043 10.7333C10.7043 10.1666 11.7043 10.4333 12.4043 11.8999C12.9043 12.8999 13.0376 12.6999 13.3043 12.7666V11.8666C13.3043 11.8666 19.9376 11.4333 19.9376 12.4333C19.9376 12.4333 20.2376 14.8999 19.6043 16.4333C18.6376 18.7333 13.7043 19.3333 12.171 15.4333C11.871 14.6666 11.4376 13.8333 11.1043 12.9999C10.671 11.9999 9.63765 11.3999 10.2043 10.7333Z" fill="#FFDD67"/>
<g id="Group_4">
<path id="Vector_13" d="M10.5377 10.5C9.47102 11.3 11.4377 12.8333 12.371 15.2C13.7043 18.6 17.6043 18.6 19.2377 17.0333C17.7377 18.8 13.571 19.1333 12.171 15.4333C11.2377 13.0333 8.97102 11.2 10.5377 10.5Z" fill="#EBA352"/>
<path id="Vector_14" d="M13.0044 12.7334C14.3044 12.2667 17.0377 13.1667 16.6711 15.7667C16.6711 13.3334 14.5044 12.7667 13.3044 12.7667C13.1377 12.7667 13.0044 12.7334 13.0044 12.7334Z" fill="#EBA352"/>
</g>
</g>
</svg>
