<svg width="40" height="40" viewBox="0 0 40 40" fill="none" xmlns="http://www.w3.org/2000/svg">
<g id="Send icon">
<g id="send">
<mask id="mask0_16541_1901" style="mask-type:alpha" maskUnits="userSpaceOnUse" x="5" y="5" width="30" height="30">
<rect id="Bounding box" x="5" y="5" width="30" height="30" fill="#D9D9D9"/>
</mask>
<g mask="url(#mask0_16541_1901)">
<path id="send_2" d="M10.5 29.2813C10.0833 29.4479 9.6875 29.4113 9.3125 29.1713C8.9375 28.9321 8.75 28.5833 8.75 28.125V23.4688C8.75 23.1771 8.83333 22.9167 9 22.6875C9.16667 22.4583 9.39583 22.3125 9.6875 22.25L18.75 20L9.6875 17.75C9.39583 17.6875 9.16667 17.5417 9 17.3125C8.83333 17.0833 8.75 16.8229 8.75 16.5313V11.875C8.75 11.4167 8.9375 11.0675 9.3125 10.8275C9.6875 10.5883 10.0833 10.5521 10.5 10.7188L29.75 18.8438C30.2708 19.0729 30.5312 19.4583 30.5312 20C30.5312 20.5417 30.2708 20.9271 29.75 21.1563L10.5 29.2813Z" fill="#444DF2"/>
</g>
</g>
</g>
</svg>
