<svg width="40" height="40" viewBox="0 0 40 40" fill="none" xmlns="http://www.w3.org/2000/svg">
<mask id="mask0_516_6783" style="mask-type:alpha" maskUnits="userSpaceOnUse" x="8" y="8" width="24" height="24">
<rect x="8" y="8" width="24" height="24" fill="#D9D9D9"/>
</mask>
<g mask="url(#mask0_516_6783)">
<path d="M23.5 19C23.9333 19 24.2917 18.8583 24.575 18.575C24.8583 18.2917 25 17.9333 25 17.5C25 17.0667 24.8583 16.7083 24.575 16.425C24.2917 16.1417 23.9333 16 23.5 16C23.0667 16 22.7083 16.1417 22.425 16.425C22.1417 16.7083 22 17.0667 22 17.5C22 17.9333 22.1417 18.2917 22.425 18.575C22.7083 18.8583 23.0667 19 23.5 19ZM16.5 19C16.9333 19 17.2917 18.8583 17.575 18.575C17.8583 18.2917 18 17.9333 18 17.5C18 17.0667 17.8583 16.7083 17.575 16.425C17.2917 16.1417 16.9333 16 16.5 16C16.0667 16 15.7083 16.1417 15.425 16.425C15.1417 16.7083 15 17.0667 15 17.5C15 17.9333 15.1417 18.2917 15.425 18.575C15.7083 18.8583 16.0667 19 16.5 19ZM20 25.5C20.95 25.5 21.8167 25.2877 22.6 24.863C23.3833 24.4377 23.9917 23.9 24.425 23.25C24.625 22.95 24.6543 22.6667 24.513 22.4C24.371 22.1333 24.15 22 23.85 22C23.7333 22 23.6167 22.0333 23.5 22.1C23.3833 22.1667 23.2917 22.25 23.225 22.35C22.8583 22.85 22.4 23.25 21.85 23.55C21.3 23.85 20.6833 24 20 24C19.3167 24 18.7 23.85 18.15 23.55C17.6 23.25 17.1417 22.85 16.775 22.35C16.7083 22.25 16.6127 22.1667 16.488 22.1C16.3627 22.0333 16.2417 22 16.125 22C15.8417 22 15.6293 22.129 15.488 22.387C15.346 22.6457 15.3667 22.9167 15.55 23.2C16 23.8833 16.6167 24.4377 17.4 24.863C18.1833 25.2877 19.05 25.5 20 25.5ZM20 30C18.6167 30 17.3167 29.7373 16.1 29.212C14.8833 28.6873 13.825 27.975 12.925 27.075C12.025 26.175 11.3127 25.1167 10.788 23.9C10.2627 22.6833 10 21.3833 10 20C10 18.6167 10.2627 17.3167 10.788 16.1C11.3127 14.8833 12.025 13.825 12.925 12.925C13.825 12.025 14.8833 11.3123 16.1 10.787C17.3167 10.2623 18.6167 10 20 10C21.3833 10 22.6833 10.2623 23.9 10.787C25.1167 11.3123 26.175 12.025 27.075 12.925C27.975 13.825 28.6873 14.8833 29.212 16.1C29.7373 17.3167 30 18.6167 30 20C30 21.3833 29.7373 22.6833 29.212 23.9C28.6873 25.1167 27.975 26.175 27.075 27.075C26.175 27.975 25.1167 28.6873 23.9 29.212C22.6833 29.7373 21.3833 30 20 30ZM20 28C22.2167 28 24.1043 27.221 25.663 25.663C27.221 24.1043 28 22.2167 28 20C28 17.7833 27.221 15.8957 25.663 14.337C24.1043 12.779 22.2167 12 20 12C17.7833 12 15.896 12.779 14.338 14.337C12.7793 15.8957 12 17.7833 12 20C12 22.2167 12.7793 24.1043 14.338 25.663C15.896 27.221 17.7833 28 20 28Z" fill="black"/>
</g>
</svg>
