<svg width="40" height="40" viewBox="0 0 40 40" fill="none" xmlns="http://www.w3.org/2000/svg">
<rect width="40" height="40" rx="20" fill="#ECEEFE"/>
<mask id="mask0_516_6802" style="mask-type:alpha" maskUnits="userSpaceOnUse" x="8" y="8" width="24" height="24">
<rect x="8" y="8" width="24" height="24" fill="#D9D9D9"/>
</mask>
<g mask="url(#mask0_516_6802)">
<path d="M23.7 19.2002C24.2 19.2002 24.6166 19.0335 24.95 18.7002C25.2833 18.3669 25.45 17.9502 25.45 17.4502C25.45 16.9502 25.2833 16.5335 24.95 16.2002C24.6166 15.8669 24.2 15.7002 23.7 15.7002C23.2 15.7002 22.7833 15.8669 22.45 16.2002C22.1166 16.5335 21.95 16.9502 21.95 17.4502C21.95 17.9502 22.1166 18.3669 22.45 18.7002C22.7833 19.0335 23.2 19.2002 23.7 19.2002ZM16.3 19.2002C16.8 19.2002 17.2166 19.0335 17.55 18.7002C17.8833 18.3669 18.05 17.9502 18.05 17.4502C18.05 16.9502 17.8833 16.5335 17.55 16.2002C17.2166 15.8669 16.8 15.7002 16.3 15.7002C15.8 15.7002 15.3833 15.8669 15.05 16.2002C14.7166 16.5335 14.55 16.9502 14.55 17.4502C14.55 17.9502 14.7166 18.3669 15.05 18.7002C15.3833 19.0335 15.8 19.2002 16.3 19.2002ZM20 26.0002C21.1 26.0002 22.071 25.7542 22.913 25.2622C23.7543 24.7709 24.4 24.1835 24.85 23.5002C25.0833 23.1335 25.1043 22.8002 24.913 22.5002C24.721 22.2002 24.4583 22.0502 24.125 22.0502C23.875 22.0502 23.6793 22.1002 23.538 22.2002C23.396 22.3002 23.2583 22.4335 23.125 22.6002C22.7583 23.0502 22.3083 23.4129 21.775 23.6882C21.2416 23.9629 20.65 24.1002 20 24.1002C19.35 24.1002 18.7583 23.9629 18.225 23.6882C17.6916 23.4129 17.2416 23.0502 16.875 22.6002C16.7416 22.4335 16.6043 22.3002 16.463 22.2002C16.321 22.1002 16.125 22.0502 15.875 22.0502C15.525 22.0502 15.2626 22.2125 15.088 22.5372C14.9126 22.8625 14.9583 23.2252 15.225 23.6252C15.6416 24.2419 16.2666 24.7919 17.1 25.2752C17.9333 25.7585 18.9 26.0002 20 26.0002ZM20 30.8002C18.5 30.8002 17.0956 30.5169 15.787 29.9502C14.479 29.3835 13.3376 28.6129 12.363 27.6382C11.3876 26.6629 10.6166 25.5209 10.05 24.2122C9.48328 22.9042 9.19995 21.5002 9.19995 20.0002C9.19995 18.5002 9.48328 17.0919 10.05 15.7752C10.6166 14.4585 11.3876 13.3129 12.363 12.3382C13.3376 11.3629 14.479 10.5959 15.787 10.0372C17.0956 9.4792 18.5 9.2002 20 9.2002C21.5 9.2002 22.9083 9.4792 24.225 10.0372C25.5416 10.5959 26.6876 11.3629 27.663 12.3382C28.6376 13.3129 29.4039 14.4585 29.962 15.7752C30.5206 17.0919 30.7999 18.5002 30.7999 20.0002C30.7999 21.5002 30.5206 22.9042 29.962 24.2122C29.4039 25.5209 28.6376 26.6629 27.663 27.6382C26.6876 28.6129 25.5416 29.3835 24.225 29.9502C22.9083 30.5169 21.5 30.8002 20 30.8002ZM20 28.1502C22.2666 28.1502 24.1916 27.3585 25.775 25.7752C27.3583 24.1919 28.15 22.2669 28.15 20.0002C28.15 17.7335 27.3583 15.8085 25.775 14.2252C24.1916 12.6419 22.2666 11.8502 20 11.8502C17.7333 11.8502 15.8083 12.6419 14.225 14.2252C12.6416 15.8085 11.85 17.7335 11.85 20.0002C11.85 22.2669 12.6416 24.1919 14.225 25.7752C15.8083 27.3585 17.7333 28.1502 20 28.1502Z" fill="#535AF1"/>
</g>
</svg>
