<svg width="32" height="33" viewBox="0 0 32 33" fill="none" xmlns="http://www.w3.org/2000/svg">
<rect y="0.5" width="32" height="32" rx="16" fill="#ECEEFE"/>
<mask id="mask0_392_2857" style="mask-type:alpha" maskUnits="userSpaceOnUse" x="4" y="4" width="24" height="25">
<rect x="4" y="4.5" width="24" height="24" fill="#D9D9D9"/>
</mask>
<g mask="url(#mask0_392_2857)">
<path d="M23.3 18.7001C22.9333 18.7001 22.621 18.5708 22.363 18.3121C22.1043 18.0541 21.975 17.7418 21.975 17.3751V15.6501H20.25C19.8833 15.6501 19.5707 15.5208 19.312 15.2621C19.054 15.0041 18.925 14.6918 18.925 14.3251C18.925 13.9584 19.054 13.6458 19.312 13.3871C19.5707 13.1291 19.8833 13.0001 20.25 13.0001H21.975V11.2751C21.975 10.9084 22.1043 10.5958 22.363 10.3371C22.621 10.0791 22.9333 9.9501 23.3 9.9501C23.6667 9.9501 23.9793 10.0791 24.238 10.3371C24.496 10.5958 24.625 10.9084 24.625 11.2751V13.0001H26.35C26.7167 13.0001 27.0293 13.1291 27.288 13.3871C27.546 13.6458 27.675 13.9584 27.675 14.3251C27.675 14.6918 27.546 15.0041 27.288 15.2621C27.0293 15.5208 26.7167 15.6501 26.35 15.6501H24.625V17.3751C24.625 17.7418 24.496 18.0541 24.238 18.3121C23.9793 18.5708 23.6667 18.7001 23.3 18.7001ZM13.075 16.2001C11.8083 16.2001 10.7333 15.7584 9.85001 14.8751C8.96668 13.9918 8.52501 12.9168 8.52501 11.6501C8.52501 10.3834 8.96668 9.30843 9.85001 8.4251C10.7333 7.54176 11.8083 7.1001 13.075 7.1001C14.3417 7.1001 15.4167 7.54176 16.3 8.4251C17.1833 9.30843 17.625 10.3834 17.625 11.6501C17.625 12.9168 17.1833 13.9918 16.3 14.8751C15.4167 15.7584 14.3417 16.2001 13.075 16.2001ZM5.62501 26.0251C5.25835 26.0251 4.95001 25.9001 4.70001 25.6501C4.45001 25.4001 4.32501 25.0918 4.32501 24.7251V22.4501C4.32501 21.7668 4.48735 21.1501 4.81201 20.6001C5.13735 20.0501 5.57501 19.6334 6.12501 19.3501C7.22501 18.7834 8.35835 18.3584 9.52501 18.0751C10.6917 17.7918 11.875 17.6501 13.075 17.6501C14.275 17.6501 15.4583 17.7918 16.625 18.0751C17.7917 18.3584 18.925 18.7834 20.025 19.3501C20.575 19.6334 21.0123 20.0501 21.337 20.6001C21.6623 21.1501 21.825 21.7668 21.825 22.4501V24.7251C21.825 25.0918 21.7 25.4001 21.45 25.6501C21.2 25.9001 20.8917 26.0251 20.525 26.0251H5.62501ZM6.97501 23.3751H19.175V22.4501C19.175 22.2668 19.146 22.1168 19.088 22.0001C19.0293 21.8834 18.95 21.8001 18.85 21.7501C17.9333 21.3001 16.9793 20.9461 15.988 20.6881C14.996 20.4294 14.025 20.3001 13.075 20.3001C12.125 20.3001 11.154 20.4294 10.162 20.6881C9.17068 20.9461 8.21668 21.3001 7.30001 21.7501C7.20001 21.8001 7.12068 21.8834 7.06201 22.0001C7.00401 22.1168 6.97501 22.2668 6.97501 22.4501V23.3751ZM13.075 13.5501C13.6083 13.5501 14.0583 13.3668 14.425 13.0001C14.7917 12.6334 14.975 12.1834 14.975 11.6501C14.975 11.1168 14.7917 10.6668 14.425 10.3001C14.0583 9.93343 13.6083 9.7501 13.075 9.7501C12.5417 9.7501 12.0917 9.93343 11.725 10.3001C11.3583 10.6668 11.175 11.1168 11.175 11.6501C11.175 12.1834 11.3583 12.6334 11.725 13.0001C12.0917 13.3668 12.5417 13.5501 13.075 13.5501Z" fill="#797EF3"/>
</g>
</svg>
