<svg width="32" height="33" viewBox="0 0 32 33" fill="none" xmlns="http://www.w3.org/2000/svg">
<rect y="0.5" width="32" height="32" rx="16" fill="#ECEEFE"/>
<mask id="mask0_392_2865" style="mask-type:alpha" maskUnits="userSpaceOnUse" x="4" y="4" width="24" height="25">
<rect x="4" y="4.5" width="24" height="24" fill="#D9D9D9"/>
</mask>
<g mask="url(#mask0_392_2865)">
<path d="M23 18.5C22.7167 18.5 22.4793 18.404 22.288 18.212C22.096 18.0207 22 17.7833 22 17.5V15.5H20C19.7167 15.5 19.4793 15.404 19.288 15.212C19.096 15.0207 19 14.7833 19 14.5C19 14.2167 19.096 13.979 19.288 13.787C19.4793 13.5957 19.7167 13.5 20 13.5H22V11.5C22 11.2167 22.096 10.979 22.288 10.787C22.4793 10.5957 22.7167 10.5 23 10.5C23.2833 10.5 23.5207 10.5957 23.712 10.787C23.904 10.979 24 11.2167 24 11.5V13.5H26C26.2833 13.5 26.5207 13.5957 26.712 13.787C26.904 13.979 27 14.2167 27 14.5C27 14.7833 26.904 15.0207 26.712 15.212C26.5207 15.404 26.2833 15.5 26 15.5H24V17.5C24 17.7833 23.904 18.0207 23.712 18.212C23.5207 18.404 23.2833 18.5 23 18.5ZM13 16.5C11.9 16.5 10.9583 16.1083 10.175 15.325C9.39167 14.5417 9 13.6 9 12.5C9 11.4 9.39167 10.4583 10.175 9.675C10.9583 8.89167 11.9 8.5 13 8.5C14.1 8.5 15.0417 8.89167 15.825 9.675C16.6083 10.4583 17 11.4 17 12.5C17 13.6 16.6083 14.5417 15.825 15.325C15.0417 16.1083 14.1 16.5 13 16.5ZM6 24.5C5.71667 24.5 5.47933 24.404 5.288 24.212C5.096 24.0207 5 23.7833 5 23.5V21.7C5 21.1333 5.146 20.6123 5.438 20.137C5.72933 19.6623 6.11667 19.3 6.6 19.05C7.63333 18.5333 8.68333 18.1457 9.75 17.887C10.8167 17.629 11.9 17.5 13 17.5C14.1 17.5 15.1833 17.629 16.25 17.887C17.3167 18.1457 18.3667 18.5333 19.4 19.05C19.8833 19.3 20.2707 19.6623 20.562 20.137C20.854 20.6123 21 21.1333 21 21.7V23.5C21 23.7833 20.904 24.0207 20.712 24.212C20.5207 24.404 20.2833 24.5 20 24.5H6ZM7 22.5H19V21.7C19 21.5167 18.9543 21.35 18.863 21.2C18.771 21.05 18.65 20.9333 18.5 20.85C17.6 20.4 16.6917 20.0623 15.775 19.837C14.8583 19.6123 13.9333 19.5 13 19.5C12.0667 19.5 11.1417 19.6123 10.225 19.837C9.30833 20.0623 8.4 20.4 7.5 20.85C7.35 20.9333 7.22933 21.05 7.138 21.2C7.046 21.35 7 21.5167 7 21.7V22.5ZM13 14.5C13.55 14.5 14.021 14.304 14.413 13.912C14.8043 13.5207 15 13.05 15 12.5C15 11.95 14.8043 11.4793 14.413 11.088C14.021 10.696 13.55 10.5 13 10.5C12.45 10.5 11.9793 10.696 11.588 11.088C11.196 11.4793 11 11.95 11 12.5C11 13.05 11.196 13.5207 11.588 13.912C11.9793 14.304 12.45 14.5 13 14.5Z" fill="black"/>
</g>
</svg>
