<svg width="40" height="40" viewBox="0 0 40 40" fill="none" xmlns="http://www.w3.org/2000/svg">
<rect width="40" height="40" rx="20" fill="#ECEEFE"/>
<mask id="mask0_516_6778" style="mask-type:alpha" maskUnits="userSpaceOnUse" x="8" y="8" width="24" height="24">
<rect x="8" y="8" width="24" height="24" fill="#D9D9D9"/>
</mask>
<g mask="url(#mask0_516_6778)">
<path d="M20 27.3501C19.6333 27.3501 19.3207 27.2208 19.062 26.9621C18.804 26.7041 18.675 26.3918 18.675 26.0251V21.3001H13.95C13.5833 21.3001 13.271 21.1708 13.013 20.9121C12.7543 20.6541 12.625 20.3418 12.625 19.9751C12.625 19.6084 12.7543 19.2958 13.013 19.0371C13.271 18.7791 13.5833 18.6501 13.95 18.6501H18.675V13.9251C18.675 13.5584 18.804 13.2458 19.062 12.9871C19.3207 12.7291 19.6333 12.6001 20 12.6001C20.3667 12.6001 20.6793 12.7291 20.938 12.9871C21.196 13.2458 21.325 13.5584 21.325 13.9251V18.6501H26.05C26.4167 18.6501 26.7293 18.7791 26.988 19.0371C27.246 19.2958 27.375 19.6084 27.375 19.9751C27.375 20.3418 27.246 20.6541 26.988 20.9121C26.7293 21.1708 26.4167 21.3001 26.05 21.3001H21.325V26.0251C21.325 26.3918 21.196 26.7041 20.938 26.9621C20.6793 27.2208 20.3667 27.3501 20 27.3501Z" fill="#535AF1"/>
</g>
</svg>
