<svg width="24" height="25" viewBox="0 0 24 25" fill="none" xmlns="http://www.w3.org/2000/svg">
<mask id="mask0_244_1447" style="mask-type:alpha" maskUnits="userSpaceOnUse" x="0" y="0" width="24" height="25">
<rect y="0.5" width="24" height="24" fill="#D9D9D9"/>
</mask>
<g mask="url(#mask0_244_1447)">
<path d="M12.025 17.9C12.3916 17.9 12.7043 17.7706 12.963 17.512C13.221 17.254 13.35 16.9416 13.35 16.575V13.85H16.1C16.4666 13.85 16.775 13.725 17.025 13.475C17.275 13.225 17.4 12.9083 17.4 12.525C17.4 12.1583 17.271 11.8456 17.013 11.587C16.7543 11.329 16.4416 11.2 16.075 11.2H13.35V8.39995C13.35 8.03328 13.225 7.72495 12.975 7.47495C12.725 7.22495 12.4083 7.09995 12.025 7.09995C11.6583 7.09995 11.346 7.22895 11.088 7.48695C10.8293 7.74562 10.7 8.05828 10.7 8.42495V11.2H7.89995C7.53328 11.2 7.22495 11.325 6.97495 11.575C6.72495 11.825 6.59995 12.1416 6.59995 12.525C6.59995 12.8916 6.72928 13.204 6.98795 13.462C7.24595 13.7206 7.55828 13.85 7.92495 13.85H10.7V16.6C10.7 16.9666 10.825 17.275 11.075 17.525C11.325 17.775 11.6416 17.9 12.025 17.9ZM12 23.2999C10.5 23.2999 9.09562 23.0166 7.78695 22.45C6.47895 21.8833 5.33762 21.1126 4.36295 20.138C3.38762 19.1626 2.61662 18.0206 2.04995 16.712C1.48328 15.404 1.19995 14 1.19995 12.5C1.19995 11 1.48328 9.59162 2.04995 8.27495C2.61662 6.95828 3.38762 5.81262 4.36295 4.83795C5.33762 3.86262 6.47895 3.09562 7.78695 2.53695C9.09562 1.97895 10.5 1.69995 12 1.69995C13.5 1.69995 14.9083 1.97895 16.225 2.53695C17.5416 3.09562 18.6876 3.86262 19.663 4.83795C20.6376 5.81262 21.4039 6.95828 21.962 8.27495C22.5206 9.59162 22.7999 11 22.7999 12.5C22.7999 14 22.5206 15.404 21.962 16.712C21.4039 18.0206 20.6376 19.1626 19.663 20.138C18.6876 21.1126 17.5416 21.8833 16.225 22.45C14.9083 23.0166 13.5 23.2999 12 23.2999ZM12 20.65C14.2666 20.65 16.1916 19.8583 17.775 18.275C19.3583 16.6916 20.15 14.7666 20.15 12.5C20.15 10.2333 19.3583 8.30828 17.775 6.72495C16.1916 5.14162 14.2666 4.34995 12 4.34995C9.73328 4.34995 7.80828 5.14162 6.22495 6.72495C4.64162 8.30828 3.84995 10.2333 3.84995 12.5C3.84995 14.7666 4.64162 16.6916 6.22495 18.275C7.80828 19.8583 9.73328 20.65 12 20.65Z" fill="#535AF1"/>
</g>
</svg>
