<svg width="40" height="40" viewBox="0 0 40 40" fill="none" xmlns="http://www.w3.org/2000/svg">
<rect width="40" height="40" rx="20" fill="#ECEEFE"/>
<mask id="mask0_237_474" style="mask-type:alpha" maskUnits="userSpaceOnUse" x="8" y="8" width="24" height="24">
<rect x="8" y="8" width="24" height="24" fill="#D9D9D9"/>
</mask>
<g mask="url(#mask0_237_474)">
<path d="M12.8502 32.5002C12.1169 32.5002 11.4919 32.2419 10.9752 31.7252C10.4585 31.2085 10.2002 30.5835 10.2002 29.8502V15.5502C10.2002 14.8169 10.4585 14.1919 10.9752 13.6752C11.4919 13.1585 12.1169 12.9002 12.8502 12.9002H22.2752L19.6252 15.5502H12.8502V29.8502H27.1502V23.0752L29.8002 20.4252V29.8502C29.8002 30.5835 29.5419 31.2085 29.0252 31.7252C28.5085 32.2419 27.8835 32.5002 27.1502 32.5002H12.8502ZM23.7502 14.2252L25.6502 16.1252L19.3252 22.4002V23.3752H20.2752L26.6002 17.0752L28.4502 18.9502L22.1752 25.2502C21.9252 25.5002 21.6375 25.6919 21.3122 25.8252C20.9875 25.9585 20.6502 26.0252 20.3002 26.0252H18.0002C17.6335 26.0252 17.3209 25.8959 17.0622 25.6372C16.8042 25.3792 16.6752 25.0669 16.6752 24.7002V22.4002C16.6752 22.0502 16.7419 21.7125 16.8752 21.3872C17.0085 21.0625 17.2002 20.7752 17.4502 20.5252L23.7502 14.2252ZM28.4502 18.9502L23.7502 14.2252L26.2252 11.7502C26.7585 11.2169 27.3919 10.9502 28.1252 10.9502C28.8585 10.9502 29.4835 11.2169 30.0002 11.7502L30.9502 12.7252C31.4669 13.2585 31.7252 13.8835 31.7252 14.6002C31.7252 15.3169 31.4669 15.9335 30.9502 16.4502L28.4502 18.9502Z" fill="#444DF2"/>
</g>
</svg>
