<svg width="30" height="30" viewBox="0 0 30 30" fill="none" xmlns="http://www.w3.org/2000/svg">
<rect width="30" height="30" rx="15" fill="#ECEEFE"/>
<mask id="mask0_738_11858" style="mask-type:alpha" maskUnits="userSpaceOnUse" x="3" y="3" width="24" height="24">
<rect x="3" y="3" width="24" height="24" fill="#D9D9D9"/>
</mask>
<g mask="url(#mask0_738_11858)">
<path d="M7.6251 22.4H9.4751L17.9751 13.9L16.1251 12.05L7.6251 20.55V22.4ZM23.1501 12.45L17.5501 6.85001L18.9001 5.50001C19.4168 4.98334 20.0461 4.72501 20.7881 4.72501C21.5294 4.72501 22.1584 4.98334 22.6751 5.50001L24.5251 7.37501C25.0418 7.89167 25.3001 8.50834 25.3001 9.22501C25.3001 9.94167 25.0418 10.5583 24.5251 11.075L23.1501 12.45ZM6.2751 25.05C5.90843 25.05 5.6001 24.925 5.3501 24.675C5.1001 24.425 4.9751 24.1167 4.9751 23.75V19.975C4.9751 19.7917 5.0041 19.625 5.0621 19.475C5.12076 19.325 5.21676 19.1833 5.3501 19.05L16.1251 8.27501L21.7251 13.875L10.9751 24.675C10.8418 24.8083 10.7001 24.904 10.5501 24.962C10.4001 25.0207 10.2334 25.05 10.0501 25.05H6.2751Z" fill="#535AF1"/>
</g>
</svg>
