<svg width="25" height="24" viewBox="0 0 25 24" fill="none" xmlns="http://www.w3.org/2000/svg">
<path d="M10.0053 0L12.0053 4L14.0053 0H10.0053ZM17.1653 0.4L16.8853 4.88L20.6053 2.4L17.1653 0.4ZM3.40527 2.4L7.16527 4.88L6.88527 0.4L3.40527 2.4Z" fill="#4AA9FF"/>
<path d="M7.36514 23.9998H2.64514V18.8398L8.16514 20.1198C6.84514 21.5198 7.36514 23.9998 7.36514 23.9998Z" fill="#EBA352"/>
<path d="M6.92534 24H1.64534C1.64534 24 1.72534 21.44 0.845337 19.24L7.44534 20.2C6.68534 22.16 6.92534 24 6.92534 24ZM6.40534 16.96H8.40534V8.08C8.40534 7.48 7.96534 7 7.40534 7C6.84534 7 6.40534 7.48 6.40534 8.12V16.96ZM4.04534 16.96H6.40534V7.32C6.40534 6.6 5.88534 6 5.20534 6C4.56534 6 4.00534 6.6 4.00534 7.32V16.96H4.04534Z" fill="#FFDD67"/>
<path d="M2.00524 16.96H4.08524V7.87997C4.08524 7.23997 3.60524 6.71997 3.04524 6.71997C2.48524 6.71997 2.00524 7.23997 2.00524 7.87997V16.96ZM1.04524 8.07997C0.525244 8.07997 0.125244 8.55997 0.125244 9.15997V16.96H2.00524V9.15997C2.00524 8.55997 1.56524 8.07997 1.04524 8.07997Z" fill="#FFDD67"/>
<path d="M7.40513 6.96H7.20513C7.68513 7.04 8.04513 7.52 8.04513 8.04V16.96H8.40513V8.08C8.40513 7.48 7.96513 6.96 7.40513 6.96ZM5.24513 6C5.16513 6 5.12513 6 5.08513 6.04C5.64513 6.12 6.08513 6.68 6.08513 7.32V13.76L6.44513 14.16V7.32C6.40513 6.6 5.88513 6 5.24513 6ZM3.04513 6.72H2.88513C3.36513 6.8 3.72513 7.28 3.72513 7.84V13.72L4.08513 14.12V7.88C4.04513 7.24 3.60513 6.72 3.04513 6.72ZM1.04513 8.08C0.965132 8.08 0.925132 8.08 0.885132 8.12C1.32513 8.2 1.64513 8.64 1.64513 9.16V13.76L2.00513 14.16V9.16C2.00513 8.56 1.56513 8.08 1.04513 8.08Z" fill="#EBA352"/>
<path d="M11.7652 12.88C11.1652 12.2 9.9652 12.52 9.1252 14.28C8.5252 15.48 8.3652 15.24 8.0452 15.32V14.24C8.0452 14.24 0.0852009 13.72 0.0852009 14.92C0.0852009 14.92 -0.274799 17.88 0.485201 19.72C1.6452 22.48 7.5652 23.2 9.4052 18.52C9.7652 17.6 10.2852 16.6 10.6852 15.6C11.2052 14.4 12.4452 13.68 11.7652 12.88Z" fill="#FFDD67"/>
<path d="M11.3652 12.6001C12.6452 13.5601 10.2852 15.4001 9.16517 18.2401C7.56517 22.3201 2.88517 22.3201 0.925171 20.4401C2.72517 22.5601 7.72517 22.9601 9.40517 18.5201C10.5252 15.6401 13.2452 13.4401 11.3652 12.6001Z" fill="#EBA352"/>
<path d="M8.40496 15.2802C6.84496 14.7202 3.56496 15.8002 4.00496 18.9202C4.00496 16.0002 6.60496 15.3202 8.04496 15.3202C8.24496 15.3202 8.40496 15.2802 8.40496 15.2802ZM16.645 24.0002H21.365V18.8402L15.845 20.1202C17.165 21.5202 16.645 24.0002 16.645 24.0002Z" fill="#EBA352"/>
<path d="M17.0851 24H22.3651C22.3651 24 22.2851 21.44 23.1651 19.24L16.5651 20.2C17.3251 22.16 17.0851 24 17.0851 24ZM17.6051 16.96H15.6051V8.08C15.6051 7.48 16.0451 7 16.6051 7C17.1651 7 17.6051 7.48 17.6051 8.12V16.96ZM19.9651 16.96H17.6051V7.32C17.6051 6.6 18.1251 6 18.8051 6C19.4451 6 20.0051 6.6 20.0051 7.32V16.96H19.9651Z" fill="#FFDD67"/>
<path d="M22.005 16.96H19.925V7.87997C19.925 7.23997 20.405 6.71997 20.965 6.71997C21.525 6.71997 22.005 7.23997 22.005 7.87997V16.96ZM22.965 8.07997C23.485 8.07997 23.885 8.55997 23.885 9.15997V16.96H22.005V9.15997C22.005 8.55997 22.445 8.07997 22.965 8.07997Z" fill="#FFDD67"/>
<path d="M16.6051 6.96H16.8051C16.3251 7.04 15.9651 7.52 15.9651 8.04V16.96H15.6051V8.08C15.6051 7.48 16.0451 6.96 16.6051 6.96ZM18.7651 6C18.8451 6 18.8851 6 18.9251 6.04C18.3651 6.12 17.9251 6.68 17.9251 7.32V13.76L17.5651 14.16V7.32C17.6051 6.6 18.1251 6 18.7651 6ZM20.9651 6.72H21.1251C20.6451 6.8 20.2851 7.28 20.2851 7.84V13.72L19.9251 14.12V7.88C19.9651 7.24 20.4051 6.72 20.9651 6.72ZM22.9651 8.08C23.0451 8.08 23.0851 8.08 23.1251 8.12C22.6851 8.2 22.3651 8.64 22.3651 9.16V13.76L22.0051 14.16V9.16C22.0051 8.56 22.4451 8.08 22.9651 8.08Z" fill="#EBA352"/>
<path d="M12.2454 12.88C12.8454 12.2 14.0454 12.52 14.8854 14.28C15.4854 15.48 15.6454 15.24 15.9654 15.32V14.24C15.9654 14.24 23.9254 13.72 23.9254 14.92C23.9254 14.92 24.2854 17.88 23.5254 19.72C22.3654 22.48 16.4454 23.2 14.6054 18.52C14.2454 17.6 13.7254 16.6 13.3254 15.6C12.8054 14.4 11.5654 13.68 12.2454 12.88Z" fill="#FFDD67"/>
<path d="M12.6455 12.6001C11.3655 13.5601 13.7255 15.4001 14.8455 18.2401C16.4455 22.3201 21.1255 22.3201 23.0855 20.4401C21.2855 22.5601 16.2855 22.9601 14.6055 18.5201C13.4855 15.6401 10.7655 13.4401 12.6455 12.6001Z" fill="#EBA352"/>
<path d="M15.6052 15.2802C17.1652 14.7202 20.4452 15.8002 20.0052 18.9202C20.0052 16.0002 17.4052 15.3202 15.9652 15.3202C15.7652 15.3202 15.6052 15.2802 15.6052 15.2802Z" fill="#EBA352"/>
</svg>
