<svg width="30" height="30" viewBox="0 0 30 30" fill="none" xmlns="http://www.w3.org/2000/svg">
<mask id="mask0_842_12325" style="mask-type:alpha" maskUnits="userSpaceOnUse" x="0" y="0" width="30" height="30">
<rect width="30" height="30" fill="#D9D9D9"/>
</mask>
<g mask="url(#mask0_842_12325)">
<path d="M19.1562 20.3438C18.9271 20.0729 18.8125 19.7654 18.8125 19.4212C18.8125 19.0779 18.9271 18.7917 19.1562 18.5625L21.4688 16.25H12.5C12.1458 16.25 11.8492 16.13 11.61 15.89C11.37 15.6508 11.25 15.3542 11.25 15C11.25 14.6458 11.37 14.3487 11.61 14.1087C11.8492 13.8696 12.1458 13.75 12.5 13.75H21.4688L19.1562 11.4375C18.9062 11.1875 18.7812 10.8908 18.7812 10.5475C18.7812 10.2033 18.9062 9.90625 19.1562 9.65625C19.3854 9.40625 19.6721 9.28125 20.0163 9.28125C20.3596 9.28125 20.6458 9.39583 20.875 9.625L25.375 14.125C25.5 14.25 25.5888 14.3854 25.6413 14.5312C25.6929 14.6771 25.7188 14.8333 25.7188 15C25.7188 15.1667 25.6929 15.3229 25.6413 15.4688C25.5888 15.6146 25.5 15.75 25.375 15.875L20.875 20.375C20.6042 20.6458 20.3075 20.7654 19.985 20.7337C19.6617 20.7029 19.3854 20.5729 19.1562 20.3438ZM6.25 26.25C5.5625 26.25 4.97375 26.0054 4.48375 25.5163C3.99458 25.0263 3.75 24.4375 3.75 23.75V6.25C3.75 5.5625 3.99458 4.97375 4.48375 4.48375C4.97375 3.99458 5.5625 3.75 6.25 3.75H13.75C14.1042 3.75 14.4013 3.86958 14.6413 4.10875C14.8804 4.34875 15 4.64583 15 5C15 5.35417 14.8804 5.65083 14.6413 5.89C14.4013 6.13 14.1042 6.25 13.75 6.25H6.25V23.75H13.75C14.1042 23.75 14.4013 23.87 14.6413 24.11C14.8804 24.3492 15 24.6458 15 25C15 25.3542 14.8804 25.6508 14.6413 25.89C14.4013 26.13 14.1042 26.25 13.75 26.25H6.25Z" fill="black"/>
</g>
</svg>
