<svg width="35" height="36" viewBox="0 0 35 36" fill="none" xmlns="http://www.w3.org/2000/svg">
<mask id="mask0_813_12236" style="mask-type:alpha" maskUnits="userSpaceOnUse" x="0" y="0" width="35" height="36">
<rect y="0.5" width="35" height="35" fill="#D9D9D9"/>
</mask>
<g mask="url(#mask0_813_12236)">
<path d="M27.5625 30.7239L19.651 22.8124C18.9219 23.3714 18.0289 23.8148 16.9721 24.1424C15.9143 24.471 14.8385 24.6353 13.7448 24.6353C10.8524 24.6353 8.40389 23.633 6.39917 21.6283C4.39347 19.6226 3.39062 17.1735 3.39062 14.2812C3.39062 11.3888 4.39347 8.93978 6.39917 6.93409C8.40389 4.92936 10.8524 3.927 13.7448 3.927C16.6372 3.927 19.0862 4.92936 21.0919 6.93409C23.0966 8.93978 24.099 11.3888 24.099 14.2812C24.099 15.3749 23.9473 16.4201 23.644 17.4166C23.3397 18.4131 22.8958 19.3003 22.3125 20.078L30.2969 28.0624C30.6615 28.427 30.8438 28.8645 30.8438 29.3749C30.8438 29.8853 30.6493 30.335 30.2604 30.7239C29.8958 31.0885 29.4462 31.2708 28.9115 31.2708C28.3767 31.2708 27.9271 31.0885 27.5625 30.7239ZM13.7448 20.7708C15.5677 20.7708 17.1053 20.1446 18.3575 18.8924C19.6088 17.6412 20.2344 16.1041 20.2344 14.2812C20.2344 12.4583 19.6088 10.9207 18.3575 9.66846C17.1053 8.41721 15.5677 7.79159 13.7448 7.79159C11.9219 7.79159 10.3848 8.41721 9.13354 9.66846C7.88132 10.9207 7.25521 12.4583 7.25521 14.2812C7.25521 16.1041 7.88132 17.6412 9.13354 18.8924C10.3848 20.1446 11.9219 20.7708 13.7448 20.7708Z" fill="black"/>
</g>
</svg>
