<svg width="24" height="25" viewBox="0 0 24 25" fill="none" xmlns="http://www.w3.org/2000/svg">
<mask id="mask0_239_1590" style="mask-type:alpha" maskUnits="userSpaceOnUse" x="0" y="0" width="24" height="25">
<rect y="0.5" width="24" height="24" fill="#D9D9D9"/>
</mask>
<g mask="url(#mask0_239_1590)">
<path d="M7.22504 20.8248C6.7917 20.8248 6.45004 20.6621 6.20004 20.3368C5.95004 20.0121 5.87504 19.6415 5.97504 19.2248L6.57504 16.8248H4.77504C4.34171 16.8248 3.9917 16.6581 3.72504 16.3248C3.45837 15.9915 3.38337 15.6081 3.50004 15.1748C3.58337 14.8915 3.7417 14.6538 3.97504 14.4618C4.20837 14.2705 4.47504 14.1748 4.77504 14.1748H7.25004L8.07504 10.8248H5.77504C5.3417 10.8248 4.9917 10.6581 4.72504 10.3248C4.45837 9.99147 4.38337 9.60814 4.50004 9.1748C4.58337 8.89147 4.7417 8.65414 4.97504 8.4628C5.20837 8.2708 5.47504 8.1748 5.77504 8.1748H8.75004L9.50004 5.1498C9.58337 4.86647 9.74171 4.63314 9.97504 4.4498C10.2084 4.26647 10.475 4.1748 10.775 4.1748C11.2084 4.1748 11.55 4.33714 11.8 4.6618C12.05 4.98714 12.125 5.35814 12.025 5.7748L11.425 8.1748H14.75L15.5 5.1498C15.5834 4.86647 15.7417 4.63314 15.975 4.4498C16.2084 4.26647 16.475 4.1748 16.775 4.1748C17.2084 4.1748 17.55 4.33714 17.8 4.6618C18.05 4.98714 18.125 5.35814 18.025 5.7748L17.425 8.1748H19.225C19.6584 8.1748 20.0084 8.34147 20.275 8.6748C20.5417 9.00814 20.6167 9.39147 20.5 9.8248C20.4167 10.1081 20.2584 10.3455 20.025 10.5368C19.7917 10.7288 19.525 10.8248 19.225 10.8248H16.75L15.925 14.1748H18.225C18.6584 14.1748 19.0084 14.3415 19.275 14.6748C19.5417 15.0081 19.6167 15.3915 19.5 15.8248C19.4167 16.1081 19.2584 16.3458 19.025 16.5378C18.7917 16.7291 18.525 16.8248 18.225 16.8248H15.25L14.5 19.8498C14.4167 20.1331 14.2584 20.3665 14.025 20.5498C13.7917 20.7331 13.525 20.8248 13.225 20.8248C12.7917 20.8248 12.45 20.6621 12.2 20.3368C11.95 20.0121 11.875 19.6415 11.975 19.2248L12.575 16.8248H9.25004L8.50004 19.8498C8.4167 20.1331 8.25837 20.3665 8.02504 20.5498C7.7917 20.7331 7.52504 20.8248 7.22504 20.8248ZM9.92504 14.1748H13.25L14.075 10.8248H10.75L9.92504 14.1748Z" fill="#535AF1"/>
</g>
</svg>
