<svg width="25" height="25" viewBox="0 0 25 25" fill="none" xmlns="http://www.w3.org/2000/svg">
<mask id="mask0_239_1574" style="mask-type:alpha" maskUnits="userSpaceOnUse" x="0" y="0" width="25" height="25">
<rect x="0.5" y="0.5" width="24" height="24" fill="#D9D9D9"/>
</mask>
<g mask="url(#mask0_239_1574)">
<path d="M7.74995 20.5C7.43328 20.5 7.17495 20.375 6.97495 20.125C6.77495 19.875 6.71662 19.6 6.79995 19.3L7.49995 16.5H5.27495C4.94162 16.5 4.67495 16.371 4.47495 16.113C4.27495 15.8543 4.21661 15.5667 4.29995 15.25C4.34995 15.0167 4.46662 14.8333 4.64995 14.7C4.83328 14.5667 5.04162 14.5 5.27495 14.5H7.99995L8.99995 10.5H6.27495C5.94161 10.5 5.67495 10.371 5.47495 10.113C5.27495 9.85433 5.21662 9.56667 5.29995 9.25C5.34995 9.01667 5.46662 8.83333 5.64995 8.7C5.83328 8.56667 6.04162 8.5 6.27495 8.5H9.49995L10.3249 5.225C10.3749 5.00833 10.4833 4.83333 10.6499 4.7C10.8166 4.56667 11.0166 4.5 11.2499 4.5C11.5666 4.5 11.8249 4.625 12.0249 4.875C12.2249 5.125 12.2833 5.4 12.1999 5.7L11.4999 8.5H15.4999L16.3249 5.225C16.3749 5.00833 16.4833 4.83333 16.6499 4.7C16.8166 4.56667 17.0166 4.5 17.2499 4.5C17.5666 4.5 17.8249 4.625 18.0249 4.875C18.2249 5.125 18.2833 5.4 18.1999 5.7L17.4999 8.5H19.7249C20.0583 8.5 20.3249 8.629 20.5249 8.887C20.7249 9.14567 20.7833 9.43333 20.6999 9.75C20.65 9.98333 20.5333 10.1667 20.3499 10.3C20.1666 10.4333 19.9583 10.5 19.7249 10.5H16.9999L15.9999 14.5H18.7249C19.0583 14.5 19.3249 14.629 19.5249 14.887C19.7249 15.1457 19.7833 15.4333 19.6999 15.75C19.6499 15.9833 19.5333 16.1667 19.3499 16.3C19.1666 16.4333 18.9583 16.5 18.7249 16.5H15.4999L14.6749 19.775C14.6249 19.9917 14.5166 20.1667 14.3499 20.3C14.1833 20.4333 13.9833 20.5 13.7499 20.5C13.4333 20.5 13.1749 20.375 12.9749 20.125C12.7749 19.875 12.7166 19.6 12.7999 19.3L13.4999 16.5H9.49995L8.67495 19.775C8.62495 19.9917 8.51661 20.1667 8.34995 20.3C8.18328 20.4333 7.98328 20.5 7.74995 20.5ZM9.99995 14.5H13.9999L14.9999 10.5H10.9999L9.99995 14.5Z" fill="black"/>
</g>
</svg>
