<svg width="164" height="49" viewBox="0 0 164 49" fill="none" xmlns="http://www.w3.org/2000/svg">
<rect width="164" height="49" rx="24.5" fill="#444DF2"/>
<mask id="mask0_463_7253" style="mask-type:alpha" maskUnits="userSpaceOnUse" x="25" y="12" width="24" height="25">
<rect x="25" y="12.5" width="24" height="24" fill="#D9D9D9"/>
</mask>
<g mask="url(#mask0_463_7253)">
<path d="M45.3 32.8L43 30.5H29C28.45 30.5 27.9793 30.3043 27.588 29.913C27.196 29.521 27 29.05 27 28.5V16.5C27 15.95 27.196 15.479 27.588 15.087C27.9793 14.6957 28.45 14.5 29 14.5H45C45.55 14.5 46.021 14.6957 46.413 15.087C46.8043 15.479 47 15.95 47 16.5V32.075C47 32.525 46.796 32.8373 46.388 33.012C45.9793 33.1873 45.6167 33.1167 45.3 32.8ZM29 16.5V28.5H43.825L45 29.675V16.5H29Z" fill="white"/>
</g>
<path d="M61.466 30.144C61.118 30.144 60.848 30.048 60.656 29.856C60.476 29.664 60.386 29.388 60.386 29.028V18.318C60.386 17.946 60.476 17.664 60.656 17.472C60.848 17.268 61.094 17.166 61.394 17.166C61.67 17.166 61.874 17.22 62.006 17.328C62.15 17.424 62.318 17.592 62.51 17.832L69.404 26.778H68.936V18.264C68.936 17.916 69.026 17.646 69.206 17.454C69.398 17.262 69.668 17.166 70.016 17.166C70.364 17.166 70.628 17.262 70.808 17.454C70.988 17.646 71.078 17.916 71.078 18.264V29.064C71.078 29.4 70.994 29.664 70.826 29.856C70.658 30.048 70.43 30.144 70.142 30.144C69.866 30.144 69.644 30.09 69.476 29.982C69.32 29.874 69.146 29.7 68.954 29.46L62.078 20.514H62.528V29.028C62.528 29.388 62.438 29.664 62.258 29.856C62.078 30.048 61.814 30.144 61.466 30.144ZM76.5328 30.18C75.8968 30.18 75.3268 30.06 74.8228 29.82C74.3308 29.568 73.9408 29.232 73.6528 28.812C73.3768 28.392 73.2388 27.918 73.2388 27.39C73.2388 26.742 73.4068 26.232 73.7428 25.86C74.0788 25.476 74.6248 25.2 75.3808 25.032C76.1368 24.864 77.1508 24.78 78.4228 24.78H79.3228V26.076H78.4408C77.6968 26.076 77.1028 26.112 76.6588 26.184C76.2148 26.256 75.8968 26.382 75.7048 26.562C75.5248 26.73 75.4348 26.97 75.4348 27.282C75.4348 27.678 75.5728 28.002 75.8488 28.254C76.1248 28.506 76.5088 28.632 77.0008 28.632C77.3968 28.632 77.7448 28.542 78.0448 28.362C78.3568 28.17 78.6028 27.912 78.7828 27.588C78.9628 27.264 79.0528 26.892 79.0528 26.472V24.402C79.0528 23.802 78.9208 23.37 78.6568 23.106C78.3928 22.842 77.9488 22.71 77.3248 22.71C76.9768 22.71 76.5988 22.752 76.1908 22.836C75.7948 22.92 75.3748 23.064 74.9308 23.268C74.7028 23.376 74.4988 23.406 74.3188 23.358C74.1508 23.31 74.0188 23.214 73.9228 23.07C73.8268 22.914 73.7788 22.746 73.7788 22.566C73.7788 22.386 73.8268 22.212 73.9228 22.044C74.0188 21.864 74.1808 21.732 74.4088 21.648C74.9608 21.42 75.4888 21.258 75.9928 21.162C76.5088 21.066 76.9768 21.018 77.3968 21.018C78.2608 21.018 78.9688 21.15 79.5208 21.414C80.0848 21.678 80.5048 22.08 80.7808 22.62C81.0568 23.148 81.1948 23.832 81.1948 24.672V28.992C81.1948 29.364 81.1048 29.652 80.9248 29.856C80.7448 30.048 80.4868 30.144 80.1508 30.144C79.8148 30.144 79.5508 30.048 79.3588 29.856C79.1788 29.652 79.0888 29.364 79.0888 28.992V28.128H79.2328C79.1488 28.548 78.9808 28.914 78.7288 29.226C78.4888 29.526 78.1828 29.76 77.8108 29.928C77.4388 30.096 77.0128 30.18 76.5328 30.18ZM87.5466 30.18C86.6226 30.18 85.8186 29.994 85.1346 29.622C84.4506 29.238 83.9226 28.698 83.5506 28.002C83.1786 27.306 82.9926 26.49 82.9926 25.554C82.9926 24.846 83.0946 24.216 83.2986 23.664C83.5146 23.1 83.8206 22.626 84.2166 22.242C84.6126 21.846 85.0926 21.546 85.6566 21.342C86.2206 21.126 86.8506 21.018 87.5466 21.018C87.9426 21.018 88.3686 21.072 88.8246 21.18C89.2926 21.288 89.7306 21.468 90.1386 21.72C90.3306 21.84 90.4566 21.984 90.5166 22.152C90.5766 22.32 90.5886 22.494 90.5526 22.674C90.5166 22.842 90.4386 22.992 90.3186 23.124C90.2106 23.244 90.0726 23.322 89.9046 23.358C89.7366 23.382 89.5506 23.34 89.3466 23.232C89.0826 23.076 88.8126 22.962 88.5366 22.89C88.2606 22.806 87.9966 22.764 87.7446 22.764C87.3486 22.764 87.0006 22.83 86.7006 22.962C86.4006 23.082 86.1426 23.262 85.9266 23.502C85.7226 23.73 85.5666 24.018 85.4586 24.366C85.3506 24.714 85.2966 25.116 85.2966 25.572C85.2966 26.46 85.5066 27.162 85.9266 27.678C86.3586 28.182 86.9646 28.434 87.7446 28.434C87.9966 28.434 88.2546 28.398 88.5186 28.326C88.7946 28.254 89.0706 28.14 89.3466 27.984C89.5506 27.876 89.7306 27.84 89.8866 27.876C90.0546 27.912 90.1926 27.996 90.3006 28.128C90.4086 28.248 90.4746 28.398 90.4986 28.578C90.5226 28.746 90.4986 28.914 90.4266 29.082C90.3666 29.25 90.2466 29.388 90.0666 29.496C89.6706 29.736 89.2506 29.91 88.8066 30.018C88.3626 30.126 87.9426 30.18 87.5466 30.18ZM93.0848 30.144C92.7248 30.144 92.4488 30.048 92.2568 29.856C92.0648 29.652 91.9688 29.364 91.9688 28.992V18.3C91.9688 17.928 92.0648 17.646 92.2568 17.454C92.4488 17.262 92.7248 17.166 93.0848 17.166C93.4448 17.166 93.7208 17.262 93.9128 17.454C94.1168 17.646 94.2188 17.928 94.2188 18.3V22.962H93.9668C94.2308 22.326 94.6388 21.846 95.1908 21.522C95.7548 21.186 96.3908 21.018 97.0988 21.018C97.8068 21.018 98.3888 21.15 98.8448 21.414C99.3008 21.678 99.6428 22.08 99.8708 22.62C100.099 23.148 100.213 23.82 100.213 24.636V28.992C100.213 29.364 100.117 29.652 99.9248 29.856C99.7328 30.048 99.4568 30.144 99.0968 30.144C98.7368 30.144 98.4548 30.048 98.2508 29.856C98.0588 29.652 97.9628 29.364 97.9628 28.992V24.744C97.9628 24.06 97.8308 23.562 97.5668 23.25C97.3148 22.938 96.9188 22.782 96.3788 22.782C95.7188 22.782 95.1908 22.992 94.7948 23.412C94.4108 23.82 94.2188 24.366 94.2188 25.05V28.992C94.2188 29.76 93.8408 30.144 93.0848 30.144ZM103.65 30.144C103.278 30.144 102.99 30.048 102.786 29.856C102.594 29.652 102.498 29.364 102.498 28.992V22.188C102.498 21.816 102.594 21.534 102.786 21.342C102.978 21.15 103.248 21.054 103.596 21.054C103.944 21.054 104.214 21.15 104.406 21.342C104.598 21.534 104.694 21.816 104.694 22.188V23.322H104.514C104.682 22.602 105.012 22.056 105.504 21.684C105.996 21.312 106.65 21.09 107.466 21.018C107.718 20.994 107.916 21.06 108.06 21.216C108.216 21.36 108.306 21.588 108.33 21.9C108.354 22.2 108.282 22.446 108.114 22.638C107.958 22.818 107.718 22.926 107.394 22.962L106.998 22.998C106.266 23.07 105.714 23.298 105.342 23.682C104.97 24.054 104.784 24.582 104.784 25.266V28.992C104.784 29.364 104.688 29.652 104.496 29.856C104.304 30.048 104.022 30.144 103.65 30.144ZM110.663 30.126C110.303 30.126 110.027 30.018 109.835 29.802C109.643 29.586 109.547 29.286 109.547 28.902V22.296C109.547 21.9 109.643 21.6 109.835 21.396C110.027 21.18 110.303 21.072 110.663 21.072C111.023 21.072 111.299 21.18 111.491 21.396C111.695 21.6 111.797 21.9 111.797 22.296V28.902C111.797 29.286 111.701 29.586 111.509 29.802C111.317 30.018 111.035 30.126 110.663 30.126ZM110.663 19.398C110.243 19.398 109.913 19.296 109.673 19.092C109.445 18.876 109.331 18.582 109.331 18.21C109.331 17.826 109.445 17.532 109.673 17.328C109.913 17.124 110.243 17.022 110.663 17.022C111.095 17.022 111.425 17.124 111.653 17.328C111.881 17.532 111.995 17.826 111.995 18.21C111.995 18.582 111.881 18.876 111.653 19.092C111.425 19.296 111.095 19.398 110.663 19.398ZM118.203 30.18C117.279 30.18 116.475 29.994 115.791 29.622C115.107 29.238 114.579 28.698 114.207 28.002C113.835 27.306 113.649 26.49 113.649 25.554C113.649 24.846 113.751 24.216 113.955 23.664C114.171 23.1 114.477 22.626 114.873 22.242C115.269 21.846 115.749 21.546 116.313 21.342C116.877 21.126 117.507 21.018 118.203 21.018C118.599 21.018 119.025 21.072 119.481 21.18C119.949 21.288 120.387 21.468 120.795 21.72C120.987 21.84 121.113 21.984 121.173 22.152C121.233 22.32 121.245 22.494 121.209 22.674C121.173 22.842 121.095 22.992 120.975 23.124C120.867 23.244 120.729 23.322 120.561 23.358C120.393 23.382 120.207 23.34 120.003 23.232C119.739 23.076 119.469 22.962 119.193 22.89C118.917 22.806 118.653 22.764 118.401 22.764C118.005 22.764 117.657 22.83 117.357 22.962C117.057 23.082 116.799 23.262 116.583 23.502C116.379 23.73 116.223 24.018 116.115 24.366C116.007 24.714 115.953 25.116 115.953 25.572C115.953 26.46 116.163 27.162 116.583 27.678C117.015 28.182 117.621 28.434 118.401 28.434C118.653 28.434 118.911 28.398 119.175 28.326C119.451 28.254 119.727 28.14 120.003 27.984C120.207 27.876 120.387 27.84 120.543 27.876C120.711 27.912 120.849 27.996 120.957 28.128C121.065 28.248 121.131 28.398 121.155 28.578C121.179 28.746 121.155 28.914 121.083 29.082C121.023 29.25 120.903 29.388 120.723 29.496C120.327 29.736 119.907 29.91 119.463 30.018C119.019 30.126 118.599 30.18 118.203 30.18ZM123.741 30.144C123.381 30.144 123.105 30.048 122.913 29.856C122.721 29.652 122.625 29.364 122.625 28.992V18.3C122.625 17.928 122.721 17.646 122.913 17.454C123.105 17.262 123.381 17.166 123.741 17.166C124.101 17.166 124.377 17.262 124.569 17.454C124.773 17.646 124.875 17.928 124.875 18.3V22.962H124.623C124.887 22.326 125.295 21.846 125.847 21.522C126.411 21.186 127.047 21.018 127.755 21.018C128.463 21.018 129.045 21.15 129.501 21.414C129.957 21.678 130.299 22.08 130.527 22.62C130.755 23.148 130.869 23.82 130.869 24.636V28.992C130.869 29.364 130.773 29.652 130.581 29.856C130.389 30.048 130.113 30.144 129.753 30.144C129.393 30.144 129.111 30.048 128.907 29.856C128.715 29.652 128.619 29.364 128.619 28.992V24.744C128.619 24.06 128.487 23.562 128.223 23.25C127.971 22.938 127.575 22.782 127.035 22.782C126.375 22.782 125.847 22.992 125.451 23.412C125.067 23.82 124.875 24.366 124.875 25.05V28.992C124.875 29.76 124.497 30.144 123.741 30.144ZM137.186 30.18C136.406 30.18 135.752 30.048 135.224 29.784C134.708 29.52 134.324 29.136 134.072 28.632C133.82 28.116 133.694 27.48 133.694 26.724V22.89H132.758C132.47 22.89 132.248 22.818 132.092 22.674C131.936 22.518 131.858 22.308 131.858 22.044C131.858 21.768 131.936 21.558 132.092 21.414C132.248 21.27 132.47 21.198 132.758 21.198H133.694V19.56C133.694 19.188 133.79 18.906 133.982 18.714C134.186 18.522 134.468 18.426 134.828 18.426C135.188 18.426 135.464 18.522 135.656 18.714C135.848 18.906 135.944 19.188 135.944 19.56V21.198H137.852C138.14 21.198 138.362 21.27 138.518 21.414C138.674 21.558 138.752 21.768 138.752 22.044C138.752 22.308 138.674 22.518 138.518 22.674C138.362 22.818 138.14 22.89 137.852 22.89H135.944V26.598C135.944 27.174 136.07 27.606 136.322 27.894C136.574 28.182 136.982 28.326 137.546 28.326C137.75 28.326 137.93 28.308 138.086 28.272C138.242 28.236 138.38 28.212 138.5 28.2C138.644 28.188 138.764 28.236 138.86 28.344C138.956 28.44 139.004 28.644 139.004 28.956C139.004 29.196 138.962 29.412 138.878 29.604C138.806 29.784 138.668 29.91 138.464 29.982C138.308 30.03 138.104 30.072 137.852 30.108C137.6 30.156 137.378 30.18 137.186 30.18Z" fill="white"/>
</svg>
